<svg width="20" height="22" viewBox="0 0 20 22" fill="none" xmlns="http://www.w3.org/2000/svg">
<g clip-path="url(#clip0_1897_193978)">
<path d="M15.9151 16.1816C16.2928 16.2579 16.6593 16.3265 17.023 16.4082C17.3496 16.4821 17.682 16.5468 17.9956 16.6613C18.8425 16.9705 19.3372 17.6183 19.6108 18.4516C19.9283 19.4177 20.0116 20.4138 19.9962 21.4219C19.9984 21.4723 19.9902 21.5226 19.9721 21.5697C19.954 21.6167 19.9263 21.6595 19.8909 21.6952C19.8554 21.731 19.813 21.759 19.7662 21.7775C19.7194 21.796 19.6693 21.8045 19.619 21.8026C19.3936 21.8026 19.252 21.648 19.2312 21.4021C19.172 20.6833 19.1282 19.9621 19.0352 19.2472C18.9764 18.795 18.8097 18.366 18.4706 18.0004V18.7733C18.4706 18.8776 18.4735 18.9824 18.4706 19.0863C18.46 19.3385 18.314 19.4906 18.0891 19.4887C17.8641 19.4868 17.7037 19.3283 17.7037 19.0844C17.697 18.61 17.6859 18.1351 17.709 17.6622C17.7211 17.4207 17.6348 17.3154 17.4094 17.2758C17.1035 17.2236 16.8 17.1564 16.4773 17.0917L15.6699 19.0037C15.3235 19.8249 14.9757 20.6423 14.6332 21.464C14.5537 21.6572 14.4545 21.8065 14.2218 21.8021C13.9998 21.7983 13.9082 21.648 13.8331 21.464C13.2632 20.0863 12.6847 18.7105 12.1235 17.3308C12.0363 17.1163 11.9346 17.084 11.7304 17.14C11.4168 17.2255 11.095 17.2825 10.767 17.354C10.767 17.954 10.7703 18.524 10.767 19.0931C10.767 19.3269 10.6138 19.4795 10.3994 19.4839C10.1735 19.4892 10.014 19.3332 10.0039 19.0931C10.001 19.0211 10.0039 18.9481 10.0039 18.8762C10.0039 18.5815 10.0039 18.2873 10.0039 17.9284C9.69337 18.2997 9.49485 18.7522 9.43163 19.2327C9.33528 19.9471 9.28952 20.6684 9.23123 21.3877C9.20474 21.7205 8.90559 21.9161 8.65317 21.7379C8.56646 21.677 8.47782 21.548 8.4759 21.448C8.45326 20.3341 8.54237 19.2332 8.96147 18.1849C9.33384 17.2535 10.0309 16.7072 11.0006 16.5004C11.5083 16.3922 12.0175 16.2917 12.5474 16.1835C12.5276 16.1417 12.5037 16.1019 12.4761 16.0647C11.8499 15.4111 11.5989 14.6073 11.544 13.7247C11.5427 13.7086 11.5427 13.6925 11.544 13.6764C11.6297 12.6861 11.32 11.7876 10.8744 10.9229C10.725 10.6331 10.5767 10.3369 10.436 10.0399C10.3262 9.8075 10.3878 9.60509 10.6176 9.49399C11.6528 9.00367 12.6996 8.54379 13.8365 8.33462C14.3058 8.25516 14.7878 8.30166 15.2335 8.4694C16.0981 8.77856 16.9508 9.12395 17.8025 9.46935C18.0876 9.5848 18.1469 9.79977 18.0115 10.079C17.8892 10.3316 17.7707 10.5877 17.6329 10.8311C17.368 11.2963 17.2851 11.8272 17.0929 12.3117C16.8588 12.9001 16.9806 13.4928 16.8906 14.0769C16.7721 14.8421 16.5143 15.5343 15.9623 16.0951C15.9434 16.1221 15.9276 16.1511 15.9151 16.1816ZM16.1473 12.9305C14.8673 13.4199 13.5971 13.4165 12.3335 12.9392C12.2506 13.5411 12.3427 14.3643 12.5368 14.8604C12.8321 15.6164 13.4068 16.0125 14.219 16.0198C15.0061 16.027 15.6077 15.6333 15.9098 14.902C16.1627 14.287 16.1776 13.6387 16.1473 12.9305ZM11.294 10.0263C11.4467 10.3336 11.5787 10.6162 11.7275 10.8881C11.7511 10.9205 11.7816 10.9473 11.8167 10.9665C11.8519 10.9857 11.8908 10.9969 11.9308 10.9992C13.4607 11.0054 14.9905 11.0054 16.5201 10.9992C16.5919 10.9992 16.6969 10.9509 16.7287 10.8959C16.8829 10.6181 17.0177 10.3287 17.1916 9.97802C16.3877 9.69881 15.6193 9.40993 14.8356 9.1713C14.544 9.08811 14.2382 9.06737 13.9381 9.11043C13.0122 9.23941 12.1712 9.64036 11.294 10.0263ZM12.0825 11.7808C12.0724 12.0117 12.1822 12.1253 12.3937 12.1673C12.5262 12.1934 12.6524 12.2485 12.7839 12.2813C13.4265 12.4431 14.0677 12.6426 14.7411 12.4914C15.2156 12.3847 15.6839 12.2499 16.1579 12.1407C16.3607 12.0948 16.4378 11.9857 16.4175 11.7813L12.0825 11.7808ZM14.2344 20.4133C14.3933 20.0389 14.5273 19.7264 14.6568 19.4119C14.6713 19.3744 14.6713 19.3329 14.6568 19.2955C14.5248 19.0192 14.3876 18.7462 14.231 18.4303C14.0793 18.7346 13.953 18.9834 13.8312 19.2341C13.8063 19.2742 13.7962 19.3217 13.8027 19.3684C13.9352 19.6993 14.074 20.0264 14.2344 20.4133ZM15.6925 16.9613C15.3491 16.8275 15.3592 16.8304 15.2648 17.1545C15.2233 17.2965 15.1684 17.4719 15.0581 17.5492C14.7551 17.7651 14.8259 17.9806 14.9931 18.2255C15.0225 18.2685 15.0446 18.3168 15.0894 18.3946L15.6925 16.9613ZM13.3914 18.383C13.4911 18.1777 13.613 18.0134 13.639 17.8352C13.651 17.7511 13.4723 17.6448 13.3904 17.54C13.3297 17.4659 13.2809 17.3828 13.2459 17.2936C13.1977 17.1618 13.1707 17.0226 13.1298 16.8666L12.7926 16.9444L13.3914 18.383ZM13.9439 16.7946C13.955 17.1328 14.0186 17.1936 14.2864 17.1738C14.546 17.155 14.5273 16.9806 14.5191 16.7946H13.9439Z" fill="black" fill-opacity="0.75"/>
<path d="M0.782311 18.3361H3.89566C5.12982 18.3361 6.36383 18.3361 7.59767 18.3361C7.90886 18.3361 8.07264 18.4685 8.07409 18.7167C8.07553 18.965 7.91175 19.1032 7.60152 19.1032C5.22183 19.1032 2.84198 19.1032 0.461968 19.1032C0.124765 19.1032 0.000481719 18.9689 0 18.609C0 15.3377 0 12.0663 0 8.79497C0 6.10298 0 3.41051 0 0.717553C0 0.314672 0.113686 0.199219 0.511104 0.199219H12.5541C12.9645 0.199219 13.0748 0.314189 13.0748 0.730596C13.0748 2.90119 13.0748 5.0713 13.0748 7.24093C13.0748 7.32161 13.0748 7.4018 13.0748 7.48247C13.0681 7.75299 12.9303 7.91047 12.6957 7.91288C12.4611 7.9153 12.3132 7.7554 12.3103 7.48778C12.3074 6.69989 12.3103 5.91249 12.3103 5.1246C12.3103 3.80646 12.3103 2.48833 12.3103 1.17019V0.984691H0.782311V18.3361Z" fill="black" fill-opacity="0.75"/>
<path d="M3.84538 17.1742C3.35691 17.1742 2.86845 17.1742 2.37951 17.1742C2.0635 17.1742 1.92477 17.0404 1.9238 16.7235C1.92123 15.7355 1.92123 14.7474 1.9238 13.7594C1.9238 13.4599 2.06832 13.3203 2.36698 13.3198C3.34391 13.3179 4.32099 13.3179 5.29824 13.3198C5.63544 13.3198 5.76647 13.4541 5.76695 13.7821C5.76695 14.754 5.76695 15.726 5.76695 16.6979C5.76695 17.0496 5.64219 17.1718 5.28812 17.1737C4.80641 17.1757 4.32565 17.1742 3.84538 17.1742ZM4.99283 14.1029H2.70419V16.3902H4.99283V14.1029Z" fill="black" fill-opacity="0.75"/>
<path d="M2.69841 3.28087V5.58657H5.00343C5.00343 5.4571 4.99813 5.33102 5.00343 5.20542C5.01547 4.9779 5.17251 4.82815 5.3888 4.83056C5.6051 4.83298 5.75828 4.98466 5.76503 5.21364C5.77177 5.46242 5.77129 5.71168 5.76503 5.96046C5.76069 6.21842 5.62051 6.36672 5.36376 6.36769C4.35504 6.37123 3.34616 6.37123 2.33712 6.36769C2.06543 6.36769 1.9238 6.21987 1.92332 5.94839C1.92139 4.95262 1.92139 3.95669 1.92332 2.96059C1.92766 2.65239 2.05965 2.51713 2.3612 2.51713C2.72153 2.51327 3.08378 2.51182 3.44218 2.51713C3.68593 2.52003 3.84201 2.67558 3.84249 2.90359C3.84297 3.1316 3.68786 3.27942 3.44025 3.28377C3.20228 3.28473 2.96287 3.28087 2.69841 3.28087Z" fill="black" fill-opacity="0.75"/>
<path d="M2.70081 8.6844V10.9925H5.00054C5.00054 10.8713 4.9962 10.7471 5.00054 10.623C5.01017 10.3921 5.15951 10.2365 5.37195 10.2326C5.59594 10.2268 5.75732 10.3819 5.7631 10.6263C5.76888 10.8708 5.76888 11.1239 5.7631 11.3732C5.75732 11.6224 5.61859 11.7683 5.37773 11.7693C4.35263 11.7735 3.32785 11.7735 2.3034 11.7693C2.07265 11.7693 1.92669 11.622 1.92525 11.3906C1.92075 10.3626 1.92075 9.33462 1.92525 8.30664C1.92525 8.06511 2.07458 7.92357 2.32026 7.92018C2.69648 7.91487 3.07318 7.91439 3.44941 7.92018C3.6946 7.92405 3.84586 8.08346 3.84056 8.31147C3.83574 8.52644 3.68448 8.67667 3.45278 8.68295C3.20758 8.68923 2.96094 8.6844 2.70081 8.6844Z" fill="black" fill-opacity="0.75"/>
<path d="M8.84904 4.05277C8.23292 4.05277 7.61632 4.05277 6.99972 4.05277C6.7078 4.05277 6.54739 3.918 6.54305 3.67743C6.53872 3.42817 6.70443 3.28759 7.00936 3.28711C8.23453 3.28711 9.45938 3.28711 10.6839 3.28711C10.9917 3.28711 11.1565 3.42623 11.1531 3.67356C11.1497 3.9209 10.9898 4.05132 10.6743 4.05229C10.0659 4.05471 9.45745 4.05326 8.84904 4.05277Z" fill="black" fill-opacity="0.75"/>
<path d="M8.83404 5.59864C8.22562 5.59864 7.61673 5.59864 7.00832 5.59864C6.70195 5.59864 6.53527 5.45372 6.53913 5.20881C6.54298 4.96389 6.7111 4.83008 7.02085 4.83008H10.6964C10.9854 4.83008 11.1472 4.96775 11.1516 5.20832C11.1559 5.44889 10.9941 5.59478 10.7089 5.59478C10.0826 5.59478 9.45979 5.59478 8.835 5.59478L8.83404 5.59864Z" fill="black" fill-opacity="0.75"/>
<path d="M8.44687 14.8585C7.95889 14.8585 7.47043 14.8585 6.98245 14.8585C6.69823 14.8585 6.53734 14.7101 6.54312 14.4662C6.54842 14.2343 6.70739 14.0942 6.97667 14.0938C7.96901 14.0938 8.96151 14.0938 9.95417 14.0938C10.2206 14.0938 10.38 14.2411 10.3815 14.4739C10.3829 14.7068 10.2225 14.8565 9.95754 14.858C9.45559 14.8604 8.95123 14.8585 8.44687 14.8585Z" fill="black" fill-opacity="0.75"/>
<path d="M4.17746 4.25093C4.49106 3.83162 4.77479 3.44662 5.06527 3.06596C5.19244 2.89978 5.36105 2.84954 5.5547 2.94326C5.72908 3.02731 5.7917 3.17851 5.7575 3.36304C5.73999 3.43379 5.70709 3.49978 5.66116 3.55627C5.29842 4.04369 4.93617 4.53352 4.56765 5.01901C4.38123 5.26489 4.15241 5.28518 3.93275 5.07505C3.69189 4.84172 3.45103 4.60164 3.21932 4.35962C3.03675 4.17074 3.02664 3.94176 3.18801 3.78235C3.34939 3.62294 3.57339 3.63163 3.76318 3.81472C3.90144 3.94756 4.0262 4.09055 4.17746 4.25093Z" fill="black" fill-opacity="0.75"/>
<path d="M4.21514 9.60266C4.48779 9.23891 4.77008 8.86211 5.05284 8.4858C5.17713 8.32011 5.33706 8.25055 5.53456 8.3346C5.61495 8.36373 5.68218 8.42093 5.72394 8.49572C5.76569 8.57051 5.77918 8.65788 5.76193 8.74183C5.74734 8.82001 5.71431 8.89355 5.66559 8.95631C5.30398 9.44647 4.939 9.93453 4.57064 10.4205C4.37796 10.6736 4.14914 10.6872 3.91936 10.462C3.68958 10.2369 3.45209 9.99926 3.22328 9.76352C3.04119 9.57609 3.03059 9.34712 3.19052 9.18722C3.35045 9.02732 3.57589 9.03747 3.76521 9.21524C3.89913 9.3418 4.03064 9.47078 4.16407 9.59783C4.16793 9.60218 4.17852 9.59976 4.21514 9.60266Z" fill="black" fill-opacity="0.75"/>
<path d="M8.06329 9.45608C7.69525 9.45608 7.32674 9.45995 6.95871 9.45608C6.69521 9.4527 6.53528 9.29908 6.53913 9.06673C6.54298 8.83437 6.70581 8.69042 6.97268 8.68945C7.70874 8.68945 8.44497 8.68945 9.18136 8.68945C9.45015 8.68945 9.61009 8.83437 9.61201 9.06625C9.61394 9.29812 9.45786 9.4527 9.19195 9.4527C8.81429 9.45898 8.43951 9.45608 8.06329 9.45608Z" fill="black" fill-opacity="0.75"/>
<path d="M7.87687 10.9998C7.5729 10.9998 7.26845 11.0027 6.96449 10.9998C6.6981 10.9969 6.54106 10.8495 6.54299 10.6133C6.54491 10.3771 6.70436 10.2356 6.97172 10.2346C7.57965 10.2317 8.18757 10.2317 8.7955 10.2346C9.06816 10.2346 9.22471 10.3747 9.22905 10.6085C9.23387 10.85 9.07105 10.9949 8.78828 10.9998C8.4848 11.0017 8.18083 10.9998 7.87687 10.9998Z" fill="black" fill-opacity="0.75"/>
<path d="M7.87781 16.4021C7.57385 16.4021 7.2694 16.4021 6.96544 16.4021C6.70338 16.3997 6.54297 16.25 6.54297 16.0157C6.54297 15.7814 6.7029 15.6374 6.97025 15.6365C7.5785 15.6342 8.18692 15.6342 8.79549 15.6365C9.0667 15.6365 9.22614 15.7814 9.22903 16.0104C9.23433 16.2519 9.06814 16.4016 8.78826 16.4036C8.48622 16.4036 8.18178 16.4021 7.87781 16.4021Z" fill="black" fill-opacity="0.75"/>
<path d="M14.2306 9.65431C14.3442 9.65355 14.4554 9.68658 14.5503 9.74921C14.6451 9.81185 14.7193 9.90128 14.7635 10.0062C14.8077 10.1111 14.8198 10.2268 14.7984 10.3387C14.777 10.4505 14.723 10.5535 14.6432 10.6345C14.5635 10.7156 14.4615 10.7711 14.3503 10.7941C14.239 10.8171 14.1235 10.8064 14.0183 10.7636C13.9131 10.7207 13.8229 10.6475 13.7592 10.5532C13.6955 10.459 13.661 10.3479 13.6603 10.234C13.6587 10.1581 13.6723 10.0826 13.7003 10.0121C13.7283 9.9415 13.7701 9.8773 13.8233 9.82325C13.8764 9.7692 13.9399 9.72639 14.0099 9.69738C14.0799 9.66836 14.1549 9.65372 14.2306 9.65431Z" fill="black" fill-opacity="0.75"/>
</g>
<defs>
<clipPath id="clip0_1897_193978">
<rect width="20" height="21.6" fill="white" transform="translate(0 0.199219)"/>
</clipPath>
</defs>
</svg>
