<svg width="28" height="30" viewBox="0 0 28 30" fill="none" xmlns="http://www.w3.org/2000/svg">
<g clip-path="url(#clip0_1897_194180)">
<path d="M22.2156 22.1991C22.7402 22.3051 23.2493 22.4003 23.7544 22.5137C24.2081 22.6164 24.6697 22.7063 25.1053 22.8653C26.2815 23.2947 26.9686 24.1944 27.3486 25.3518C27.7895 26.6936 27.9052 28.0771 27.8838 29.4773C27.8869 29.5473 27.8755 29.6171 27.8504 29.6825C27.8252 29.7478 27.7868 29.8072 27.7375 29.8569C27.6883 29.9066 27.6293 29.9455 27.5643 29.9711C27.4994 29.9968 27.4298 30.0087 27.36 30.006C27.0469 30.006 26.8502 29.7913 26.8214 29.4498C26.7391 28.4515 26.6782 27.4498 26.5491 26.4568C26.4675 25.8288 26.236 25.233 25.7649 24.7251V25.7986C25.7649 25.9435 25.769 26.0891 25.7649 26.2334C25.7502 26.5836 25.5475 26.7949 25.2351 26.7923C24.9226 26.7896 24.6998 26.5695 24.6998 26.2307C24.6904 25.5718 24.6751 24.9123 24.7072 24.2555C24.7239 23.92 24.6041 23.7737 24.291 23.7187C23.8662 23.6463 23.4447 23.553 22.9964 23.4631L21.8751 26.1186C21.394 27.2592 20.911 28.3944 20.4353 29.5357C20.3249 29.8041 20.187 30.0114 19.8639 30.0053C19.5555 30 19.4283 29.7913 19.324 29.5357C18.5325 27.6222 17.7289 25.7114 16.9495 23.7952C16.8284 23.4973 16.6872 23.4524 16.4035 23.5302C15.968 23.6489 15.5211 23.7281 15.0654 23.8274C15.0654 24.6607 15.0701 25.4524 15.0654 26.2428C15.0654 26.5675 14.8527 26.7795 14.5549 26.7855C14.2412 26.7929 14.0197 26.5762 14.0056 26.2428C14.0016 26.1428 14.0056 26.0415 14.0056 25.9415C14.0056 25.5322 14.0056 25.1236 14.0056 24.6251C13.5743 25.1409 13.2986 25.7693 13.2108 26.4367C13.077 27.429 13.0134 28.4307 12.9325 29.4297C12.8957 29.892 12.4802 30.1637 12.1296 29.9161C12.0092 29.8316 11.8861 29.6524 11.8834 29.5135C11.852 27.9664 11.9757 26.4373 12.5578 24.9814C13.075 23.6879 14.0431 22.929 15.3899 22.6419C16.0951 22.4916 16.8023 22.352 17.5383 22.2017C17.5107 22.1436 17.4776 22.0883 17.4392 22.0367C16.5695 21.1289 16.2209 20.0125 16.1446 18.7867C16.1429 18.7644 16.1429 18.7419 16.1446 18.7196C16.2637 17.3442 15.8335 16.0963 15.2146 14.8953C15.0072 14.4928 14.8012 14.0815 14.6058 13.6689C14.4532 13.3461 14.5389 13.065 14.858 12.9107C16.2958 12.2297 17.7497 11.591 19.3286 11.3005C19.9805 11.1901 20.6499 11.2547 21.2689 11.4877C22.4699 11.9171 23.6541 12.3968 24.837 12.8765C25.233 13.0368 25.3153 13.3354 25.1273 13.7232C24.9574 14.0741 24.7928 14.4297 24.6015 14.7678C24.2335 15.4139 24.1184 16.1513 23.8514 16.8242C23.5263 17.6414 23.6956 18.4647 23.5704 19.2758C23.4059 20.3386 23.0479 21.3 22.2812 22.079C22.2549 22.1164 22.2329 22.1567 22.2156 22.1991ZM22.5381 17.6837C20.7604 18.3634 18.9961 18.3587 17.2412 17.6958C17.1261 18.5318 17.2539 19.675 17.5235 20.3641C17.9337 21.4141 18.7318 21.9642 19.8599 21.9743C20.9531 21.9844 21.7888 21.4376 22.2083 20.4218C22.5595 19.5677 22.5802 18.6673 22.5381 17.6837ZM15.7974 13.6501C16.0095 14.0768 16.1928 14.4693 16.3995 14.847C16.4323 14.892 16.4746 14.9292 16.5234 14.9559C16.5723 14.9826 16.6264 14.9981 16.6819 15.0013C18.8068 15.0098 20.9315 15.0098 23.0559 15.0013C23.1556 15.0013 23.3015 14.9342 23.3456 14.8577C23.5597 14.472 23.7471 14.0701 23.9886 13.583C22.872 13.1952 21.8048 12.794 20.7163 12.4625C20.3113 12.347 19.8866 12.3182 19.4698 12.378C18.1839 12.5571 17.0157 13.114 15.7974 13.6501ZM16.8926 16.0869C16.8786 16.4076 17.0311 16.5653 17.3248 16.6236C17.5088 16.6599 17.6841 16.7363 17.8668 16.782C18.7593 17.0067 19.6498 17.2838 20.5851 17.0738C21.2441 16.9255 21.8945 16.7384 22.5528 16.5867C22.8345 16.523 22.9415 16.3714 22.9134 16.0876L16.8926 16.0869ZM19.8813 28.0764C20.1021 27.5564 20.2881 27.1223 20.468 26.6856C20.4881 26.6336 20.4881 26.5759 20.468 26.5239C20.2847 26.1401 20.094 25.761 19.8766 25.3222C19.6658 25.7449 19.4906 26.0905 19.3213 26.4387C19.2867 26.4943 19.2727 26.5603 19.2818 26.6252C19.4658 27.0848 19.6585 27.539 19.8813 28.0764ZM21.9065 23.2819C21.4295 23.0961 21.4435 23.1001 21.3124 23.5503C21.2549 23.7476 21.1786 23.9911 21.0254 24.0985C20.6045 24.3984 20.7029 24.6976 20.935 25.0378C20.9759 25.0975 21.0066 25.1646 21.0689 25.2726L21.9065 23.2819ZM18.7104 25.2565C18.8489 24.9713 19.0182 24.7432 19.0543 24.4957C19.0711 24.3789 18.8228 24.2313 18.7091 24.0857C18.6248 23.9829 18.5571 23.8674 18.5084 23.7435C18.4415 23.5604 18.404 23.3672 18.3471 23.1504L17.8788 23.2585L18.7104 25.2565ZM19.4778 23.0505C19.4932 23.5201 19.5815 23.6047 19.9535 23.5772C20.3142 23.551 20.2881 23.3088 20.2767 23.0505H19.4778Z" fill="white"/>
<path d="M1.19592 25.1901H5.52001C7.23413 25.1901 8.94802 25.1901 10.6617 25.1901C11.0939 25.1901 11.3214 25.3739 11.3234 25.7188C11.3254 26.0636 11.0979 26.2555 10.667 26.2555C7.36192 26.2555 4.05657 26.2555 0.750998 26.2555C0.28266 26.2555 0.110044 26.069 0.109375 25.5692C0.109375 21.0256 0.109375 16.4821 0.109375 11.9385C0.109375 8.19967 0.109375 4.46012 0.109375 0.719909C0.109375 0.160352 0.267272 0 0.819241 0H17.5456C18.1156 0 18.2688 0.159682 18.2688 0.738024C18.2688 3.75274 18.2688 6.76678 18.2688 9.78016C18.2688 9.8922 18.2688 10.0036 18.2688 10.1156C18.2595 10.4913 18.0681 10.7101 17.7423 10.7134C17.4165 10.7168 17.2111 10.4947 17.207 10.123C17.203 9.02872 17.207 7.9351 17.207 6.84081C17.207 5.01006 17.207 3.17932 17.207 1.34857V1.09093H1.19592V25.1901Z" fill="white"/>
<path d="M5.44887 23.5741C4.77045 23.5741 4.09203 23.5741 3.41294 23.5741C2.97405 23.5741 2.78136 23.3883 2.78002 22.9481C2.77645 21.5759 2.77645 20.2036 2.78002 18.8313C2.78002 18.4153 2.98074 18.2214 3.39555 18.2208C4.75239 18.2181 6.10945 18.2181 7.46674 18.2208C7.93508 18.2208 8.11706 18.4073 8.11773 18.8628C8.11773 20.2128 8.11773 21.5627 8.11773 22.9126C8.11773 23.401 7.94444 23.5708 7.45269 23.5735C6.78364 23.5761 6.11592 23.5741 5.44887 23.5741ZM7.04256 19.3083H3.86389V22.4852H7.04256V19.3083Z" fill="white"/>
<path d="M3.85586 4.28235V7.48471H7.05728C7.05728 7.3049 7.04992 7.12978 7.05728 6.95534C7.07401 6.63933 7.29212 6.43134 7.59252 6.4347C7.89293 6.43805 8.10569 6.64873 8.11505 6.96675C8.12442 7.31228 8.12375 7.65848 8.11505 8.00401C8.10903 8.36228 7.91434 8.56826 7.55773 8.5696C6.15673 8.57452 4.75551 8.57452 3.35407 8.5696C2.97672 8.5696 2.78002 8.3643 2.77935 7.98723C2.77667 6.60422 2.77667 5.22098 2.77935 3.83752C2.78537 3.40947 2.96869 3.22161 3.38752 3.22161C3.88797 3.21624 4.3911 3.21423 4.88888 3.22161C5.22742 3.22563 5.44419 3.44167 5.44486 3.75835C5.44553 4.07503 5.23009 4.28034 4.8862 4.28638C4.55569 4.28772 4.22317 4.28235 3.85586 4.28235Z" fill="white"/>
<path d="M3.8592 11.784V14.9897H7.05327C7.05327 14.8213 7.04725 14.6489 7.05327 14.4764C7.06665 14.1557 7.27406 13.9397 7.56911 13.9343C7.88022 13.9263 8.10435 14.1417 8.11238 14.4811C8.12041 14.8206 8.12041 15.1722 8.11238 15.5184C8.10435 15.8646 7.91166 16.0672 7.57714 16.0686C6.15339 16.0744 4.73009 16.0744 3.30723 16.0686C2.98676 16.0686 2.78403 15.8639 2.78203 15.5426C2.77578 14.1148 2.77578 12.6871 2.78203 11.2593C2.78203 10.9239 2.98943 10.7273 3.33065 10.7226C3.85318 10.7152 4.37638 10.7145 4.89891 10.7226C5.23946 10.728 5.44955 10.9494 5.44219 11.266C5.43549 11.5646 5.22541 11.7733 4.9036 11.782C4.56305 11.7907 4.22049 11.784 3.8592 11.784Z" fill="white"/>
<path d="M12.3982 5.35444C11.5425 5.35444 10.6861 5.35444 9.82969 5.35444C9.42424 5.35444 9.20145 5.16725 9.19543 4.83313C9.18941 4.48693 9.41956 4.29169 9.84307 4.29102C11.5447 4.29102 13.2459 4.29102 14.9466 4.29102C15.3741 4.29102 15.603 4.48424 15.5983 4.82776C15.5936 5.17128 15.3715 5.35243 14.9332 5.35377C14.0882 5.35712 13.2432 5.35511 12.3982 5.35444Z" fill="white"/>
<path d="M12.3828 7.49714C11.5378 7.49714 10.6921 7.49714 9.84706 7.49714C9.42154 7.49714 9.19005 7.29586 9.1954 6.9557C9.20076 6.61554 9.43426 6.42969 9.86446 6.42969H14.9693C15.3708 6.42969 15.5956 6.6209 15.6016 6.95503C15.6076 7.28915 15.3828 7.49177 14.9867 7.49177C14.117 7.49177 13.2519 7.49177 12.3841 7.49177L12.3828 7.49714Z" fill="white"/>
<path d="M11.8396 20.359C11.1619 20.359 10.4834 20.359 9.8057 20.359C9.41096 20.359 9.18749 20.153 9.19552 19.8142C9.20288 19.4921 9.42367 19.2975 9.79767 19.2969C11.1759 19.2969 12.5544 19.2969 13.9331 19.2969C14.3031 19.2969 14.5245 19.5015 14.5265 19.8249C14.5285 20.1483 14.3058 20.3563 13.9378 20.3583C13.2406 20.3616 12.5401 20.359 11.8396 20.359Z" fill="white"/>
<path d="M5.91119 5.62922C6.34674 5.04685 6.74082 4.51212 7.14426 3.98343C7.32089 3.75262 7.55505 3.68285 7.82401 3.81301C8.06621 3.92975 8.15319 4.13975 8.10569 4.39605C8.08137 4.49431 8.03567 4.58595 7.97188 4.66442C7.46808 5.34139 6.96495 6.02171 6.45312 6.696C6.1942 7.0375 5.8764 7.06568 5.57131 6.77383C5.23678 6.44977 4.90225 6.11631 4.58044 5.78018C4.32687 5.51784 4.31282 5.19982 4.53695 4.97842C4.76108 4.75701 5.07219 4.76909 5.3358 5.02337C5.52782 5.20787 5.70111 5.40647 5.91119 5.62922Z" fill="white"/>
<path d="M5.96199 13.0609C6.34068 12.5557 6.73274 12.0323 7.12548 11.5097C7.29809 11.2796 7.52022 11.1829 7.79453 11.2997C7.90618 11.3401 7.99955 11.4196 8.05755 11.5235C8.11554 11.6273 8.13428 11.7487 8.11032 11.8653C8.09006 11.9739 8.04417 12.076 7.97651 12.1632C7.47428 12.8439 6.96736 13.5218 6.45575 14.1968C6.18813 14.5483 5.87033 14.5671 5.55119 14.2545C5.23206 13.9418 4.90221 13.6117 4.58441 13.2843C4.33151 13.024 4.31679 12.706 4.53892 12.4839C4.76104 12.2618 5.07416 12.2759 5.3371 12.5228C5.52309 12.6986 5.70575 12.8777 5.89107 13.0542C5.89643 13.0602 5.91114 13.0569 5.96199 13.0609Z" fill="white"/>
<path d="M11.3123 12.8558C10.8011 12.8558 10.2893 12.8611 9.77815 12.8558C9.41218 12.8511 9.19005 12.6377 9.19541 12.315C9.20076 11.9923 9.4269 11.7924 9.79756 11.791C10.8199 11.791 11.8424 11.791 12.8652 11.791C13.2385 11.791 13.4606 11.9923 13.4633 12.3143C13.466 12.6364 13.2492 12.8511 12.8799 12.8511C12.3553 12.8598 11.8348 12.8558 11.3123 12.8558Z" fill="white"/>
<path d="M11.0479 14.9994C10.6258 14.9994 10.2029 15.0034 9.78076 14.9994C9.41077 14.9953 9.19266 14.7907 9.19534 14.4626C9.19801 14.1345 9.41947 13.938 9.79079 13.9366C10.6351 13.9326 11.4795 13.9326 12.3238 13.9366C12.7025 13.9366 12.92 14.1312 12.926 14.4559C12.9327 14.7914 12.7065 14.9927 12.3138 14.9994C11.8923 15.0021 11.4701 14.9994 11.0479 14.9994Z" fill="white"/>
<path d="M11.0493 22.5052C10.6271 22.5052 10.2042 22.5052 9.78207 22.5052C9.41811 22.5019 9.19531 22.2939 9.19531 21.9685C9.19531 21.6431 9.41744 21.4431 9.78876 21.4418C10.6336 21.4387 11.4786 21.4387 12.3238 21.4418C12.7005 21.4418 12.9219 21.6431 12.926 21.9611C12.9333 22.2966 12.7025 22.5046 12.3138 22.5072C11.8943 22.5072 11.4714 22.5052 11.0493 22.5052Z" fill="white"/>
<path d="M19.8705 13.1328C20.0282 13.1318 20.1827 13.1776 20.3144 13.2646C20.4462 13.3516 20.5492 13.4758 20.6105 13.6216C20.6719 13.7673 20.6887 13.928 20.659 14.0833C20.6293 14.2387 20.5543 14.3817 20.4435 14.4943C20.3327 14.6069 20.1911 14.684 20.0366 14.7159C19.8821 14.7478 19.7217 14.733 19.5756 14.6735C19.4294 14.6139 19.3042 14.5123 19.2157 14.3813C19.1272 14.2504 19.0794 14.0961 19.0783 13.938C19.0761 13.8325 19.0949 13.7277 19.1338 13.6297C19.1727 13.5317 19.2308 13.4425 19.3047 13.3675C19.3785 13.2924 19.4667 13.2329 19.5638 13.1926C19.661 13.1523 19.7653 13.132 19.8705 13.1328Z" fill="white"/>
</g>
<defs>
<clipPath id="clip0_1897_194180">
<rect width="27.7778" height="30" fill="white" transform="translate(0.109375)"/>
</clipPath>
</defs>
</svg>
