<svg width="22" height="21" viewBox="0 0 22 21" fill="none" xmlns="http://www.w3.org/2000/svg">
<path d="M11.4681 21C6.11983 20.9306 1.80133 16.6776 1.73084 11.4105C1.80133 6.14335 6.11983 1.89037 11.4681 1.82094C16.8164 1.89037 21.1348 6.14335 21.2053 11.4105C21.1348 16.6776 16.8164 20.9306 11.4681 21ZM11.4681 3.95195C7.3083 4.00588 3.94944 7.31379 3.89467 11.4105C3.94944 15.5072 7.3083 18.8151 11.4681 18.869C15.6279 18.8151 18.9867 15.5072 19.0415 11.4105C18.9867 7.31379 15.6279 4.00588 11.4681 3.95195ZM16.8777 12.476H10.3862V6.08296H12.55V10.345H16.8777V12.476ZM20.4393 4.70633L17.1839 1.50982L18.7083 0L21.9648 3.19651L20.4393 4.70526V4.70633ZM2.49576 4.70633L0.964844 3.19651L4.20086 0L5.73177 1.50982L2.49792 4.70633H2.49576Z" fill="#333333"/>
</svg>
