<svg width="40" height="40" viewBox="0 0 40 40" fill="none" xmlns="http://www.w3.org/2000/svg">
<g clip-path="url(#clip0_2504:51936)">
<path d="M25.7917 0.000976562C17.9584 0.000976562 11.625 6.33433 11.625 14.1677C11.625 22.001 17.9584 28.3344 25.7917 28.3344C33.6251 28.3344 39.9584 22.001 39.9584 14.1677C39.9584 6.33433 33.625 0.000976562 25.7917 0.000976562ZM25.7917 26.6677C18.875 26.6677 13.2917 21.0844 13.2917 14.1677C13.2917 7.25102 18.875 1.66762 25.7917 1.66762C32.7085 1.66762 38.2917 7.25094 38.2917 14.1676C38.2917 21.0843 32.7084 26.6677 25.7917 26.6677Z" fill="#4F4F4F"/>
<path d="M15.9656 23.3407L10.8867 28.7451L12.1012 29.8864L17.18 24.482L15.9656 23.3407Z" fill="#4F4F4F"/>
<path d="M12.2097 28.6674L11.6264 28.0841C10.4597 26.9174 9.1263 26.5841 8.37635 27.3341L0.459629 35.0007C0.292982 35.1674 0.0429688 35.5007 0.0429688 36.0007C0.0429688 36.6674 0.459629 37.5007 1.1263 38.2507L1.70961 38.834C2.45965 39.5841 3.29297 40.0007 3.95965 40.0007C4.29302 40.0007 4.62632 39.9174 4.95961 39.5841L12.8763 31.9174C13.043 31.7507 13.293 31.4173 13.293 30.9174C13.293 30.2507 12.8763 29.4174 12.2097 28.6674ZM3.87636 38.3341C3.70972 38.2508 3.29306 38.0841 2.8764 37.6674L2.29309 37.0841C1.87643 36.6674 1.70978 36.2508 1.70978 36.0841L9.37649 28.5842C9.54313 28.6674 9.95979 28.8342 10.3765 29.2508L10.9598 29.8341C11.3764 30.2508 11.5431 30.6675 11.5431 30.8341L3.87636 38.3341Z" fill="#4F4F4F"/>
<path d="M16.9571 12.418C15.5404 12.418 14.457 13.5013 14.457 14.9179C14.457 16.3346 15.5404 17.4179 16.9571 17.4179C18.3738 17.4179 19.457 16.3346 19.457 14.9179C19.457 13.5013 18.3738 12.418 16.9571 12.418ZM16.9571 15.7513C16.5404 15.7513 16.1238 15.418 16.1238 14.9179C16.1238 14.4179 16.4571 14.0846 16.9571 14.0846C17.4571 14.0846 17.7904 14.4179 17.7904 14.9179C17.7904 15.418 17.4571 15.7513 16.9571 15.7513Z" fill="#4F4F4F"/>
<path d="M22.5429 5.08398C21.1263 5.08398 20.043 6.16732 20.043 7.58395C20.043 9.00057 21.1263 10.0839 22.5429 10.0839C23.8763 10.0839 25.0429 9.00057 25.0429 7.58395C25.0429 6.16732 23.9596 5.08398 22.5429 5.08398ZM22.5429 8.41727C22.1263 8.41727 21.7096 8.08397 21.7096 7.58395C21.7096 7.08392 22.0429 6.75063 22.5429 6.75063C22.9596 6.75063 23.3763 7.08392 23.3763 7.58395C23.3763 8.08397 22.9596 8.41727 22.5429 8.41727Z" fill="#4F4F4F"/>
<path d="M28.207 17.752C26.7904 17.752 25.707 18.8353 25.707 20.2519C25.707 21.6686 26.7904 22.7519 28.207 22.7519C29.6237 22.7519 30.707 21.6686 30.707 20.2519C30.707 18.8353 29.6237 17.752 28.207 17.752ZM28.207 21.0853C27.7903 21.0853 27.3737 20.752 27.3737 20.252C27.3737 19.752 27.707 19.4187 28.207 19.4187C28.707 19.4187 29.0403 19.752 29.0403 20.252C29.0403 20.752 28.6237 21.0853 28.207 21.0853Z" fill="#4F4F4F"/>
<path d="M34.7929 9.16699C33.3763 9.16699 32.293 10.2503 32.293 11.667C32.293 13.0836 33.3763 14.1669 34.7929 14.1669C36.1263 14.1669 37.2929 13.0836 37.2929 11.667C37.2929 10.2503 36.2096 9.16699 34.7929 9.16699ZM34.7929 12.5003C34.3763 12.5003 33.9596 12.167 33.9596 11.667C33.9596 11.1669 34.2929 10.8336 34.7929 10.8336C35.2096 10.8336 35.6263 11.1669 35.6263 11.667C35.6263 12.167 35.2096 12.5003 34.7929 12.5003Z" fill="#4F4F4F"/>
<path d="M20.6362 8.4989L17.3867 12.7275L18.7082 13.743L21.9577 9.51438L20.6362 8.4989Z" fill="#4F4F4F"/>
<path d="M23.8722 9.13466L22.3594 9.83398L26.6253 19.0622L28.1381 18.3629L23.8722 9.13466Z" fill="#4F4F4F"/>
<path d="M32.8842 12.3598L28.4727 18.3223L29.8125 19.3136L34.2241 13.3512L32.8842 12.3598Z" fill="#4F4F4F"/>
</g>
<defs>
<clipPath id="clip0_2504:51936">
<rect width="40" height="40" fill="white" transform="translate(0 0.000976562)"/>
</clipPath>
</defs>
</svg>
