<svg width="27" height="30" viewBox="0 0 27 30" fill="none" xmlns="http://www.w3.org/2000/svg">
<path d="M8.91636 29.999C7.92392 29.9451 6.99002 29.5123 6.30732 28.79C5.49067 28.0043 4.76191 27.1321 4.13391 26.1889C3.15294 24.7841 2.37751 23.2465 1.83107 21.6226C1.21214 19.8757 0.886282 18.0384 0.866691 16.1852C0.819129 14.3667 1.26998 12.5698 2.17042 10.9892C2.8295 9.84976 3.7696 8.89825 4.90099 8.22547C6.01987 7.55555 7.29666 7.19496 8.60068 7.18059C9.58372 7.23875 10.5497 7.46344 11.4575 7.84508C12.1813 8.16353 12.9431 8.3874 13.7241 8.51115C14.5859 8.3306 15.428 8.06629 16.2384 7.72197C17.1975 7.34744 18.213 7.13772 19.242 7.10167C19.3793 7.10167 19.5151 7.10167 19.6461 7.11745C21.9024 7.18289 24.001 8.29047 25.3282 10.1163C23.2179 11.2446 21.9221 13.4645 21.9773 15.8569C21.9565 17.6713 22.7131 19.408 24.056 20.6283C24.6604 21.2041 25.3642 21.6656 26.1332 21.9904C25.9753 22.4639 25.7938 22.9216 25.6013 23.3825C25.1636 24.401 24.6236 25.3725 23.9897 26.282C23.3913 27.193 22.6948 28.0356 21.9126 28.7947C21.1986 29.5032 20.2468 29.9212 19.242 29.9675C18.3903 29.9297 17.5535 29.7299 16.7766 29.3787C15.9388 29.0137 15.0385 28.8138 14.125 28.79C13.1857 28.8084 12.2587 29.0072 11.3944 29.3756C10.6479 29.7124 9.85036 29.922 9.03473 29.9959L8.91636 29.999ZM13.8882 7.10167C13.7698 7.10167 13.6515 7.10167 13.5331 7.08747C13.5082 6.89959 13.495 6.71035 13.4936 6.52083C13.5452 4.94425 14.1614 3.43865 15.2298 2.27818C15.827 1.61145 16.5508 1.0701 17.359 0.685613C18.1133 0.297337 18.9376 0.0638919 19.7834 -0.000976562C19.8071 0.205789 19.8071 0.40782 19.8071 0.600381C19.7848 2.15215 19.2017 3.64343 18.1656 4.79883C17.15 6.16062 15.5842 7.00361 13.8882 7.10167Z" fill="#333333"/>
</svg>
