<svg width="133" height="20" viewBox="0 0 133 20" fill="none" xmlns="http://www.w3.org/2000/svg">
<path d="M130.248 7.05469V9.38448C129.149 7.96125 127.487 7.05469 125.629 7.05469C122.317 7.05469 119.633 9.93204 119.633 13.4813C119.633 17.0308 122.317 19.9081 125.629 19.9081C127.487 19.9081 129.149 19.0016 130.248 17.5783V19.9081H133.001V7.05469H130.248ZM126.317 17.6954C124.145 17.6954 122.385 15.8087 122.385 13.4813C122.385 11.1539 124.145 9.26715 126.317 9.26715C128.488 9.26715 130.248 11.1539 130.248 13.4813C130.248 15.8087 128.488 17.6954 126.317 17.6954Z" fill="black" fill-opacity="0.75"/>
<path d="M116.881 7.05469H114.129V19.9086H116.881V7.05469Z" fill="black" fill-opacity="0.75"/>
<path d="M115.503 0.628906C114.528 0.628906 113.738 1.41886 113.738 2.39351C113.738 3.36816 114.528 4.15812 115.503 4.15812C116.478 4.15812 117.268 3.36816 117.268 2.39351C117.268 1.41886 116.478 0.628906 115.503 0.628906Z" fill="black" fill-opacity="0.75"/>
<path d="M105.38 7.05599C103.521 7.05599 101.86 7.96256 100.76 9.38579V0.628906H98.0078V19.9094H100.76V17.5797C101.86 19.0029 103.521 19.9094 105.38 19.9094C108.691 19.9094 111.376 17.0321 111.376 13.4826C111.376 9.93335 108.691 7.05599 105.38 7.05599ZM104.692 17.6968C102.52 17.6968 100.76 15.81 100.76 13.4826C100.76 11.1552 102.52 9.26845 104.692 9.26845C106.863 9.26845 108.624 11.1552 108.624 13.4826C108.624 15.81 106.863 17.6968 104.692 17.6968Z" fill="black" fill-opacity="0.75"/>
<path d="M92.5024 9.38448C91.4027 7.96125 89.7414 7.05469 87.8826 7.05469C84.5712 7.05469 81.8867 9.93204 81.8867 13.4813C81.8867 17.0308 84.5712 19.9081 87.8826 19.9081C89.7414 19.9081 91.4027 19.0016 92.5024 17.5783V19.9081H95.2547V7.05469H92.5024V9.38448ZM88.5707 17.6954C86.3993 17.6954 84.639 15.8087 84.639 13.4813C84.639 11.1539 86.3993 9.26715 88.5707 9.26715C90.7421 9.26715 92.5024 11.1539 92.5024 13.4813C92.5024 15.8087 90.7421 17.6954 88.5707 17.6954Z" fill="black" fill-opacity="0.75"/>
<path d="M76.6034 7.05599L70.4085 13.2511V0.628906H67.6562V19.8957V19.9094H70.4085V17.1434L72.1225 15.4295L76.6022 19.9094H80.4945L74.0686 13.4833L80.4957 7.05599H76.6034Z" fill="black" fill-opacity="0.75"/>
<path d="M60.2874 9.38448V7.05469H57.5352V19.9081H60.2874V13.4815C60.2874 11.1542 62.0477 9.26739 64.2191 9.26739C64.4528 9.26739 64.6817 9.28912 64.9041 9.33137V7.05469C63.0465 7.05565 61.3867 7.96198 60.2874 9.38448Z" fill="black" fill-opacity="0.75"/>
<path d="M45.7815 0.601562L45.7695 0.627154H42.7567L42.7448 0.601804L42.733 0.627154L33.7422 19.9075H36.7791L39.1343 14.8568H49.3921L51.7473 19.9075H54.7842L45.7934 0.627154L45.7815 0.601562ZM48.1087 12.1045H40.4177L44.2632 3.85796L48.1087 12.1045Z" fill="black" fill-opacity="0.75"/>
<path d="M20.8005 15.7658L18.7988 12.2339H14L18.4011 19.9996V20H23.1995H23.1999V19.9996L30 8H25.2012L20.8005 15.7658Z" fill="black" fill-opacity="0.75"/>
<path d="M11.6145 0H11.5549H6.83463H6.77508L0 12H4.77985L9.19478 4.18008L11.2202 7.76719H16L11.6145 0Z" fill="black" fill-opacity="0.75"/>
</svg>
