<svg width="19" height="20" viewBox="0 0 19 20" fill="none" xmlns="http://www.w3.org/2000/svg">
<path d="M12.8293 5.75701L7.17326 11.414C7.07775 11.5063 7.00157 11.6166 6.94916 11.7386C6.89675 11.8606 6.86917 11.9918 6.86801 12.1246C6.86686 12.2574 6.89216 12.3891 6.94244 12.512C6.99272 12.6349 7.06698 12.7465 7.16087 12.8404C7.25476 12.9343 7.36641 13.0086 7.48931 13.0588C7.61221 13.1091 7.74389 13.1344 7.87667 13.1333C8.00944 13.1321 8.14066 13.1045 8.26267 13.0521C8.38467 12.9997 8.49502 12.9235 8.58726 12.828L14.2443 7.17201C14.8069 6.60935 15.123 5.84623 15.123 5.05051C15.123 4.25479 14.8069 3.49167 14.2443 2.92901C13.6816 2.36635 12.9185 2.05026 12.1228 2.05026C11.327 2.05026 10.5639 2.36635 10.0013 2.92901L4.34426 8.58601C3.87034 9.04814 3.49289 9.59977 3.23382 10.2089C2.97475 10.818 2.83921 11.4726 2.83506 12.1345C2.83091 12.7964 2.95824 13.4526 3.20966 14.0649C3.46108 14.6773 3.83158 15.2336 4.29968 15.7016C4.76778 16.1696 5.32415 16.5401 5.93652 16.7914C6.54889 17.0427 7.20507 17.17 7.867 17.1657C8.52893 17.1615 9.18342 17.0258 9.79252 16.7667C10.4016 16.5075 10.9532 16.13 11.4153 15.656L17.0723 10L18.4863 11.414L12.8293 17.071C12.1792 17.7211 11.4075 18.2367 10.5582 18.5885C9.70886 18.9403 8.79856 19.1214 7.87926 19.1214C6.95996 19.1214 6.04966 18.9403 5.20034 18.5885C4.35102 18.2367 3.57931 17.7211 2.92926 17.071C2.27922 16.421 1.76358 15.6493 1.41178 14.7999C1.05998 13.9506 0.878906 13.0403 0.878906 12.121C0.878906 11.2017 1.05998 10.2914 1.41178 9.44209C1.76358 8.59277 2.27922 7.82105 2.92926 7.17101L8.58726 1.51501C9.53028 0.604219 10.7933 0.100247 12.1043 0.111639C13.4153 0.123031 14.6693 0.648876 15.5964 1.57592C16.5234 2.50296 17.0492 3.75702 17.0606 5.068C17.072 6.37899 16.5681 7.642 15.6573 8.58501L10.0013 14.244C9.7226 14.5226 9.39179 14.7436 9.02772 14.8943C8.66365 15.0451 8.27346 15.1227 7.87941 15.1226C7.48536 15.1226 7.09519 15.0449 6.73115 14.8941C6.36712 14.7432 6.03636 14.5222 5.75776 14.2435C5.47916 13.9648 5.25818 13.634 5.10743 13.27C4.95668 12.9059 4.87911 12.5157 4.87916 12.1217C4.8792 11.7276 4.95686 11.3374 5.1077 10.9734C5.25854 10.6094 5.4796 10.2786 5.75826 10L11.4153 4.34301L12.8293 5.75701Z" fill="#333333"/>
</svg>
