<svg width="32" height="12" viewBox="0 0 32 12" fill="none" xmlns="http://www.w3.org/2000/svg">
<g clip-path="url(#clip0_1897_193957)">
<path d="M15.0304 11.4352C11.532 11.4352 8.03284 11.4122 4.53444 11.4464C3.13809 11.4597 2.09347 10.9103 1.30266 9.82699C0.637625 8.91647 0.236947 7.89325 0.0102476 6.79884C-0.00549263 6.71659 -0.00307647 6.63197 0.0173321 6.55072C0.0377406 6.46948 0.075664 6.3935 0.128529 6.32795C0.181393 6.2624 0.247962 6.20882 0.323717 6.17083C0.399473 6.13285 0.482642 6.11135 0.567581 6.1078C0.749167 6.09668 0.931279 6.09668 1.11286 6.1078C1.29588 6.11966 1.34935 6.04774 1.3486 5.87275C1.34333 4.42467 1.3486 2.97659 1.3486 1.5285C1.3486 1.45436 1.3486 1.38021 1.3486 1.30606C1.35381 1.11256 1.43361 0.928248 1.57181 0.790545C1.71 0.652843 1.89624 0.572062 2.09272 0.564598C2.15523 0.559408 2.21849 0.564598 2.28101 0.564598C7.01483 0.560149 11.7486 0.556195 16.4825 0.552734C17.0383 0.552734 17.4284 0.876755 17.4186 1.47438C17.396 2.92839 17.4111 4.38315 17.4119 5.83716C17.4119 6.10261 17.4119 6.10335 17.6853 6.10335C18.1115 6.10335 18.5383 6.10335 18.9656 6.10335C19.1386 6.10568 19.3101 6.07291 19.4696 6.00708C19.6292 5.94126 19.7732 5.84379 19.8928 5.72075C20.0072 5.60731 20.1285 5.49831 20.2369 5.37968C20.5118 5.0779 20.8606 4.96001 21.2612 4.96075C21.6619 4.96149 21.6243 4.98596 21.6243 4.59669C21.6243 3.64119 21.6243 2.68593 21.6243 1.73092C21.6243 0.989458 22.0618 0.559408 22.8172 0.557925C23.3377 0.557925 23.8581 0.557925 24.3785 0.557925C25.03 0.557925 25.4104 0.854511 25.5542 1.48105C25.5761 1.5767 25.6009 1.65085 25.7109 1.68569C25.7743 1.70626 25.829 1.74699 25.8663 1.80148C25.9037 1.85597 25.9216 1.92113 25.9172 1.98673C25.9236 2.05789 25.9089 2.12934 25.8749 2.19248C25.841 2.25562 25.7893 2.30776 25.7259 2.34263C25.5384 2.45015 25.5376 2.46275 25.7207 2.57026C25.7855 2.60254 25.8389 2.65339 25.8739 2.71612C25.9088 2.77885 25.9237 2.85052 25.9165 2.92172C25.9052 3.06408 25.8525 3.19309 25.7033 3.24129C25.5542 3.28948 25.5617 3.38439 25.5806 3.49116C25.6024 3.61276 25.7071 3.592 25.7915 3.592C26.3495 3.592 26.9076 3.592 27.465 3.592C27.5716 3.58783 27.6783 3.59831 27.782 3.62314C28.0208 3.68839 28.1812 3.82705 28.2159 4.07766C28.2324 4.19339 28.2415 4.31004 28.243 4.42689C28.2467 4.95927 28.243 4.95927 28.795 4.95927C29.6167 4.95927 30.4377 4.95927 31.2593 4.95927C31.6999 4.95927 32.008 5.2173 31.9997 5.5821C31.9937 5.85526 31.9158 6.12222 31.7738 6.35693C31.618 6.61235 31.3936 6.82045 31.1253 6.95826C29.8861 7.61965 28.6464 8.28005 27.4062 8.93946C27.3347 8.97801 27.2669 9.0225 27.1931 9.05661C26.9671 9.16264 26.882 9.33911 26.8918 9.58082C26.9008 9.9256 26.8963 10.2711 26.8918 10.6189C26.888 11.1253 26.5717 11.4345 26.0543 11.4345L15.0304 11.4352ZM14.4768 10.5025H25.4051C25.6506 10.5025 25.6559 10.4958 25.6566 10.2519C25.6566 9.93154 25.6566 9.61023 25.6566 9.28794C25.6566 8.83787 25.8758 8.50273 26.2464 8.27807C26.6598 8.03116 27.0906 7.8191 27.5147 7.59666C28.4511 7.09494 29.3878 6.59494 30.3247 6.09667C30.49 6.00573 30.6207 5.86409 30.6967 5.69332C30.7495 5.5858 30.7367 5.51388 30.589 5.51833C30.4768 5.51833 30.3631 5.51833 30.2509 5.51833C27.1788 5.51833 24.1066 5.52723 21.0345 5.50795C20.8459 5.50009 20.658 5.5363 20.4862 5.61363C20.3145 5.69095 20.1638 5.80718 20.0464 5.95283C19.852 6.18033 19.6081 6.36184 19.3327 6.4839C19.0574 6.60597 18.7576 6.66546 18.4557 6.65796C12.5249 6.65796 6.59356 6.65796 0.661726 6.65796C0.605239 6.65796 0.547999 6.65796 0.492266 6.65796C0.345401 6.64536 0.32356 6.71135 0.357451 6.83666C0.583398 7.69009 0.911019 8.50199 1.44501 9.21676C2.0754 10.0606 2.88579 10.5225 3.9997 10.5136C7.49208 10.4884 10.9845 10.5025 14.4768 10.5025ZM24.4373 4.77168H26.6372C26.9814 4.77168 26.9814 4.77168 26.9799 4.44098C26.9799 4.18147 26.9747 4.17702 26.7013 4.17702C26.1876 4.17702 25.6732 4.17702 25.1596 4.17702C24.6323 4.17109 24.3379 3.87673 24.3371 3.35696C24.3371 2.75934 24.3371 2.16172 24.3371 1.56409C24.3371 1.24081 24.2098 1.11921 23.8852 1.11477C23.3776 1.11477 22.87 1.11477 22.3623 1.11477C22.0144 1.11477 21.9059 1.22599 21.9052 1.57447C21.9052 2.56013 21.9052 3.54579 21.9052 4.53144C21.9052 4.76352 21.9142 4.77242 22.1477 4.77242L24.4373 4.77168ZM2.55064 1.81323C2.69449 1.81323 2.83834 1.81323 2.98295 1.81323C3.52371 1.80507 3.44839 1.89256 3.4612 1.34091C3.46572 1.15925 3.38588 1.10735 3.21492 1.11106C2.8519 1.11921 2.48888 1.11106 2.1251 1.11106C1.54668 1.11921 1.63329 1.01244 1.62275 1.63008C1.62275 1.77022 1.68677 1.81174 1.81782 1.80952C2.06184 1.80804 2.30661 1.81323 2.55064 1.81323ZM15.2586 1.81323C15.4024 1.81323 15.5463 1.81323 15.6902 1.81323C16.2452 1.80433 16.1692 1.90146 16.1782 1.31496C16.1782 1.16074 16.1112 1.11032 15.9628 1.11254C15.5862 1.11699 15.2096 1.11254 14.8368 1.11254C14.2787 1.11773 14.3465 1.03395 14.3397 1.62638C14.3397 1.7591 14.3887 1.81619 14.5265 1.81323C14.7706 1.80729 15.0146 1.81323 15.2586 1.81323ZM2.53557 5.91427C2.6862 5.91427 2.83683 5.91427 2.98746 5.91427C3.51467 5.90834 3.45367 5.98323 3.4627 5.43529C3.4627 5.27884 3.40998 5.21285 3.2458 5.21804C2.86922 5.22545 2.49264 5.21804 2.12134 5.21804C1.54819 5.22545 1.63706 5.12313 1.62426 5.72223C1.62426 5.87053 1.68451 5.91724 1.8261 5.91279C2.06109 5.90908 2.29833 5.91427 2.53557 5.91427ZM15.2639 5.22026C15.1132 5.22026 14.9626 5.22026 14.812 5.22026C14.2848 5.22694 14.3458 5.14612 14.3375 5.69851C14.3375 5.85644 14.394 5.92095 14.5567 5.9165C14.9332 5.90908 15.3098 5.9165 15.6811 5.9165C16.2475 5.90983 16.1669 6.00992 16.1774 5.40934C16.1774 5.26104 16.1142 5.2173 15.9741 5.221C15.7391 5.22397 15.5011 5.22397 15.2631 5.22397L15.2639 5.22026ZM7.64045 5.91427C7.7715 5.91427 7.9033 5.91427 8.03435 5.91427C8.61804 5.90389 8.5254 6.01363 8.53745 5.39525C8.53745 5.25585 8.47871 5.21433 8.34615 5.21656C7.97786 5.221 7.60882 5.21656 7.24052 5.21656C6.65909 5.22619 6.74194 5.10311 6.73591 5.74967C6.73591 5.86979 6.79466 5.91131 6.90989 5.91057C7.15316 5.91205 7.39718 5.91353 7.64045 5.91427ZM7.62538 1.81323H8.02004C8.5126 1.81323 8.50356 1.81323 8.53067 1.33721C8.54122 1.15629 8.47419 1.09771 8.30925 1.11477C7.95301 1.1511 7.59677 1.10364 7.24052 1.11477C6.66135 1.13182 6.74344 1.0206 6.7344 1.63379C6.7344 1.77245 6.79767 1.81693 6.92947 1.81471C7.16144 1.80804 7.39341 1.81323 7.62538 1.81323ZM5.09404 1.81323C5.21906 1.81323 5.34408 1.81323 5.47061 1.81323C6.06033 1.8021 5.9692 1.90888 5.982 1.30161C5.982 1.15332 5.92024 1.10958 5.77941 1.1118C5.42316 1.11773 5.06617 1.1118 4.70993 1.1118C4.14657 1.11847 4.22716 1.0295 4.21511 1.60413C4.21511 1.77022 4.28214 1.81916 4.44105 1.81323C4.6557 1.80581 4.87487 1.81323 5.09404 1.81323ZM5.10684 5.22397C4.97579 5.22397 4.84399 5.22397 4.71294 5.22397C4.14356 5.23435 4.22414 5.12832 4.2136 5.72817C4.2136 5.87646 4.2731 5.92169 4.41544 5.91946C4.77169 5.91427 5.12793 5.91946 5.48417 5.91946C6.05958 5.91205 5.96694 6.01066 5.9805 5.41453C5.9805 5.26623 5.92476 5.21952 5.78166 5.22397C5.55647 5.22397 5.33128 5.22397 5.10684 5.22397ZM10.1726 5.91798C10.3104 5.91798 10.4482 5.91798 10.586 5.91798C11.1298 5.91131 11.053 5.99213 11.0665 5.44715C11.0665 5.2818 11.0183 5.21507 10.8406 5.22026C10.4904 5.23138 10.1394 5.22026 9.78618 5.22471C9.21454 5.23361 9.29663 5.11868 9.28835 5.74893C9.28835 5.87943 9.35086 5.92095 9.47362 5.91872C9.70936 5.91131 9.93983 5.91427 10.1726 5.91427V5.91798ZM10.1658 1.81323C10.2976 1.81323 10.4286 1.81323 10.5604 1.81323C11.1373 1.80433 11.0537 1.89849 11.0658 1.31051C11.0658 1.1511 10.9973 1.10958 10.8504 1.1118C10.4994 1.11773 10.1484 1.1118 9.79597 1.1118C9.22132 1.12218 9.29739 0.99539 9.29287 1.65085C9.29287 1.7717 9.35312 1.81174 9.4691 1.81026C9.70258 1.80729 9.93455 1.81323 10.1658 1.81323ZM12.6903 1.81323C12.8214 1.81323 12.9532 1.81323 13.085 1.81323C13.6514 1.80285 13.5761 1.90591 13.5858 1.30458C13.5858 1.15629 13.5263 1.10958 13.384 1.1118C13.033 1.11699 12.6813 1.1118 12.3296 1.1118C11.7534 1.11847 11.8227 1.01689 11.8189 1.65085C11.8189 1.77096 11.8784 1.81323 11.9937 1.81174C12.2264 1.81323 12.4584 1.81323 12.6903 1.81323ZM12.6843 5.9165C12.8221 5.9165 12.96 5.9165 13.097 5.9165C13.6536 5.90834 13.5723 5.99065 13.5873 5.43603C13.5919 5.25956 13.5173 5.21359 13.3531 5.21952C13.0029 5.22842 12.6527 5.21952 12.3025 5.22323C11.764 5.22916 11.8235 5.13574 11.8189 5.72891C11.8189 5.86015 11.8732 5.91946 12.0095 5.91724C12.2339 5.91057 12.4591 5.91353 12.6843 5.91427V5.9165ZM2.52352 3.17678H3.0673C3.46572 3.17678 3.45819 3.17678 3.4627 2.78381C3.4627 2.60437 3.39417 2.54802 3.21868 2.55173C2.83156 2.56062 2.44369 2.55173 2.05657 2.55543C1.57756 2.56062 1.62652 2.47313 1.6235 3.01218C1.6235 3.13007 1.67396 3.17827 1.79221 3.17678C2.03623 3.17382 2.2795 3.17678 2.52352 3.17678ZM15.2518 3.17678C15.4266 3.17678 15.602 3.17678 15.779 3.17678C16.2151 3.17085 16.1767 3.2361 16.182 2.76156C16.182 2.61327 16.1255 2.55173 15.9718 2.55321C15.5719 2.5584 15.172 2.55321 14.7721 2.55321C14.3202 2.55321 14.3202 2.55321 14.342 3.00328C14.3473 3.13007 14.3962 3.17901 14.5228 3.17678C14.7638 3.17382 15.007 3.17752 15.2511 3.17752L15.2518 3.17678ZM7.63216 3.17678C7.79484 3.17678 7.95752 3.17678 8.12021 3.17678C8.58415 3.17011 8.53444 3.25093 8.5367 2.74228C8.5367 2.72968 8.5367 2.71781 8.5367 2.70521C8.5367 2.61104 8.49226 2.58139 8.39661 2.58064C7.98163 2.57619 7.57116 2.55469 7.15918 2.55469C6.70729 2.55469 6.73064 2.46646 6.73666 2.99957C6.73666 3.12636 6.79315 3.1753 6.91893 3.17307C7.15316 3.1753 7.39417 3.17827 7.63141 3.17752L7.63216 3.17678ZM5.07144 3.17678H5.55873C5.99104 3.17678 5.98652 3.17678 5.9805 2.74599C5.9805 2.60215 5.92627 2.55098 5.78166 2.55321C5.40057 2.5584 5.01947 2.55321 4.63762 2.55321C4.17067 2.55321 4.22038 2.49389 4.21285 2.98548C4.21285 3.13378 4.2731 3.18049 4.41544 3.17678C4.63461 3.17233 4.85303 3.17678 5.07219 3.17678H5.07144ZM10.1756 3.17678C10.3322 3.17678 10.4889 3.17678 10.6455 3.17678C11.1019 3.17159 11.0575 3.23684 11.065 2.75637C11.065 2.60289 11.0078 2.55024 10.8549 2.55247C10.4783 2.55914 10.1018 2.55247 9.72518 2.55247C9.27328 2.55247 9.26274 2.56285 9.2891 3.00847C9.29663 3.12414 9.33956 3.17678 9.45931 3.1753C9.70032 3.17456 9.93983 3.17678 10.1763 3.17678H10.1756ZM12.6881 3.17678C12.844 3.17678 13.0006 3.17678 13.1565 3.17678C13.6265 3.17085 13.5783 3.23981 13.5858 2.74821C13.5858 2.60511 13.5316 2.55098 13.387 2.55321C13.0052 2.5584 12.6233 2.55321 12.2422 2.55321C11.7948 2.55321 11.8144 2.47906 11.8197 3.00921C11.8197 3.12562 11.8769 3.17604 11.9937 3.1753C12.2256 3.1753 12.4569 3.17678 12.6888 3.17678H12.6881ZM15.2578 4.47583H15.8204C16.1857 4.47583 16.1797 4.47583 16.179 4.12438C16.179 3.97608 16.1277 3.91602 15.9718 3.91899C15.5463 3.92566 15.1208 3.91899 14.6952 3.91899C14.3307 3.91899 14.336 3.91899 14.3375 4.26896C14.3375 4.41725 14.3872 4.48102 14.5446 4.47583C14.7826 4.4699 15.0206 4.47583 15.2586 4.47583H15.2578ZM2.52955 4.47583C2.76679 4.47583 3.00403 4.46916 3.24128 4.47583C3.4017 4.48176 3.47777 4.42689 3.45894 4.26451C3.45517 4.22778 3.45517 4.19077 3.45894 4.15403C3.47777 3.98201 3.40697 3.91158 3.22471 3.91602C2.81273 3.92492 2.39624 3.91602 1.98803 3.91602C1.60467 3.91602 1.61145 3.91602 1.622 4.29269C1.62652 4.43134 1.68677 4.47435 1.81706 4.47212C2.05431 4.47212 2.2923 4.47583 2.52955 4.47583ZM10.1823 4.47583H10.7261C11.0733 4.47583 11.0673 4.47583 11.0665 4.12512C11.0665 3.97682 11.0153 3.91602 10.8594 3.91899C10.4595 3.92566 10.0596 3.91899 9.65965 3.91899C9.27253 3.91899 9.2778 3.91899 9.29136 4.29565C9.29663 4.43431 9.35914 4.47731 9.48869 4.47435C9.7199 4.47212 9.95112 4.47583 10.1823 4.47583ZM12.6971 4.47583H13.2605C13.5889 4.47583 13.5798 4.47583 13.5873 4.14662C13.5919 3.96422 13.5188 3.9138 13.3441 3.91825C12.9442 3.92715 12.5427 3.91825 12.139 3.91825C11.8122 3.91825 11.8122 3.91825 11.8167 4.24598C11.8174 4.25832 11.8174 4.2707 11.8167 4.28305C11.8024 4.43134 11.8762 4.4788 12.0178 4.47435C12.246 4.47138 12.4719 4.47583 12.6971 4.47583ZM5.11964 3.92344H4.55553C4.20531 3.92344 4.21134 3.92344 4.21285 4.27267C4.21285 4.42096 4.26481 4.48325 4.42072 4.48028C4.80332 4.47361 5.18592 4.48028 5.56777 4.48028C5.96995 4.48028 5.96769 4.48028 5.97899 4.09398C5.97899 3.97534 5.93531 3.92492 5.8148 3.92715C5.58359 3.92566 5.35161 3.92344 5.11964 3.92344ZM6.73666 4.15329C6.73666 4.16516 6.73666 4.19778 6.73666 4.21039V4.24079L6.74043 4.34014C6.74043 4.47806 6.8406 4.47361 6.93625 4.47435H8.15636C8.5608 4.47435 8.56306 4.46842 8.53294 4.07321C8.5254 3.96348 8.48097 3.91899 8.37176 3.91973C7.87769 3.91973 7.38362 3.91973 6.88955 3.91973C6.80671 3.91973 6.73892 3.93827 6.73892 4.03911C6.73892 4.13995 6.73892 4.13846 6.73892 4.13846L6.73666 4.15329Z" fill="white"/>
</g>
<defs>
<clipPath id="clip0_1897_193957">
<rect width="32" height="10.8936" fill="white" transform="translate(0 0.552734)"/>
</clipPath>
</defs>
</svg>
