<svg width="28" height="10" viewBox="0 0 28 10" fill="none" xmlns="http://www.w3.org/2000/svg">
<g clip-path="url(#clip0_1897_193857)">
<path d="M13.1819 9.5864C10.2301 9.5864 7.27771 9.56701 4.32594 9.59579C3.14777 9.60705 2.26637 9.14347 1.59912 8.22945C1.038 7.4612 0.699924 6.59785 0.508646 5.67445C0.495366 5.60505 0.497404 5.53365 0.514624 5.4651C0.531844 5.39655 0.563841 5.33244 0.608446 5.27714C0.653051 5.22183 0.709218 5.17662 0.773137 5.14457C0.837055 5.11252 0.907229 5.09438 0.978897 5.09138C1.13211 5.082 1.28577 5.082 1.43898 5.09138C1.5934 5.10139 1.63852 5.04071 1.63788 4.89306C1.63343 3.67124 1.63788 2.44942 1.63788 1.2276C1.63788 1.16504 1.63788 1.10248 1.63788 1.03992C1.64228 0.876646 1.70961 0.721136 1.82621 0.60495C1.94281 0.488763 2.09995 0.420605 2.26573 0.414307C2.31847 0.409927 2.37185 0.414307 2.4246 0.414307C6.41876 0.410553 10.4129 0.407216 14.4071 0.404297C14.8761 0.404297 15.2052 0.677689 15.197 1.18193C15.1779 2.40876 15.1906 3.63621 15.1913 4.86303C15.1913 5.087 15.1913 5.08763 15.4219 5.08763C15.7816 5.08763 16.1417 5.08763 16.5022 5.08763C16.6482 5.08959 16.7929 5.06194 16.9275 5.0064C17.0621 4.95086 17.1836 4.86862 17.2845 4.76481C17.3811 4.66909 17.4834 4.57713 17.5749 4.47703C17.8069 4.22241 18.1011 4.12293 18.4392 4.12356C18.7772 4.12418 18.7455 4.14483 18.7455 3.81638C18.7455 3.01018 18.7455 2.20418 18.7455 1.39839C18.7455 0.772782 19.1147 0.409927 19.7521 0.408676C20.1912 0.408676 20.6303 0.408676 21.0694 0.408676C21.6191 0.408676 21.94 0.658921 22.0614 1.18756C22.0798 1.26827 22.1008 1.33083 22.1935 1.36023C22.2471 1.37759 22.2932 1.41195 22.3247 1.45793C22.3562 1.5039 22.3713 1.55888 22.3677 1.61423C22.373 1.67427 22.3606 1.73456 22.332 1.78783C22.3033 1.8411 22.2597 1.8851 22.2063 1.91452C22.048 2.00524 22.0474 2.01587 22.2018 2.10659C22.2565 2.13382 22.3016 2.17672 22.3311 2.22965C22.3606 2.28258 22.3731 2.34306 22.367 2.40313C22.3575 2.52324 22.313 2.6321 22.1872 2.67277C22.0614 2.71343 22.0677 2.79351 22.0836 2.8836C22.102 2.9862 22.1904 2.96868 22.2615 2.96868C22.7324 2.96868 23.2033 2.96868 23.6736 2.96868C23.7635 2.96516 23.8536 2.974 23.9411 2.99496C24.1425 3.05001 24.2779 3.167 24.3071 3.37846C24.3211 3.4761 24.3287 3.57452 24.33 3.67312C24.3332 4.12231 24.33 4.12231 24.7958 4.12231C25.4891 4.12231 26.1818 4.12231 26.8751 4.12231C27.2468 4.12231 27.5067 4.34002 27.4997 4.64782C27.4947 4.8783 27.429 5.10355 27.3091 5.30159C27.1777 5.5171 26.9883 5.69268 26.762 5.80896C25.7164 6.367 24.6704 6.92421 23.624 7.48059C23.5636 7.51312 23.5064 7.55066 23.4442 7.57944C23.2535 7.6689 23.1817 7.8178 23.19 8.02175C23.1976 8.31266 23.1938 8.60419 23.19 8.8976C23.1868 9.3249 22.9199 9.58578 22.4833 9.58578L13.1819 9.5864ZM12.7148 8.79938H21.9355C22.1427 8.79938 22.1472 8.79375 22.1478 8.58792C22.1478 8.31766 22.1478 8.04656 22.1478 7.77463C22.1478 7.39488 22.3327 7.11211 22.6454 6.92255C22.9942 6.71422 23.3577 6.53529 23.7155 6.34761C24.5056 5.92428 25.2959 5.50241 26.0865 5.082C26.226 5.00526 26.3362 4.88575 26.4004 4.74166C26.4449 4.65095 26.4341 4.59027 26.3095 4.59402C26.2148 4.59402 26.1189 4.59402 26.0242 4.59402C23.4321 4.59402 20.84 4.60153 18.2479 4.58526C18.0887 4.57863 17.9302 4.60918 17.7853 4.67442C17.6403 4.73966 17.5132 4.83774 17.4141 4.96063C17.2501 5.15258 17.0443 5.30573 16.812 5.40872C16.5796 5.51171 16.3267 5.56191 16.072 5.55558C11.0679 5.55558 6.06332 5.55558 1.05833 5.55558C1.01067 5.55558 0.962374 5.55558 0.915349 5.55558C0.791432 5.54495 0.773003 5.60063 0.8016 5.70636C0.992242 6.42644 1.26867 7.11148 1.71922 7.71457C2.25111 8.42652 2.93488 8.81627 3.87475 8.80877C6.82144 8.7875 9.76813 8.79938 12.7148 8.79938ZM21.119 3.96403H22.9752C23.2656 3.96403 23.2656 3.96403 23.2643 3.68501C23.2643 3.46604 23.2599 3.46229 23.0292 3.46229C22.5958 3.46229 22.1618 3.46229 21.7284 3.46229C21.2835 3.45728 21.0351 3.20891 21.0344 2.77036C21.0344 2.26612 21.0344 1.76187 21.0344 1.25763C21.0344 0.984865 20.927 0.882264 20.6532 0.878511C20.2248 0.878511 19.7965 0.878511 19.3682 0.878511C19.0746 0.878511 18.9831 0.972352 18.9825 1.26639C18.9825 2.09804 18.9825 2.92968 18.9825 3.76133C18.9825 3.95715 18.9901 3.96465 19.1871 3.96465L21.119 3.96403ZM2.6521 1.46784C2.77347 1.46784 2.89485 1.46784 3.01686 1.46784C3.47313 1.46096 3.40958 1.53478 3.42039 1.06932C3.4242 0.916047 3.35684 0.872255 3.21259 0.875383C2.90629 0.882264 2.59999 0.875383 2.29306 0.875383C1.80501 0.882264 1.87809 0.792176 1.86919 1.31331C1.86919 1.43155 1.92321 1.46659 2.03378 1.46471C2.23968 1.46346 2.4462 1.46784 2.6521 1.46784ZM13.3744 1.46784C13.4958 1.46784 13.6172 1.46784 13.7386 1.46784C14.2069 1.46033 14.1427 1.54228 14.1504 1.04743C14.1504 0.917299 14.0938 0.874757 13.9686 0.876634C13.6509 0.880387 13.3331 0.876634 13.0186 0.876634C12.5477 0.881013 12.6049 0.810319 12.5992 1.31018C12.5992 1.42217 12.6405 1.47034 12.7568 1.46784C12.9627 1.46283 13.1685 1.46784 13.3744 1.46784ZM2.63939 4.9281C2.76648 4.9281 2.89358 4.9281 3.02067 4.9281C3.4655 4.92309 3.41403 4.98628 3.42166 4.52395C3.42166 4.39195 3.37717 4.33627 3.23864 4.34065C2.9209 4.3469 2.60317 4.34065 2.28988 4.34065C1.80628 4.3469 1.88127 4.26057 1.87047 4.76606C1.87047 4.89119 1.9213 4.9306 2.04077 4.92685C2.23904 4.92372 2.43921 4.9281 2.63939 4.9281ZM13.3789 4.34252C13.2518 4.34252 13.1247 4.34252 12.9976 4.34252C12.5528 4.34815 12.6042 4.27996 12.5973 4.74604C12.5973 4.8793 12.6449 4.93373 12.7822 4.92997C13.0999 4.92372 13.4177 4.92997 13.7309 4.92997C14.2088 4.92434 14.1408 5.0088 14.1497 4.50205C14.1497 4.37693 14.0963 4.34002 13.9781 4.34315C13.7799 4.34565 13.5791 4.34565 13.3783 4.34565L13.3789 4.34252ZM6.94663 4.9281C7.0572 4.9281 7.16841 4.9281 7.27898 4.9281C7.77147 4.91934 7.69331 5.01193 7.70348 4.49017C7.70348 4.37255 7.65391 4.33752 7.54207 4.3394C7.23132 4.34315 6.91994 4.3394 6.60919 4.3394C6.11861 4.34753 6.18851 4.24368 6.18342 4.78921C6.18342 4.89056 6.23299 4.92559 6.33022 4.92497C6.53548 4.92622 6.74137 4.92747 6.94663 4.9281ZM6.93392 1.46784H7.26691C7.68251 1.46784 7.67488 1.46784 7.69776 1.06619C7.70665 0.913545 7.6501 0.864122 7.51093 0.878511C7.21035 0.909166 6.90977 0.869126 6.60919 0.878511C6.12051 0.8929 6.18978 0.799058 6.18215 1.31644C6.18215 1.43343 6.23553 1.47097 6.34674 1.46909C6.54247 1.46346 6.73819 1.46784 6.93392 1.46784ZM4.79809 1.46784C4.90358 1.46784 5.00907 1.46784 5.11583 1.46784C5.6134 1.45845 5.53651 1.54854 5.54731 1.03616C5.54731 0.911043 5.49521 0.874131 5.37637 0.876008C5.07579 0.881013 4.77458 0.876008 4.474 0.876008C3.99867 0.881639 4.06666 0.806565 4.05649 1.29141C4.05649 1.43155 4.11305 1.47284 4.24714 1.46784C4.42825 1.46158 4.61317 1.46784 4.79809 1.46784ZM4.8089 4.34565C4.69832 4.34565 4.58711 4.34565 4.47654 4.34565C3.99612 4.35441 4.06412 4.26495 4.05522 4.77107C4.05522 4.89619 4.10543 4.93435 4.22553 4.93248C4.52611 4.9281 4.82669 4.93248 5.12727 4.93248C5.61277 4.92622 5.53461 5.00943 5.54604 4.50643C5.54604 4.38131 5.49902 4.3419 5.37828 4.34565C5.18827 4.34565 4.99827 4.34565 4.8089 4.34565ZM9.08309 4.93122C9.19938 4.93122 9.31567 4.93122 9.43196 4.93122C9.89078 4.92559 9.82596 4.99379 9.8374 4.53396C9.8374 4.39445 9.79673 4.33814 9.64675 4.34252C9.35126 4.35191 9.05513 4.34252 8.75709 4.34628C8.27477 4.35378 8.34403 4.25681 8.33704 4.78858C8.33704 4.89869 8.38979 4.93373 8.49337 4.93185C8.69227 4.92559 8.88673 4.9281 9.08309 4.9281V4.93122ZM9.07737 1.46784C9.18858 1.46784 9.29915 1.46784 9.41036 1.46784C9.89713 1.46033 9.82659 1.53978 9.83676 1.04367C9.83676 0.909166 9.77893 0.874131 9.65501 0.876008C9.35888 0.881013 9.06275 0.876008 8.76535 0.876008C8.28049 0.884767 8.34467 0.777787 8.34086 1.33083C8.34086 1.4328 8.39169 1.46659 8.48956 1.46533C8.68655 1.46283 8.88228 1.46784 9.07737 1.46784ZM11.2075 1.46784C11.318 1.46784 11.4293 1.46784 11.5405 1.46784C12.0183 1.45908 11.9548 1.54604 11.9631 1.03867C11.9631 0.913545 11.9129 0.874131 11.7927 0.876008C11.4966 0.880387 11.1999 0.876008 10.9031 0.876008C10.4169 0.881639 10.4754 0.79593 10.4722 1.33083C10.4722 1.43218 10.5224 1.46784 10.6197 1.46659C10.816 1.46784 11.0118 1.46784 11.2075 1.46784ZM11.2024 4.92997C11.3187 4.92997 11.435 4.92997 11.5506 4.92997C12.0202 4.92309 11.9516 4.99253 11.9643 4.52458C11.9681 4.37568 11.9052 4.33689 11.7667 4.3419C11.4712 4.34941 11.1757 4.3419 10.8802 4.34503C10.4258 4.35003 10.476 4.2712 10.4722 4.77169C10.4722 4.88243 10.518 4.93248 10.633 4.9306C10.8224 4.92497 11.0124 4.92747 11.2024 4.9281V4.92997ZM2.62922 2.61834H3.08803C3.4242 2.61834 3.41784 2.61834 3.42166 2.28676C3.42166 2.13536 3.36383 2.08782 3.21576 2.09095C2.88913 2.09845 2.56186 2.09095 2.23523 2.09407C1.83107 2.09845 1.87237 2.02463 1.86983 2.47945C1.86983 2.57892 1.91241 2.61959 2.01218 2.61834C2.21807 2.61583 2.42333 2.61834 2.62922 2.61834ZM13.3687 2.61834C13.5162 2.61834 13.6642 2.61834 13.8136 2.61834C14.1815 2.61333 14.1491 2.66839 14.1535 2.26799C14.1535 2.14287 14.1059 2.09095 13.9762 2.0922C13.6388 2.09658 13.3014 2.0922 12.9639 2.0922C12.5826 2.0922 12.5826 2.0922 12.6011 2.47194C12.6055 2.57892 12.6468 2.62021 12.7536 2.61834C12.9569 2.61583 13.1622 2.61896 13.3681 2.61896L13.3687 2.61834ZM6.93964 2.61834C7.0769 2.61834 7.21416 2.61834 7.35142 2.61834C7.74288 2.61271 7.70093 2.6809 7.70284 2.25173C7.70284 2.24109 7.70284 2.23108 7.70284 2.22045C7.70284 2.141 7.66535 2.11597 7.58464 2.11535C7.2345 2.11159 6.88816 2.09345 6.54056 2.09345C6.15928 2.09345 6.17898 2.019 6.18406 2.46882C6.18406 2.5758 6.23172 2.61709 6.33784 2.61521C6.53548 2.61709 6.73883 2.61959 6.939 2.61896L6.93964 2.61834ZM4.77903 2.61834H5.19018C5.55494 2.61834 5.55113 2.61834 5.54604 2.25486C5.54604 2.13349 5.50029 2.09032 5.37828 2.0922C5.05673 2.09658 4.73518 2.0922 4.413 2.0922C4.019 2.0922 4.06094 2.04215 4.05459 2.45693C4.05459 2.58205 4.10543 2.62147 4.22553 2.61834C4.41045 2.61458 4.59474 2.61834 4.77966 2.61834H4.77903ZM9.08563 2.61834C9.21781 2.61834 9.34999 2.61834 9.48217 2.61834C9.86726 2.61396 9.82977 2.66901 9.83613 2.26362C9.83613 2.13411 9.78783 2.0897 9.65883 2.09157C9.34109 2.0972 9.02335 2.09157 8.70562 2.09157C8.32433 2.09157 8.31544 2.10033 8.33768 2.47632C8.34403 2.57392 8.38026 2.61834 8.4813 2.61709C8.68465 2.61646 8.88673 2.61834 9.08627 2.61834H9.08563ZM11.2056 2.61834C11.3371 2.61834 11.4693 2.61834 11.6008 2.61834C11.9974 2.61333 11.9567 2.67151 11.9631 2.25673C11.9631 2.13599 11.9173 2.09032 11.7953 2.0922C11.4731 2.09658 11.1509 2.0922 10.8294 2.0922C10.4519 2.0922 10.4684 2.02964 10.4729 2.47695C10.4729 2.57517 10.5212 2.61771 10.6197 2.61709C10.8154 2.61709 11.0105 2.61834 11.2062 2.61834H11.2056ZM13.3738 3.71441H13.8485C14.1567 3.71441 14.1516 3.71441 14.151 3.41787C14.151 3.29275 14.1078 3.24207 13.9762 3.24457C13.6172 3.25021 13.2581 3.24457 12.8991 3.24457C12.5915 3.24457 12.596 3.24457 12.5973 3.53986C12.5973 3.66499 12.6392 3.71879 12.772 3.71441C12.9728 3.7094 13.1736 3.71441 13.3744 3.71441H13.3738ZM2.63431 3.71441C2.83448 3.71441 3.03465 3.70878 3.23483 3.71441C3.37018 3.71941 3.43437 3.67312 3.41848 3.53611C3.4153 3.50512 3.4153 3.47389 3.41848 3.44289C3.43437 3.29775 3.37463 3.23832 3.22085 3.24207C2.87324 3.24958 2.52183 3.24207 2.1774 3.24207C1.85394 3.24207 1.85966 3.24207 1.86856 3.55988C1.87237 3.67687 1.92321 3.71316 2.03315 3.71128C2.23332 3.71128 2.43413 3.71441 2.63431 3.71441ZM9.09135 3.71441H9.55016C9.84312 3.71441 9.83803 3.71441 9.8374 3.41849C9.8374 3.29337 9.79418 3.24207 9.66264 3.24457C9.3252 3.25021 8.98777 3.24457 8.65033 3.24457C8.3237 3.24457 8.32815 3.24457 8.33959 3.56239C8.34403 3.67937 8.39678 3.71566 8.50608 3.71316C8.70117 3.71128 8.89626 3.71441 9.09135 3.71441ZM11.2132 3.71441H11.6885C11.9656 3.71441 11.958 3.71441 11.9643 3.43664C11.9681 3.28274 11.9065 3.2402 11.7591 3.24395C11.4216 3.25146 11.0829 3.24395 10.7423 3.24395C10.4665 3.24395 10.4665 3.24395 10.4703 3.52047C10.471 3.53089 10.471 3.54133 10.4703 3.55175C10.4583 3.67687 10.5205 3.71691 10.64 3.71316C10.8325 3.71066 11.0232 3.71441 11.2132 3.71441ZM4.8197 3.24833H4.34373C4.04823 3.24833 4.05332 3.24833 4.05459 3.54299C4.05459 3.66811 4.09844 3.72067 4.22998 3.71816C4.5528 3.71253 4.87562 3.71816 5.1978 3.71816C5.53715 3.71816 5.53524 3.71816 5.54477 3.39222C5.54477 3.29212 5.50792 3.24958 5.40624 3.25146C5.21115 3.25021 5.01542 3.24833 4.8197 3.24833ZM6.18406 3.44227C6.18406 3.45228 6.18406 3.4798 6.18406 3.49044V3.51609L6.18724 3.59992C6.18724 3.71629 6.27175 3.71253 6.35246 3.71316H7.38193C7.72318 3.71316 7.72508 3.70815 7.69966 3.3747C7.69331 3.28211 7.65582 3.24457 7.56367 3.2452C7.1468 3.2452 6.72993 3.2452 6.31306 3.2452C6.24316 3.2452 6.18597 3.26084 6.18597 3.34592C6.18597 3.43101 6.18597 3.42976 6.18597 3.42976L6.18406 3.44227Z" fill="black" fill-opacity="0.75"/>
</g>
<defs>
<clipPath id="clip0_1897_193857">
<rect width="27" height="9.19149" fill="white" transform="translate(0.5 0.404297)"/>
</clipPath>
</defs>
</svg>
