<svg width="33" height="35" viewBox="0 0 33 35" fill="none" xmlns="http://www.w3.org/2000/svg">
<path d="M16.6611 13.5854L3.27825 20.2297C1.1219 21.2944 0.124588 23.8146 0.973651 26.0653L4.31599 35.0007H29.0197L32.362 26.0653C33.1976 23.8146 32.2138 21.2944 30.0574 20.2297L16.6611 13.5854Z" fill="#333333"/>
<path d="M16.9607 -0.000488281H16.3678C14.2923 -0.000488281 12.6211 1.67068 12.6211 3.74617H20.7074C20.7074 1.67068 19.0362 -0.000488281 16.9607 -0.000488281Z" fill="#333333"/>
<path d="M26.0946 15.2589V9.14026C26.0946 7.65777 24.8951 6.44482 23.3992 6.44482H20.7037H12.6174H9.922C8.43951 6.44482 7.22656 7.65777 7.22656 9.14026V15.2589L16.6606 10.5823L26.0946 15.2589Z" fill="#333333"/>
</svg>
