<svg width="37" height="35" viewBox="0 0 37 35" fill="none" xmlns="http://www.w3.org/2000/svg">
<rect x="1.66797" y="3.5105" width="34.3319" height="29.7904" rx="2" stroke="#333333" stroke-width="2"/>
<path d="M8.23438 1.69897C8.23438 1.14669 8.68209 0.698975 9.23438 0.698975H10.262C10.8143 0.698975 11.262 1.14669 11.262 1.69897V5.7543C11.262 6.30658 10.8143 6.7543 10.262 6.7543H9.23437C8.68209 6.7543 8.23438 6.30658 8.23438 5.7543V1.69897Z" fill="#333333"/>
<rect x="6.72266" y="13.1091" width="6.05532" height="6.05532" rx="1" fill="#333333"/>
<rect x="15.8086" y="13.1091" width="6.05532" height="6.05532" rx="1" fill="#333333"/>
<rect x="24.8867" y="13.1091" width="6.05532" height="6.05532" rx="1" fill="#333333"/>
<rect x="24.8867" y="22.0427" width="6.05532" height="6.05532" rx="1" fill="#333333"/>
<rect x="6.72266" y="22.0427" width="6.05532" height="6.05532" rx="1" fill="#333333"/>
<rect x="15.8086" y="22.0427" width="6.05532" height="6.05532" rx="1" fill="#333333"/>
<rect x="24.8867" y="0.996582" width="3.02766" height="6.05532" rx="1" fill="#333333"/>
<rect x="0.667969" y="8.41699" width="36.3319" height="2" fill="#333333"/>
</svg>
