<svg width="20" height="21" viewBox="0 0 20 21" fill="none" xmlns="http://www.w3.org/2000/svg">
<path d="M10 20.5C4.47715 20.5 0 16.0228 0 10.5C0 4.97715 4.47715 0.5 10 0.5C15.5228 0.5 20 4.97715 20 10.5C19.9939 16.0203 15.5203 20.4939 10 20.5ZM9.984 18.5H10C14.4167 18.4956 17.9942 14.9127 17.992 10.496C17.9898 6.07929 14.4087 2.5 9.992 2.5C5.57528 2.5 1.99421 6.07929 1.992 10.496C1.98979 14.9127 5.56729 18.4956 9.984 18.5ZM8 15.5L4 11.5L5.41 10.09L8 12.67L14.59 6.08L16 7.5L8 15.5Z" fill="#27AE60"/>
</svg>
