<svg width="41" height="40" viewBox="0 0 41 40" fill="none" xmlns="http://www.w3.org/2000/svg">
<path d="M35.8759 15.2501C35.4681 14.2871 35.1502 13.3815 34.7171 12.5358C32.7896 8.77055 29.8502 6.12772 25.9394 4.57162C25.6127 4.44407 25.405 4.49509 25.1871 4.74253C24.8072 5.17493 24.6476 5.64431 24.7882 6.23231C24.8953 6.62484 24.9347 7.03298 24.9047 7.43893C24.8085 8.305 24.2322 8.72719 23.366 8.73739C22.741 8.75183 22.1173 8.80208 21.498 8.8879C21.0839 8.93892 20.8876 9.19529 20.8648 9.64299C20.809 10.5499 20.4684 11.3011 19.5768 11.6953C19.4147 11.7667 19.3096 11.9669 19.1791 12.1073L19.245 12.2425C19.7516 12.2425 20.2581 12.2284 20.7647 12.2425C21.8741 12.2756 22.9949 12.2335 24.0866 12.3904C25.4012 12.5792 26.1319 13.4414 26.3117 14.6072C26.546 16.1276 25.5519 16.8559 24.3665 16.8674C23.0316 16.8802 21.7069 16.7947 20.4114 16.3776C19.875 16.2075 19.3237 16.0896 18.765 16.0256C17.5201 15.8814 16.3588 16.0996 15.4229 17.0217L14.4515 16.208C15.1528 15.4766 16.0677 14.9899 17.0629 14.819C18.456 14.5639 19.7972 14.8445 21.1155 15.2552C22.1831 15.5868 23.2811 15.6059 24.3779 15.6008C25.1567 15.6008 25.31 15.0906 24.8566 14.2297C24.7009 13.9863 24.4614 13.8096 24.1841 13.7335C23.6675 13.5911 23.1363 13.5093 22.6011 13.4899C21.6082 13.458 20.6127 13.4899 19.6186 13.5039C19.5527 13.5039 19.4919 13.4963 19.4223 13.4924C18.6219 13.435 18.0913 13.1034 17.9583 12.5766C17.8038 11.9657 18.133 11.032 18.7435 10.7335C19.4071 10.4096 19.63 9.9185 19.6604 9.23356C19.6908 8.54862 20.0973 8.12643 20.6811 7.85347C21.4613 7.4874 22.2958 7.44276 23.138 7.45807C23.7029 7.46827 23.7345 7.39812 23.6522 6.82032C23.5787 6.31012 23.4901 5.77186 23.5534 5.26549C23.6066 4.8433 23.8713 4.44662 24.06 4.00275C22.5304 3.60983 20.9505 3.45286 19.3742 3.53719C19.3742 3.83566 19.3742 4.10861 19.3742 4.38157C19.364 5.61625 18.9562 6.1966 17.8177 6.66981C17.2973 6.88302 16.7898 7.12707 16.298 7.40067C15.9522 7.59454 15.6154 7.80883 15.571 8.305C15.5571 8.46188 15.2557 8.69785 15.0759 8.70805C14.9582 8.70213 14.8433 8.67055 14.739 8.6155C14.6347 8.56044 14.5435 8.48322 14.4718 8.38918C14.2185 8.00653 14.3046 7.57031 14.5984 7.25781C14.9586 6.86146 15.3671 6.51261 15.8142 6.21956C16.3106 5.90961 16.8691 5.69916 17.4074 5.46447C17.9975 5.20937 18.1039 5.06779 18.1115 4.42621C18.1115 4.19152 18.1115 3.95683 18.1115 3.65198C15.7146 3.94516 13.4142 4.77921 11.3816 6.09201C11.5298 6.91088 11.6945 7.6647 11.797 8.42617C11.9617 9.64937 11.5336 10.6328 10.4951 11.3075C10.1053 11.5557 9.68403 11.7496 9.24262 11.884C9.30721 11.7807 9.36927 11.6749 9.43512 11.5741C9.54496 11.4262 9.64685 11.2725 9.74033 11.1136C10.4141 9.7986 10.9219 8.45933 10.195 6.93511C9.88471 7.19021 9.52377 7.42108 9.26415 7.73357C8.88422 8.19403 8.43463 8.16979 7.92299 8.05628C7.83687 7.58562 7.90779 7.21827 8.31685 6.85476C11.8832 3.6826 16.032 2.11118 20.7862 2.26297C29.1562 2.52062 36.2001 8.82795 37.5337 17.2029C37.8902 19.461 37.8041 21.7675 37.2804 23.9923C37.269 24.0408 37.2525 24.088 37.2133 24.2245C36.8701 23.8061 36.5572 23.4464 36.2748 23.0625C36.2128 22.9783 36.2406 22.8074 36.2622 22.6798C36.5402 21.0267 36.5641 19.3404 36.3331 17.6799C36.2001 16.6901 35.6923 16.3087 34.7348 16.532C34.303 16.6327 33.8825 16.7871 33.4557 16.9069C32.9327 17.0638 32.5059 17.0166 32.0702 16.5791C31.7967 16.3024 31.318 16.1812 30.9102 16.1047C30.5024 16.0281 30.2706 16.407 30.4289 16.8049C30.5315 17.06 30.6658 17.3062 30.7569 17.5702C31.0102 18.2794 30.7189 18.8865 30.0186 19.162C29.2765 19.4528 28.4634 19.3074 27.6301 18.7347C27.4629 19.4044 27.8467 20.2437 28.5065 20.5778C28.8775 20.7653 29.2777 20.8954 29.6615 21.0574C29.9996 21.2003 30.2795 21.3954 30.3137 21.861C29.6298 21.861 28.9675 21.861 28.3064 21.861C28.2003 21.8581 28.0986 21.8179 28.0189 21.7475C27.5579 21.2934 27.0323 20.8788 26.6752 20.3508C26.2775 19.7615 26.2357 19.0268 26.3725 18.3253C26.5587 17.3661 27.62 17.0702 28.4444 17.7424C28.7775 18.0141 29.1144 18.125 29.5728 17.9707C29.474 17.7577 29.3816 17.56 29.2917 17.3623C29.1432 17.072 29.0811 16.7447 29.113 16.4197C29.1449 16.0948 29.2694 15.786 29.4715 15.5307C29.892 14.9605 30.4847 14.7514 31.1673 14.8432C31.7956 14.9123 32.3914 15.1605 32.8846 15.5587C32.9381 15.5997 32.9996 15.6288 33.0651 15.6439C33.1306 15.6591 33.1986 15.6601 33.2645 15.6468C34.0712 15.3827 34.8805 15.1213 35.8759 15.2501Z" fill="#333333"/>
<path d="M37.1023 38.3101C37.1375 37.877 37.169 37.4918 37.203 37.0675H38.7144C38.7232 36.8933 38.7371 36.7556 38.7371 36.618C38.7371 34.7769 38.7371 32.9371 38.7371 31.096C38.7439 30.6623 38.5915 30.2412 38.3088 29.9128C36.9528 28.2771 35.5989 26.6398 34.247 25.0007C34.0102 24.7141 33.7332 24.5247 33.3503 24.5247H27.3791C27.3204 24.5283 27.2619 24.5355 27.204 24.5461V37.0473H29.0227C29.0567 37.4741 29.0895 37.8681 29.1235 38.2848H17.1081C17.1396 37.8871 17.1685 37.5019 17.2025 37.0701H25.9017V30.1641H1.01322C0.857424 30.1721 0.701253 30.1688 0.545951 30.154C0.393479 30.1442 0.250921 30.0749 0.148936 29.9608C0.0469516 29.8467 -0.00631325 29.6971 0.000597412 29.5441C0.000597412 29.1994 0.197076 28.9847 0.535875 28.9253C0.678 28.9089 0.821302 28.9051 0.964097 28.914H25.9017C25.9118 28.7713 25.9269 28.6614 25.9269 28.5465C25.9269 27.2838 25.9269 26.0134 25.9269 24.7482C25.9251 24.5007 25.9011 24.2539 25.8551 24.0107C25.6864 23.0712 25.1826 22.6533 24.2468 22.6457C23.743 22.6457 23.2304 22.6545 22.7228 22.6457C22.5644 22.6515 22.4102 22.5942 22.2938 22.4863C22.1774 22.3784 22.1084 22.2287 22.1019 22.0699C22.088 21.7302 22.3034 21.4145 22.6359 21.4132C23.4407 21.4132 24.2556 21.3842 25.0453 21.5042C25.874 21.6304 26.4786 22.1684 26.8086 22.9563C26.9194 23.224 27.0605 23.2859 27.3312 23.2846C29.2973 23.2745 31.2633 23.2846 33.2294 23.2758C33.6072 23.2627 33.9828 23.3392 34.3255 23.4992C34.6683 23.6592 34.9685 23.898 35.2017 24.1963C36.5451 25.8278 37.8924 27.4538 39.2434 29.0743C39.7425 29.6514 40.0116 30.3929 39.9991 31.1566C39.9865 33.0368 39.9991 34.9158 39.9991 36.7961C39.9991 37.7924 39.4764 38.3113 38.4789 38.3113L37.1023 38.3101Z" fill="#333333"/>
<path d="M2.39555 27.5864H1.12891V22.0426C1.12891 20.633 1.8133 19.893 3.18209 19.8225C3.23719 19.8152 3.29179 19.8043 3.34552 19.7898C3.34552 19.4907 3.34552 19.1852 3.34552 18.8756C3.34468 18.6178 3.3936 18.3624 3.48948 18.124C3.58536 17.8856 3.7263 17.6688 3.90424 17.4862C4.08217 17.3036 4.29359 17.1588 4.52638 17.0599C4.75917 16.9611 5.00875 16.9102 5.26081 16.9102C7.79408 16.8997 10.3278 16.8997 12.8619 16.9102C13.3628 16.917 13.8411 17.1242 14.1944 17.4875C14.5476 17.8508 14.7477 18.3411 14.7517 18.8534C14.7644 19.5913 14.7517 20.3305 14.7517 21.1271C15.5382 21.1271 16.2839 21.1271 17.0308 21.1271C17.8748 21.1271 18.7176 21.1141 19.5603 21.1271C20.5243 21.1271 21.367 21.9107 21.3913 22.8902C21.4271 24.3476 21.4002 25.805 21.4066 27.2638C21.4066 27.525 21.3006 27.6138 21.0466 27.606C19.9931 27.5772 20.1528 27.7666 20.1413 26.6918C20.1323 25.5452 20.1413 24.3972 20.1413 23.2506C20.1413 22.5976 19.9548 22.4174 19.3088 22.4161H14.6329C13.9728 22.4161 13.8004 22.5976 13.8004 23.2872C13.8004 24.7028 13.8004 26.1185 13.8004 27.5668H12.5555C12.5478 27.4362 12.535 27.3186 12.535 27.2011C12.535 25.8377 12.535 24.4743 12.535 23.1109C12.5262 22.8068 12.5876 22.5048 12.7143 22.2296C12.841 21.9543 13.0294 21.7135 13.2641 21.5267C13.386 21.416 13.4618 21.2618 13.4761 21.0958C13.4978 20.3958 13.4914 19.6932 13.4837 18.9906C13.4837 18.446 13.2399 18.207 12.6998 18.207C10.2712 18.207 7.84516 18.207 5.42169 18.207C4.85987 18.207 4.62876 18.4486 4.62238 19.0193C4.62238 19.2727 4.62238 19.526 4.62238 19.829C4.87775 19.829 5.09864 19.829 5.31826 19.829C6.6896 19.829 8.06095 19.8225 9.43229 19.8407C9.90729 19.8421 10.3633 20.0318 10.7045 20.3698C11.0457 20.7078 11.2455 21.1679 11.262 21.6534C11.2927 23.5836 11.271 25.5138 11.2697 27.444C11.2626 27.4888 11.2506 27.5326 11.2339 27.5746H10.0081C10.0081 27.4218 10.0081 27.2795 10.0081 27.1371C10.0081 25.3819 10.0116 23.6271 10.0184 21.8728C10.0184 21.3909 9.76299 21.118 9.28928 21.1167C7.25738 21.1167 5.22633 21.1167 3.19613 21.1167C2.62666 21.1167 2.40576 21.3439 2.40576 21.925C2.40576 23.6533 2.40576 25.381 2.40576 27.1084L2.39555 27.5864Z" fill="#333333"/>
<path d="M7.14969 10.8335C6.76674 10.8335 6.47726 10.8335 6.18908 10.8335C5.71137 10.8208 5.47122 10.5941 5.47122 10.1231C5.46602 7.99066 5.46602 5.85783 5.47122 3.72457C5.47122 3.28517 5.72305 3.03572 6.12028 3.03952C6.5175 3.04332 6.75376 3.29277 6.75506 3.74483C6.75506 5.51762 6.75506 7.27775 6.75506 9.0442V9.57351C7.22757 9.57351 7.67802 9.58111 8.12847 9.57351C8.46858 9.57351 8.77753 9.61023 8.94758 9.94453C9.10855 10.2535 8.94758 10.4928 8.77493 10.7359C7.56335 12.4615 6.35177 14.1878 5.1402 15.915C4.74167 16.4823 4.27305 16.4785 3.87063 15.9049C2.65905 14.1794 1.44748 12.4534 0.235896 10.7271C0.0593514 10.4827 -0.0951249 10.2421 0.0710345 9.9344C0.237194 9.62669 0.527973 9.56718 0.856398 9.57351C1.29776 9.58364 1.73912 9.57351 2.24798 9.57351V0.898242C2.24798 0.793141 2.24149 0.68804 2.24798 0.584206C2.25001 0.430452 2.31361 0.28357 2.4252 0.174959C2.53678 0.0663482 2.68749 0.00462524 2.84512 0.00298452C3.18393 -0.0261398 3.40591 0.160003 3.49418 0.468975C3.52611 0.608944 3.5379 0.752567 3.52923 0.89571C3.52923 3.89341 3.52923 6.89027 3.52923 9.88628C3.52923 10.66 3.35139 10.8335 2.56472 10.8347H1.86763L4.50412 14.5918L7.14969 10.8335Z" fill="#333333"/>
<path d="M20.4064 0.00967788C29.703 0.246467 37.8446 7.11461 39.5957 16.2475C39.8326 17.4798 39.8886 18.7491 39.9956 20.0056C40.0415 20.5466 39.7944 20.8344 39.3869 20.8445C38.9793 20.8547 38.7501 20.5645 38.7399 20.0323C38.693 15.5923 37.0893 11.3095 34.2084 7.92988C31.3274 4.55027 27.3517 2.28807 22.9738 1.53735C22.0327 1.37312 21.0635 1.35403 20.1109 1.27001C19.9836 1.25855 19.8448 1.27764 19.7161 1.25727C19.5618 1.24497 19.4179 1.17421 19.314 1.05945C19.2101 0.944695 19.154 0.7946 19.1571 0.639841C19.1529 0.560036 19.1647 0.480205 19.1915 0.404946C19.2184 0.329686 19.2599 0.260484 19.3137 0.201322C19.3674 0.14216 19.4323 0.0942077 19.5047 0.0602249C19.577 0.0262421 19.6554 0.00690023 19.7352 0.00331259C19.9568 -0.00687187 20.1822 0.00967788 20.4064 0.00967788Z" fill="#333333"/>
<path d="M33.0614 32.1103C32.236 32.1103 31.4119 32.1103 30.5865 32.1103C29.8619 32.1103 29.3325 31.6242 29.3153 30.8907C29.2907 29.8227 29.2907 28.7533 29.3153 27.6827C29.3337 26.9644 29.8619 26.4834 30.5595 26.4771C31.0422 26.4771 31.5249 26.4771 32.0063 26.4771C32.267 26.4707 32.5258 26.5241 32.7639 26.6332C33.0021 26.7424 33.2136 26.9047 33.3832 27.1083C34.3498 28.2143 35.309 29.3265 36.2719 30.4362C36.5606 30.7683 36.7288 31.1357 36.5421 31.5725C36.3554 32.0093 35.9698 32.1141 35.5338 32.109C34.7109 32.104 33.8855 32.1103 33.0614 32.1103ZM30.546 30.8314H34.9184C34.9074 30.7784 34.9111 30.7468 34.8976 30.7304C34.0894 29.7974 33.2824 28.8632 32.4657 27.939C32.3745 27.8314 32.2492 27.7603 32.112 27.7383C31.5973 27.7168 31.0815 27.7295 30.546 27.7295V30.8314Z" fill="#333333"/>
<path d="M12.9601 34.3672C13.5177 34.3669 14.0628 34.5322 14.5264 34.8419C14.99 35.1517 15.3512 35.5921 15.5643 36.1073C15.7775 36.6225 15.8329 37.1893 15.7236 37.7361C15.6144 38.2828 15.3453 38.7848 14.9505 39.1786C14.5558 39.5723 14.053 39.84 13.506 39.9478C12.9589 40.0556 12.3922 39.9986 11.8776 39.7841C11.363 39.5696 10.9236 39.2071 10.6151 38.7427C10.3065 38.2783 10.1428 37.7328 10.1445 37.1752C10.1469 36.4299 10.4445 35.7159 10.9723 35.1895C11.5 34.6632 12.2148 34.3675 12.9601 34.3672ZM11.3977 37.1437C11.3901 37.4528 11.4743 37.7574 11.6397 38.0187C11.8052 38.28 12.0444 38.4864 12.3271 38.6118C12.6098 38.7371 12.9234 38.7758 13.2281 38.723C13.5328 38.6701 13.815 38.5281 14.0391 38.3149C14.2631 38.1016 14.4188 37.8268 14.4866 37.525C14.5544 37.2232 14.5311 36.9082 14.4198 36.6196C14.3085 36.3311 14.1142 36.082 13.8613 35.9039C13.6084 35.7258 13.3085 35.6267 12.9993 35.6191C12.7938 35.6138 12.5893 35.649 12.3976 35.7229C12.2058 35.7967 12.0304 35.9077 11.8816 36.0494C11.7329 36.1912 11.6135 36.3609 11.5305 36.5489C11.4474 36.7369 11.4023 36.9395 11.3977 37.1449V37.1437Z" fill="#333333"/>
<path d="M33.2566 34.3663C33.8143 34.3698 34.3584 34.5388 34.8199 34.8518C35.2815 35.1649 35.6397 35.6079 35.8492 36.1248C36.0588 36.6416 36.1102 37.209 35.9969 37.7551C35.8836 38.3012 35.6108 38.8014 35.213 39.1923C34.8152 39.5832 34.3104 39.8472 33.7624 39.9508C33.2144 40.0545 32.648 39.9932 32.1349 39.7746C31.6218 39.5561 31.1851 39.1902 30.8802 38.7232C30.5753 38.2562 30.4158 37.7092 30.4221 37.1516C30.4307 36.407 30.7337 35.6961 31.2648 35.1742C31.7959 34.6524 32.512 34.3619 33.2566 34.3663ZM34.8026 37.1793C34.8021 36.87 34.7099 36.5678 34.5376 36.3109C34.3653 36.054 34.1207 35.854 33.8347 35.7361C33.5487 35.6183 33.2342 35.5879 32.9309 35.6488C32.6277 35.7098 32.3493 35.8593 32.131 36.0784C31.9127 36.2976 31.7644 36.5766 31.7047 36.8801C31.645 37.1836 31.6766 37.498 31.7956 37.7835C31.9146 38.069 32.1156 38.3128 32.3732 38.484C32.6308 38.6553 32.9334 38.7463 33.2427 38.7455C33.4482 38.7459 33.6517 38.7055 33.8415 38.6269C34.0313 38.5482 34.2037 38.4328 34.3487 38.2872C34.4937 38.1416 34.6084 37.9687 34.6863 37.7786C34.7642 37.5885 34.8037 37.3848 34.8026 37.1793Z" fill="#333333"/>
<path d="M38.0305 0C38.4215 2.55144e-05 38.8036 0.116261 39.1283 0.333938C39.453 0.551615 39.7057 0.860909 39.8543 1.22252C40.0029 1.58414 40.0406 1.98175 39.9626 2.36485C39.8847 2.74794 39.6947 3.09922 39.4166 3.37407C39.1386 3.64891 38.7852 3.83491 38.4012 3.90843C38.0172 3.98195 37.6201 3.93967 37.2602 3.78697C36.9003 3.63427 36.594 3.37803 36.38 3.05082C36.1661 2.72361 36.0543 2.34019 36.0587 1.94928C36.0667 1.43089 36.2777 0.936311 36.6464 0.571823C37.0151 0.207334 37.5121 0.00202076 38.0305 0ZM38.6825 1.9559C38.6792 1.82605 38.6374 1.70011 38.5624 1.59409C38.4873 1.48808 38.3824 1.40679 38.261 1.36057C38.1396 1.31434 38.0072 1.30528 37.8807 1.33452C37.7541 1.36377 37.6391 1.43001 37.5503 1.5248C37.4615 1.6196 37.4029 1.73867 37.382 1.86686C37.3611 1.99506 37.3788 2.12658 37.4328 2.24469C37.4869 2.36281 37.5748 2.46218 37.6855 2.53015C37.7962 2.59813 37.9246 2.63164 38.0544 2.62642C38.2252 2.61754 38.386 2.54292 38.5031 2.41819C38.6201 2.29346 38.6844 2.12828 38.6825 1.95723V1.9559Z" fill="#333333"/>
<path d="M8.91519 36.6428C8.94839 37.1948 8.98032 37.716 9.0148 38.2731C8.91263 38.2851 8.81174 38.3073 8.71086 38.3073C7.56491 38.3073 6.41939 38.3073 5.2743 38.3073C4.81328 38.3073 4.51828 37.9809 4.50807 37.4819C4.49785 36.9829 4.79668 36.6274 5.28324 36.6172C6.39002 36.6172 7.4968 36.6172 8.60358 36.6172C8.70447 36.6189 8.80536 36.6343 8.91519 36.6428Z" fill="#333333"/>
<path d="M6.17062 33.236C5.81805 33.236 5.46549 33.2428 5.11293 33.236C4.76036 33.2292 4.51243 33.0096 4.50788 32.6857C4.50333 32.3619 4.73534 32.1195 5.097 32.1195C5.82602 32.1093 6.55389 32.1105 7.28177 32.1195C7.64571 32.1195 7.88227 32.3517 7.88795 32.6699C7.89364 32.988 7.65139 33.2281 7.26243 33.236C6.8985 33.236 6.53456 33.236 6.17062 33.236Z" fill="#333333"/>
<path d="M17.1542 33.237C16.743 33.237 16.3332 33.2438 15.922 33.237C15.5108 33.2302 15.2177 32.9982 15.211 32.6866C15.2044 32.375 15.4962 32.118 15.9379 32.118C16.7722 32.1123 17.6078 32.1112 18.4434 32.118C18.8573 32.118 19.1464 32.3557 19.1544 32.6673C19.1624 32.9788 18.8639 33.2359 18.4275 33.2359C17.9912 33.2359 17.5786 33.237 17.1542 33.237Z" fill="#333333"/>
</svg>
