<svg width="20" height="20" viewBox="0 0 20 20" fill="none" xmlns="http://www.w3.org/2000/svg">
<g clip-path="url(#clip0_1897_194203)">
<path d="M13.9966 11.8538H13.3355V9.84097H2.01541V19.3094H2.66933V19.0586C2.66933 16.5938 2.66933 14.1291 2.66933 11.6645C2.66933 11.2826 2.75988 11.188 3.13128 11.1875H7.56511C7.89603 11.1875 7.99743 11.2919 7.99785 11.6297V19.3094L8.32042 19.3332V19.999H0.415899C0.112521 19.999 -0.00140244 19.8879 -0.00140244 19.5815C-0.00140244 14.5454 -0.00223704 9.51023 -0.00390625 4.47589C-0.00390625 4.28279 0.0691215 4.15845 0.232286 4.06805C2.63177 2.74029 5.03069 1.41253 7.42906 0.0847738C7.52599 0.0327526 7.63371 0.00496609 7.74329 0.00371624C9.24307 -0.00137638 10.7427 -0.00123492 12.2422 0.00414062C12.3586 0.00500136 12.473 0.0341006 12.5761 0.0890177C14.9636 1.40801 17.3496 2.72954 19.734 4.05362C19.921 4.15717 19.9986 4.29001 19.9986 4.50856C19.9944 9.52225 19.9933 14.5362 19.9953 19.5505C19.9953 19.9002 19.8959 19.9995 19.5483 19.9999C18.9307 19.9999 18.3135 19.9999 17.6797 19.9999V19.3251H19.3196V4.76023H15.3328V10.4971H14.6651V10.2513C14.6651 8.44347 14.6626 6.63558 14.6692 4.8277C14.6692 4.66134 14.6154 4.57986 14.476 4.50262C12.271 3.28605 10.0684 2.06439 7.86807 0.837633C7.72368 0.757424 7.61768 0.752756 7.47079 0.834238C5.2591 2.06835 3.04462 3.29737 0.827358 4.5213C0.720111 4.58029 0.662941 4.63843 0.662941 4.77593C0.667114 9.58563 0.668366 14.3953 0.666697 19.205C0.666697 19.233 0.670035 19.2615 0.672539 19.3069H1.32478C1.3277 19.2462 1.33354 19.1796 1.33354 19.1112C1.33354 14.5989 1.33354 10.0863 1.33354 5.57335C1.33354 5.1774 1.4216 5.08615 1.80593 5.08615H13.5321C13.9077 5.08615 13.9966 5.17825 13.9966 5.55977V11.8538ZM18.3131 4.06763C18.2438 4.01585 18.2297 4.001 18.2105 3.99082C16.2533 2.90439 14.2953 1.81909 12.3365 0.734932C12.2634 0.697229 12.1823 0.678014 12.1003 0.678913C11.1293 0.675094 10.1578 0.676367 9.18674 0.678913C9.13892 0.683218 9.0914 0.690446 9.04444 0.700557C9.06786 0.720105 9.09238 0.738243 9.11788 0.754878C11.075 1.84159 13.0329 2.92688 14.9914 4.01076C15.0716 4.04992 15.1599 4.06912 15.2489 4.06678C16.0463 4.0706 16.8442 4.06678 17.6421 4.06678L18.3131 4.06763ZM13.3218 5.7762H2.01625V6.43018H13.3218V5.7762ZM13.3218 7.13424H2.00916V7.78609H13.3222L13.3218 7.13424ZM13.3218 8.48972H2.01625V9.14285H13.3222L13.3218 8.48972ZM5.31627 13.8913V11.8755H3.34535V13.8913H5.31627ZM5.32336 14.5873H3.34577V16.5934H5.32336V14.5873ZM3.34702 17.297V19.3056H5.32169V17.297H3.34702ZM7.31806 13.8892V11.8827H6.00774V13.8913L7.31806 13.8892ZM7.31806 16.6052V14.5907H6.01483V16.6069L7.31806 16.6052ZM7.31806 19.3166V17.3034H6.01567V19.3183L7.31806 19.3166Z" fill="black" fill-opacity="0.75"/>
<path d="M17.0257 17.9636H17.3178V18.635L16.9589 18.6537C17.0712 19.1583 16.9514 19.5755 16.5162 19.8513C16.1598 20.0771 15.7842 20.0635 15.4391 19.8237C15.0389 19.5441 14.93 19.1413 15.041 18.6571H13.6243C13.7365 19.1583 13.6176 19.5691 13.1911 19.8454C12.8368 20.075 12.4659 20.061 12.1132 19.8309C11.7414 19.5886 11.6033 19.1863 11.7076 18.6427H10.9565C11.0725 19.1655 10.9469 19.5886 10.4975 19.8607C10.1377 20.0788 9.76133 20.0584 9.42081 19.811C9.03356 19.5292 8.92965 19.132 9.04024 18.6486H8.67969V17.9751L9.00017 17.9607V17.7328C9.00017 17.0484 9.00017 16.3637 9.00017 15.6788C9.00017 15.3677 9.10784 15.2565 9.40955 15.2544C9.92909 15.2544 10.449 15.2544 10.999 15.2544V15.0201C10.999 14.3357 10.999 13.651 10.999 12.9661C10.999 12.6554 11.1075 12.5417 11.4084 12.5417C12.3244 12.5417 13.2408 12.5392 14.1568 12.5438C14.2143 12.5484 14.2721 12.5383 14.3249 12.5144C14.3776 12.4906 14.4237 12.4537 14.4589 12.4072C14.721 12.0876 14.9976 11.7804 15.2655 11.4655C15.3399 11.3723 15.4347 11.2982 15.5423 11.2491C15.6499 11.1999 15.7674 11.1771 15.8852 11.1824C16.4336 11.1917 16.9819 11.1905 17.5302 11.1824C17.8394 11.1786 18.0727 11.2953 18.2013 11.5839C18.3298 11.8724 18.2572 12.1313 18.0552 12.3643C17.5227 12.9784 16.9894 13.5921 16.4674 14.2151C16.3876 14.3153 16.3414 14.4389 16.3355 14.5677C16.323 15.2102 16.3267 15.8528 16.3355 16.4949C16.3355 16.5644 16.3739 16.6672 16.4261 16.6964C16.8338 16.9256 17.0203 17.2715 16.9982 17.7404C16.9965 17.797 16.9977 17.8537 17.0019 17.9102C17.0074 17.929 17.0154 17.947 17.0257 17.9636ZM13.6564 13.2351H11.6818V15.2446H13.6564V13.2351ZM11.6555 17.9581V15.9453H9.68121V17.9581H11.6555ZM15.6486 15.251V13.2347H14.3471V15.251H15.6486ZM12.3469 15.9419V17.9522H13.6552V15.9419H12.3469ZM14.9914 17.9628C14.996 17.917 14.9984 17.8709 14.9985 17.8249C14.9659 17.3211 15.1303 16.9264 15.5952 16.693C15.614 16.6803 15.6298 16.6636 15.6414 16.6439C15.653 16.6242 15.6602 16.6021 15.6624 16.5793C15.6691 16.3697 15.6653 16.16 15.6653 15.9461H14.3466V17.9628H14.9914ZM16.3309 13.3302L17.5899 11.8648C16.994 11.8648 16.4478 11.8648 15.9019 11.8648C15.8678 11.8613 15.8336 11.8703 15.8055 11.8903C15.6232 12.0948 15.4454 12.3028 15.238 12.5421C15.523 12.5421 15.7517 12.5387 15.9804 12.5421C16.2091 12.5455 16.3234 12.6694 16.3305 12.8973C16.3338 13.0238 16.3305 13.1477 16.3305 13.3302H16.3309ZM16.3272 17.956C16.3272 17.7281 16.3985 17.4841 16.1669 17.3534C16.1129 17.3286 16.0542 17.3161 15.995 17.3168C15.9357 17.3174 15.8773 17.3312 15.8239 17.3572C15.5952 17.4917 15.6737 17.7336 15.6699 17.956H16.3272ZM10.3305 18.9826C10.33 18.9163 10.3101 18.8516 10.2735 18.7968C10.237 18.7419 10.1853 18.6992 10.1249 18.6741C10.0646 18.649 9.99826 18.6426 9.93435 18.6557C9.87043 18.6687 9.81173 18.7007 9.76563 18.7476C9.71953 18.7945 9.68807 18.8542 9.67521 18.9192C9.66235 18.9842 9.66865 19.0516 9.69334 19.113C9.71802 19.1744 9.75998 19.2269 9.81395 19.2642C9.86792 19.3014 9.93149 19.3215 9.99669 19.3221C10.084 19.3183 10.1667 19.2813 10.2286 19.2184C10.2904 19.1555 10.3267 19.0714 10.3305 18.9826ZM12.9958 18.9851C12.9961 18.9188 12.977 18.8538 12.9411 18.7985C12.9051 18.7431 12.8538 18.6998 12.7937 18.6739C12.7336 18.6481 12.6674 18.6409 12.6032 18.6533C12.5391 18.6656 12.4801 18.697 12.4334 18.7434C12.3868 18.7899 12.3547 18.8493 12.3412 18.9142C12.3277 18.9791 12.3333 19.0466 12.3574 19.1083C12.3815 19.17 12.423 19.223 12.4767 19.2607C12.5304 19.2985 12.5938 19.3192 12.6591 19.3204C12.7465 19.3182 12.8299 19.2824 12.8924 19.2202C12.9549 19.158 12.9918 19.074 12.9958 18.9851ZM16.0079 18.6456C15.9427 18.6436 15.8784 18.6612 15.823 18.6963C15.7677 18.7313 15.7237 18.7822 15.6967 18.8426C15.6697 18.9029 15.6608 18.97 15.6711 19.0355C15.6815 19.101 15.7107 19.1619 15.755 19.2106C15.7992 19.2593 15.8567 19.2935 15.9201 19.3091C15.9835 19.3247 16.05 19.3209 16.1112 19.2982C16.1725 19.2755 16.2258 19.2348 16.2644 19.1814C16.3031 19.128 16.3253 19.0641 16.3284 18.9979C16.3278 18.9092 16.2946 18.824 16.2353 18.759C16.176 18.694 16.0948 18.654 16.0079 18.6469V18.6456Z" fill="black" fill-opacity="0.75"/>
</g>
<defs>
<clipPath id="clip0_1897_194203">
<rect width="20" height="20" fill="white"/>
</clipPath>
</defs>
</svg>
