<svg width="43" height="40" viewBox="0 0 43 40" fill="none" xmlns="http://www.w3.org/2000/svg">
<g clip-path="url(#clip0_2504:51904)">
<path d="M9.87971e-05 25.3467C9.87971e-05 21.6007 9.87971e-05 17.8541 9.87971e-05 14.107C9.87971e-05 13.4015 0.156132 12.736 0.560761 12.1587C1.17784 11.2761 2.02853 10.7486 3.10931 10.7352C4.96055 10.705 6.80739 10.7263 8.65687 10.7246C8.99714 10.7246 9.02006 10.6996 9.02006 10.358C9.02006 7.69978 9.02006 5.04153 9.02006 2.38329C9.02006 1.68759 9.21312 1.06217 9.7253 0.583544C10.0975 0.217417 10.5957 0.0108346 11.1155 0.00705672H14.3772C19.9468 0.00705672 25.5155 0.0159531 31.0851 0.00705672C31.3828 0.00284176 31.6782 0.0590167 31.954 0.172247C32.2297 0.285478 32.4801 0.453456 32.6902 0.666212C32.9004 0.878968 33.066 1.13216 33.1774 1.41077C33.2887 1.68938 33.3435 1.98773 33.3384 2.28809C33.3225 6.66335 33.3322 11.0395 33.3313 15.4156C33.3313 15.7715 33.3542 15.7857 33.7095 15.7964C35.1702 15.84 36.3347 16.8008 36.7429 18.1931C36.8283 18.507 36.8672 18.832 36.8584 19.1575C36.8513 20.3718 36.8584 21.5862 36.8584 22.8005C36.8584 23.1626 36.8707 23.1662 37.233 23.1662C38.3344 23.1662 39.4351 23.1677 40.5353 23.1706C41.3816 23.1706 42.026 23.6235 42.2728 24.4321C42.3857 24.7962 42.3857 25.1864 42.2728 25.5504C42.041 26.2506 41.7342 26.924 41.4874 27.6188C41.1929 28.4453 40.8421 29.2486 40.5362 30.0698C40.1174 31.1952 39.6467 32.301 39.205 33.4175C38.8718 34.2591 38.5606 35.1078 38.2204 35.9485C37.9189 36.6914 37.6853 37.4671 37.3 38.1726C36.8815 38.9559 36.1759 39.5428 35.3342 39.8078C34.9175 39.943 34.4799 40.0009 34.0427 39.9786C33.6266 39.9608 33.2079 39.9991 32.7909 40.0008C32.0725 40.0008 31.3531 39.9724 30.6355 39.9804C28.5525 40.0035 26.4694 40.0017 24.3863 40.0008C23.9393 40.0008 23.4924 39.9715 23.0463 39.975C16.2373 40.04 9.42822 39.9884 2.62005 40C1.9968 40 1.41057 39.8585 0.979495 39.3443C0.85816 39.1971 0.761934 39.0305 0.694756 38.8514C0.575747 38.5516 0.416188 38.2678 0.281312 37.9734C0.092499 37.5598 -0.00352345 37.1093 9.87971e-05 36.654C9.87971e-05 32.8849 9.87971e-05 29.1158 9.87971e-05 25.3467ZM16.8808 1.37799C16.8797 1.36486 16.8814 1.35163 16.886 1.33927C16.8906 1.32691 16.8978 1.31573 16.9071 1.30654C16.9165 1.29734 16.9278 1.29036 16.9402 1.2861C16.9525 1.28184 16.9657 1.28041 16.9787 1.28191C17.6028 1.27213 18.2269 1.30949 18.8466 1.15736C19.0891 1.09776 19.3579 1.14758 19.6145 1.14669C19.6665 1.14669 19.722 1.14669 19.7352 1.07907C19.7436 1.05017 19.7406 1.01911 19.7268 0.992408C19.713 0.965705 19.6895 0.945433 19.6612 0.935841C19.5651 0.900363 19.4638 0.881125 19.3615 0.878904C18.9207 0.854884 18.4887 0.930503 18.0533 0.967868C17.2925 1.02392 16.5352 0.89047 15.7797 0.89047C15.6158 0.89047 15.5047 0.831753 15.5003 0.684963C15.495 0.507035 15.6599 0.531055 15.7806 0.531055C16.4735 0.531055 17.1673 0.54262 17.8602 0.525717C18.3891 0.513262 18.918 0.396719 19.454 0.436753C19.5201 0.442091 19.5801 0.41896 19.5581 0.337113C19.5175 0.189433 19.6224 0.217901 19.6956 0.217901C20.1214 0.217901 20.5471 0.217901 20.972 0.217901C21.039 0.217901 21.1149 0.242811 21.188 0.170751C21.0999 0.105807 21.0117 0.131606 20.9236 0.131606C17.6874 0.131606 14.4521 0.136944 11.216 0.1236C10.7377 0.112637 10.2717 0.277704 9.90514 0.587992C9.43527 0.98744 9.13731 1.52567 9.13555 2.16621C9.12673 4.88407 9.13555 7.60103 9.13555 10.3189C9.13555 10.8331 9.13555 10.8331 8.63836 10.8331C6.88408 10.8331 5.13069 10.8438 3.3773 10.8286C2.36352 10.8197 1.53311 11.1845 0.869302 11.9523C0.384014 12.4966 0.115801 13.2031 0.116463 13.9353C0.133212 21.604 0.0529915 29.2727 0.150843 36.9414C0.161334 37.3038 0.245341 37.6601 0.397675 37.9885C0.527263 38.2847 0.690348 38.5632 0.816409 38.8639C1.06412 39.4537 1.52164 39.8345 2.16517 39.8425C5.83152 39.8638 9.49874 39.8327 13.166 39.8879C13.5362 39.8932 13.9056 39.8772 14.2776 39.8879C16.6243 39.9341 18.9701 39.8603 21.3167 39.8532C21.3384 39.8549 21.3603 39.8549 21.382 39.8532C21.4208 39.8478 21.4772 39.8665 21.4701 39.7936C21.0875 39.6948 20.7067 39.6263 20.3082 39.7135C20.1503 39.752 19.9851 39.7489 19.8287 39.7046C19.5898 39.6245 19.3526 39.6343 19.112 39.6334C18.4605 39.629 17.8108 39.7108 17.1585 39.6761C16.8817 39.661 16.6181 39.5489 16.3325 39.5409C16.7503 39.5347 17.14 39.3808 17.5552 39.363C17.416 39.3343 17.2741 39.3209 17.132 39.3229C17.0218 39.3176 16.8896 39.3016 16.8914 39.1566C16.8918 39.1281 16.8986 39.1001 16.9112 39.0746C16.9237 39.0491 16.9418 39.0267 16.964 39.0092C16.9862 38.9916 17.0121 38.9793 17.0396 38.9731C17.0671 38.9669 17.0957 38.9669 17.1232 38.9733C17.4573 39.0178 17.7659 38.8354 18.0991 38.8772C18.1687 38.8861 18.2684 38.8639 18.2692 38.7767C18.2692 38.661 18.1608 38.7064 18.0982 38.7046C17.1285 38.6851 16.1641 38.6771 15.1979 38.6699C11.0159 38.6432 6.83383 38.6584 2.6509 38.6593C2.49754 38.6625 2.34431 38.6479 2.19426 38.6157C2.01267 38.5721 1.93862 38.4618 1.91658 38.2758C1.8822 37.9787 1.98975 37.7162 2.09289 37.4556C2.33443 36.8239 2.59977 36.2021 2.84661 35.5722C3.23978 34.5651 3.62325 33.5536 4.0173 32.5474C4.33994 31.721 4.68992 30.9052 4.99493 30.0716C5.20738 29.4933 5.44011 28.9221 5.65873 28.3466C5.9232 27.6437 6.21587 26.9507 6.48562 26.2497C6.65047 25.8209 6.82502 25.4027 7.18381 25.0931C7.61312 24.7266 8.08298 24.4784 8.66833 24.4802C10.8722 24.4873 13.0857 24.4802 15.294 24.4802C17.4138 24.4802 19.5342 24.4802 21.6552 24.4802C21.7205 24.4802 21.8316 24.5193 21.8368 24.4179C21.8421 24.3165 21.7258 24.3601 21.6605 24.3503C21.6168 24.3472 21.5729 24.3472 21.5292 24.3503H16.3669C16.2928 24.3503 16.2364 24.3209 16.2258 24.24C16.2135 24.1421 16.2849 24.1039 16.358 24.0941C16.4603 24.085 16.563 24.0817 16.6657 24.0843C16.7309 24.0843 16.8085 24.1003 16.8491 24.038C16.9425 23.8939 17.0827 23.9055 17.2228 23.9064C17.3321 23.9064 17.4423 23.9064 17.5525 23.9064C17.5984 23.9064 17.646 23.8859 17.6495 23.8352C17.653 23.7845 17.5931 23.7827 17.5534 23.772C17.2722 23.6973 16.9787 23.7071 16.6921 23.6599C16.3683 23.5982 16.0382 23.577 15.7092 23.5968C15.6678 23.5968 15.6017 23.6226 15.5893 23.5309C15.7656 23.4847 15.942 23.5434 16.1086 23.5025C16.7574 23.3441 17.4212 23.4651 18.0744 23.3824C18.2966 23.3539 18.5152 23.466 18.7444 23.4713C19.484 23.4927 20.2139 23.3121 20.9544 23.3726C21.0036 23.3772 21.053 23.3674 21.0968 23.3444C21.1406 23.3213 21.1769 23.286 21.2012 23.2427H20.9068C18.9674 23.2427 17.0304 23.2427 15.0957 23.2427C15.0128 23.2427 14.8956 23.3014 14.855 23.1591C14.8991 23.1546 14.9432 23.1457 14.9864 23.1457H18.9921H31.6273C31.9561 23.1457 31.9649 23.1368 31.9658 22.8139V21.3317C31.9658 15.0011 31.9658 8.67067 31.9658 2.34058C31.9658 1.72228 31.6634 1.41358 31.0543 1.4118C27.276 1.40023 23.4986 1.4287 19.7211 1.38867C18.777 1.37799 17.8267 1.38066 16.8808 1.37799ZM24.4621 24.6207C19.194 24.6207 13.9256 24.6207 8.65687 24.6207C7.80882 24.6207 7.25169 25.0718 6.85323 25.7497C6.54998 26.2675 6.39835 26.8609 6.17356 27.4187C5.92584 28.0316 5.72221 28.6642 5.45422 29.2673C5.15361 29.9426 4.92529 30.6463 4.62556 31.3233C4.38049 31.8802 4.18479 32.4585 3.96264 33.0261C3.76988 33.526 3.57594 34.0254 3.38082 34.5242C3.12694 35.171 2.87041 35.8169 2.61741 36.4645C2.41818 36.977 2.20043 37.4832 2.04087 38.0107C1.97211 38.2349 2.06027 38.395 2.27184 38.4947C2.39613 38.5403 2.52915 38.5564 2.6606 38.5418C13.1686 38.5418 23.6766 38.5433 34.1846 38.5463C35.0891 38.5463 35.7088 38.0899 36.1073 37.323C36.3594 36.8364 36.5322 36.3071 36.7341 35.7946C37.2083 34.5918 37.6803 33.3881 38.1498 32.1836C38.476 31.3464 38.7757 30.4977 39.1239 29.6703C39.4589 28.8697 39.7578 28.0574 40.0857 27.2559C40.3513 26.61 40.6067 25.9576 40.8518 25.2986C41.0184 24.8538 40.8667 24.6234 40.4004 24.6234C35.087 24.6204 29.774 24.6196 24.4612 24.6207H24.4621ZM33.304 20.2063C33.3269 20.9999 33.2722 21.9687 33.3278 22.9375C33.3384 23.1306 33.3957 23.1982 33.5861 23.1893C33.8717 23.1769 34.1582 23.1893 34.4438 23.1893C34.6783 23.1893 34.9128 23.1893 35.1491 23.1893C35.3254 23.1893 35.4514 23.1439 35.4532 22.9135C35.4532 22.7667 35.4329 22.6217 35.4338 22.474C35.4391 21.3175 35.4338 20.1663 35.4338 19.0116C35.4338 18.7731 35.4267 18.5214 35.3174 18.3239C34.9392 17.6397 34.3962 17.194 33.5649 17.2154C33.3657 17.2207 33.296 17.2785 33.3005 17.4823C33.3084 18.3274 33.3031 19.1806 33.3031 20.2063H33.304ZM23.2323 38.718H20.3444C21.301 38.872 22.2757 38.872 23.2323 38.718ZM21.8465 39.8211H25.3472V39.7553C24.1791 39.7873 23.0084 39.669 21.8465 39.8211ZM25.3472 0.192992V0.14851H21.7125V0.192992H25.3472ZM19.0415 23.8948C19.2178 23.8948 19.3941 23.8948 19.5704 23.8948C19.6109 23.8948 19.6709 23.9072 19.6762 23.8476C19.6815 23.788 19.6215 23.7649 19.5704 23.7649C19.2119 23.7649 18.8528 23.7649 18.4931 23.7649C18.4473 23.7649 18.3971 23.7729 18.3962 23.8298C18.3953 23.8868 18.4473 23.8948 18.4923 23.8948H19.0415ZM23.1548 23.3165L23.1503 23.2516H22.2406V23.3165H23.1548ZM17.9669 23.7133C17.9351 23.8023 17.7791 23.7053 17.7906 23.8298C17.8029 23.925 17.9228 23.893 17.9986 23.8939C18.0744 23.8948 18.1749 23.9135 18.1749 23.8174C18.1749 23.7213 18.0383 23.7729 17.9633 23.7133H17.9669ZM25.393 38.7892C25.5393 38.8301 25.624 38.8425 25.7386 38.7785C25.6851 38.7496 25.625 38.7353 25.5644 38.7372C25.5037 38.7391 25.4446 38.757 25.393 38.7892ZM17.817 39.3763C17.9501 39.4012 18.0198 39.4235 18.1194 39.3496C18.0716 39.3249 18.018 39.3142 17.9645 39.3188C17.9111 39.3234 17.86 39.343 17.817 39.3754V39.3763Z" fill="#4F4F4F"/>
<path d="M14.1929 1.37927C13.2117 1.37927 12.2305 1.39529 11.2494 1.38372C10.8774 1.37927 10.6473 1.5572 10.471 1.85345C10.4348 1.91732 10.4162 1.98983 10.4172 2.06341C10.4172 2.26269 10.404 2.46197 10.3969 2.66124C10.3853 2.67215 10.376 2.68537 10.3697 2.70006C10.3633 2.71476 10.36 2.73062 10.36 2.74665C10.36 2.76268 10.3633 2.77854 10.3697 2.79324C10.376 2.80793 10.3853 2.82115 10.3969 2.83206C10.4013 2.92814 10.4093 3.02333 10.4093 3.11941C10.4093 9.62446 10.4093 16.1289 10.4093 22.6328C10.4093 23.1292 10.4093 23.1274 10.8906 23.1283C11.3014 23.1283 11.7113 23.1363 12.1248 23.1399C12.1931 23.1745 12.2686 23.1926 12.3451 23.1926C12.4217 23.1926 12.4971 23.1745 12.5655 23.1399C13.3289 23.1203 14.0915 23.1194 14.8575 23.1399C14.8981 23.2822 15.0153 23.2226 15.0982 23.2235C17.0376 23.2271 18.9747 23.2271 20.9093 23.2235H21.2038C21.1794 23.2668 21.1431 23.3021 21.0993 23.3252C21.0556 23.3482 21.0061 23.358 20.957 23.3534C20.2165 23.2929 19.4865 23.4735 18.7469 23.4521C18.516 23.4459 18.2991 23.3338 18.0769 23.3632C17.4237 23.4459 16.7599 23.3249 16.1111 23.4833C15.9445 23.5242 15.7647 23.4655 15.5919 23.5117C15.6042 23.6007 15.6703 23.5811 15.7118 23.5776C16.0407 23.5578 16.3709 23.579 16.6947 23.6407C16.9812 23.6879 17.2747 23.6781 17.556 23.7528C17.5956 23.7635 17.6556 23.7528 17.652 23.816C17.6485 23.8792 17.6009 23.8854 17.5551 23.8872C17.4449 23.8872 17.3347 23.8872 17.2254 23.8872C17.0852 23.8872 16.945 23.8747 16.8516 24.0188C16.811 24.0811 16.7335 24.0642 16.6682 24.0651C16.5656 24.0625 16.4629 24.0658 16.3606 24.0749C16.2874 24.0847 16.216 24.1229 16.2283 24.2208C16.2389 24.3017 16.2953 24.3302 16.3694 24.3311H21.5317C21.5754 24.328 21.6193 24.328 21.6631 24.3311C21.7283 24.3409 21.8394 24.292 21.8394 24.3987C21.8394 24.5055 21.723 24.461 21.6578 24.461C19.5374 24.461 17.417 24.461 15.2966 24.461C13.0883 24.461 10.8791 24.4654 8.67087 24.461C8.08552 24.461 7.61301 24.7074 7.18634 25.0739C6.82755 25.3809 6.65742 25.799 6.48816 26.2305C6.21841 26.9315 5.9275 27.6245 5.66127 28.3274C5.44265 28.903 5.20992 29.4741 4.99747 30.0524C4.69245 30.886 4.34248 31.7018 4.01984 32.5282C3.62578 33.5344 3.24231 34.5459 2.84914 35.553C2.60231 36.1829 2.33697 36.8047 2.09542 37.4364C1.99493 37.697 1.88738 37.9595 1.91911 38.2566C1.94115 38.4426 2.0152 38.5529 2.1968 38.5965C2.34685 38.6287 2.50007 38.6433 2.65344 38.6401C6.83637 38.6401 11.0184 38.6241 15.2005 38.6507C16.1702 38.6579 17.1346 38.6659 18.1007 38.6854C18.1633 38.6854 18.2771 38.6418 18.2718 38.7575C18.2718 38.8465 18.1713 38.8669 18.1016 38.858C17.7684 38.8162 17.4599 38.9986 17.1258 38.9541C17.0982 38.9477 17.0697 38.9477 17.0421 38.9539C17.0146 38.9601 16.9888 38.9724 16.9665 38.99C16.9443 39.0075 16.9263 39.0299 16.9137 39.0554C16.9011 39.0809 16.8944 39.1089 16.8939 39.1374C16.8939 39.2824 17.0244 39.2984 17.1346 39.3037C17.2766 39.3017 17.4185 39.3151 17.5577 39.3438C17.1425 39.3651 16.7529 39.5217 16.335 39.5217C16.6206 39.5297 16.8842 39.6418 17.161 39.6569C17.8134 39.6916 18.4631 39.6098 19.1145 39.6142C19.3552 39.6142 19.5923 39.6053 19.8312 39.6854C19.9877 39.7297 20.1528 39.7328 20.3108 39.6943C20.7092 39.6053 21.0901 39.6756 21.4727 39.7744C21.4727 39.8473 21.4206 39.8286 21.3845 39.834C21.3628 39.8358 21.341 39.8358 21.3193 39.834C18.9726 39.8411 16.6268 39.9149 14.2801 39.8687C13.9081 39.8615 13.5388 39.8776 13.1685 39.8687C9.50128 39.8135 5.83405 39.8446 2.16771 39.8233C1.52859 39.8188 1.06666 39.4381 0.818947 38.8447C0.690242 38.5618 0.528919 38.2833 0.397569 37.988C0.244134 37.6602 0.158927 37.3041 0.14721 36.9417C0.0493586 29.273 0.129579 21.6044 0.11283 13.9357C0.112168 13.2034 0.380381 12.497 0.865669 11.9526C1.52947 11.1822 2.36429 10.8201 3.37366 10.829C5.12706 10.8442 6.88045 10.8335 8.63472 10.8335C9.13191 10.8335 9.13191 10.8335 9.13191 10.3193C9.13191 7.60142 9.12662 4.88446 9.13191 2.1666C9.13191 1.52606 9.43164 0.987832 9.9015 0.588383C10.2675 0.276492 10.7335 0.109821 11.2124 0.119543C14.4485 0.132888 17.6838 0.125771 20.9199 0.12755C21.001 0.12755 21.0901 0.10175 21.1844 0.166694C21.1112 0.238755 21.0354 0.213845 20.9684 0.213845C20.5435 0.213845 20.1177 0.213845 19.6919 0.213845C19.6188 0.213845 19.5156 0.185377 19.5544 0.333057C19.5765 0.414904 19.5165 0.438034 19.4504 0.432696C18.9153 0.389994 18.3925 0.506537 17.8566 0.52166C17.1637 0.538564 16.4699 0.52166 15.777 0.526998C15.6562 0.526998 15.4914 0.499419 15.4967 0.680906C15.5002 0.826807 15.6113 0.889971 15.7796 0.889971C16.5395 0.889971 17.2968 1.02787 18.0576 0.96826C18.493 0.934453 18.9259 0.858834 19.3658 0.879296C19.4681 0.881517 19.5694 0.900754 19.6655 0.936233C19.6938 0.945824 19.7173 0.966097 19.7311 0.992799C19.7449 1.0195 19.7479 1.05056 19.7395 1.07946C19.7263 1.14708 19.6708 1.14708 19.6188 1.14708C19.3622 1.14708 19.0898 1.09815 18.8509 1.15775C18.2339 1.30988 17.6071 1.27252 16.9829 1.2823C16.97 1.2808 16.9568 1.28223 16.9445 1.28649C16.9321 1.29075 16.9208 1.29773 16.9114 1.30693C16.9021 1.31612 16.8949 1.3273 16.8903 1.33966C16.8857 1.35202 16.884 1.36525 16.8851 1.37838H15.427C15.4182 1.27252 15.3389 1.24227 15.2578 1.24049C14.9739 1.23248 14.6936 1.17288 14.4071 1.188C14.2696 1.19512 14.2052 1.24583 14.1929 1.37927ZM5.82259 24.7323C5.87174 24.7179 5.91423 24.6864 5.94248 24.6434C6.6724 23.7626 7.56188 23.2199 8.74403 23.2706C9.1134 23.2867 9.13368 23.2537 9.13368 22.8863V12.4464C9.13368 12.0727 9.09312 12.0327 8.71318 12.0327H3.45036C3.06424 12.0327 2.68782 12.0389 2.34931 12.288C2.0108 12.5371 1.61939 12.6741 1.50831 13.1439C1.45013 13.3859 1.34082 13.6181 1.33994 13.8716C1.33465 15.8688 1.35581 17.8661 1.29498 19.8633C1.27382 20.5439 1.32055 21.2227 1.3417 21.9015C1.35845 22.4273 1.28881 22.9486 1.2941 23.4735C1.30292 24.3302 1.2844 25.1878 1.3373 26.0445C1.36903 26.5614 1.3179 27.0774 1.29322 27.5934C1.27206 28.0382 1.33641 28.4777 1.34435 28.9207C1.35493 29.5284 1.28705 30.1307 1.29057 30.7374C1.29057 30.9892 1.34258 31.2347 1.3417 31.4874C1.33553 32.7898 1.3417 34.0931 1.3417 35.3964C1.3417 35.4552 1.3417 35.5148 1.3417 35.5744C1.3417 35.634 1.35581 35.6829 1.41752 35.6927C1.47922 35.7025 1.49685 35.6473 1.51801 35.5984C1.71724 35.1536 1.88121 34.6865 2.0584 34.2301C2.39515 33.3618 2.74953 32.4998 3.0757 31.627C3.2097 31.2712 3.40099 30.9322 3.44771 30.5452L3.46887 30.4705C3.49179 30.4536 3.52617 30.442 3.53499 30.4207C3.78799 29.8042 4.04187 29.1876 4.28694 28.5685C4.42887 28.2126 4.55141 27.8443 4.69157 27.4849C4.9243 26.8826 5.14645 26.2759 5.40298 25.6842C5.51846 25.4173 5.56959 25.106 5.79527 24.9094C5.88783 24.8275 5.82788 24.791 5.82259 24.7323Z" fill="#4F4F4F"/>
<path d="M23.2317 38.7178C22.2751 38.8718 21.3004 38.8718 20.3438 38.7178H23.2317Z" fill="#4F4F4F"/>
<path d="M21.8477 39.821C23.0131 39.6688 24.1802 39.7871 25.3474 39.7551V39.821H21.8477Z" fill="#4F4F4F"/>
<path d="M25.3455 0.19292H21.7109V0.148438H25.3447L25.3455 0.19292Z" fill="#4F4F4F"/>
<path d="M19.0407 23.8945H18.4906C18.4457 23.8945 18.3945 23.8856 18.3945 23.8296C18.3945 23.7735 18.4457 23.7646 18.4915 23.7646C18.8506 23.7646 19.2097 23.7646 19.5687 23.7646C19.6199 23.7646 19.6807 23.7789 19.6745 23.8474C19.6684 23.9159 19.6093 23.8936 19.5687 23.8945C19.3924 23.8945 19.2161 23.8945 19.0398 23.8945H19.0407Z" fill="#4F4F4F"/>
<path d="M23.1528 23.3169H22.2422V23.252H23.1484L23.1528 23.3169Z" fill="#4F4F4F"/>
<path d="M17.9613 23.7139C18.0362 23.7735 18.164 23.7237 18.1702 23.818C18.1764 23.9123 18.0662 23.8945 17.9939 23.8945C17.9216 23.8945 17.7982 23.9256 17.7858 23.8304C17.7735 23.7059 17.9295 23.8055 17.9613 23.7139Z" fill="#4F4F4F"/>
<path d="M25.3945 38.7894C25.4462 38.7573 25.5053 38.7393 25.5659 38.7375C25.6265 38.7356 25.6866 38.7498 25.7401 38.7787C25.6255 38.8419 25.5409 38.8294 25.3945 38.7894Z" fill="#4F4F4F"/>
<path d="M17.8164 39.3756C17.8593 39.343 17.9103 39.3232 17.9638 39.3185C18.0173 39.3138 18.071 39.3243 18.1188 39.3489C18.0192 39.4227 17.9495 39.4005 17.8164 39.3756Z" fill="#4F4F4F"/>
<path d="M21.2219 6.53796C23.6206 6.53796 26.0193 6.54419 28.418 6.53262C28.5238 6.52902 28.6291 6.55005 28.7256 6.59408C28.8221 6.6381 28.9072 6.70395 28.9745 6.78652C29.0417 6.86909 29.0892 6.96617 29.1133 7.07024C29.1375 7.17431 29.1375 7.28258 29.1135 7.38668C29.0474 7.72296 28.7812 7.93114 28.3933 7.93114C26.924 7.93114 25.4572 7.93114 23.9926 7.93114H13.98C13.6159 7.93114 13.3383 7.73987 13.2554 7.43561C13.2079 7.2861 13.2122 7.12477 13.2674 6.97802C13.3227 6.83126 13.4257 6.70779 13.5595 6.62781C13.7103 6.53885 13.8787 6.53885 14.0479 6.53885H21.2219V6.53796Z" fill="#4F4F4F"/>
<path d="M21.1988 16.5854H28.3737C28.9476 16.5854 29.2552 16.9884 29.0922 17.54C29.0601 17.6502 28.9975 17.749 28.9118 17.8246C28.8261 17.9002 28.7208 17.9496 28.6082 17.967C28.4339 18.0001 28.2566 18.0147 28.0793 18.0106H14.1509C13.8705 18.0106 13.5973 18.0017 13.3848 17.7624C13.2882 17.659 13.2257 17.528 13.2059 17.3873C13.1862 17.2466 13.2102 17.1032 13.2746 16.9768C13.325 16.8602 13.4081 16.761 13.5137 16.6914C13.6193 16.6219 13.7427 16.585 13.8688 16.5854C14.0962 16.58 14.3236 16.5854 14.5511 16.5854H21.197H21.1988ZM19.8333 16.8425C19.8016 16.8179 19.7651 16.8003 19.7262 16.7908C19.6874 16.7813 19.647 16.7801 19.6076 16.7873C17.8392 16.7873 16.0709 16.7873 14.3034 16.7873C14.0997 16.7873 13.8908 16.7758 13.6916 16.871C13.4923 16.9661 13.3742 17.2126 13.4483 17.4136C13.5699 17.7437 13.7127 17.8433 14.0989 17.8496C14.9337 17.8638 15.7676 17.8593 16.6024 17.886C18.4713 17.9465 20.3402 17.8309 22.2099 17.8496C22.5458 17.8496 22.8799 17.9305 23.2167 17.8931C23.4714 17.8647 23.7271 17.8451 23.9845 17.8246C23.9695 17.7882 23.9545 17.7686 23.9387 17.7677C23.4415 17.7375 22.9416 17.7357 22.4471 17.7375C21.9525 17.7392 21.4571 17.5391 20.9705 17.7597C20.9563 17.7633 20.9415 17.7633 20.9273 17.7597C20.4865 17.717 20.0325 17.8665 19.605 17.6378C19.548 17.6198 19.4874 17.6161 19.4287 17.6271C18.9984 17.6283 18.5685 17.652 18.1407 17.6983C17.67 17.7579 17.1878 17.5622 16.7179 17.5569C16.0224 17.5489 15.3374 17.4101 14.6428 17.4483C14.5837 17.4483 14.5255 17.4483 14.4665 17.4483C14.3175 17.4483 14.1447 17.491 14.1244 17.2526C14.1244 17.2081 14.068 17.1886 14.0213 17.1832C13.9746 17.1779 13.9093 17.1547 13.9428 17.0871C13.9496 17.0758 13.9589 17.0662 13.9698 17.0589C13.9808 17.0516 13.9933 17.0469 14.0063 17.0451C14.0193 17.0433 14.0325 17.0445 14.045 17.0485C14.0576 17.0526 14.069 17.0594 14.0786 17.0685C14.1572 17.1325 14.2517 17.1737 14.3519 17.1877C14.7855 17.2332 15.2231 17.2221 15.6539 17.1547C16.1467 17.0756 16.6615 17.1708 17.1587 17.0507C17.3191 17.0124 17.5342 17.1441 17.6215 16.8896C17.6215 16.8781 17.6629 16.8701 17.6814 16.8745C17.9124 16.9234 18.2051 16.7313 18.3682 17.0524C18.3796 17.0765 18.4316 17.0889 18.466 17.0898C18.6124 17.0898 18.7596 17.0898 18.9068 17.0898C18.9597 17.0898 19.0135 17.0898 19.0267 17.0186C19.0558 16.871 19.1695 16.8736 19.2815 16.8683C19.4578 16.8665 19.6314 16.9039 19.8333 16.8425Z" fill="#4F4F4F"/>
<path d="M21.2434 11.5535H28.3301C28.5646 11.5535 28.7771 11.5918 28.9534 11.7715C29.1605 11.9806 29.179 12.227 29.1068 12.4832C29.0345 12.7394 28.8423 12.8764 28.5919 12.9494C28.3865 13.009 28.1847 12.9538 27.981 12.9538H21.2901C19.0022 12.9538 16.7146 12.9538 14.4273 12.9538C14.2306 12.9676 14.0333 12.9676 13.8366 12.9538C13.6693 12.9314 13.5149 12.8508 13.4001 12.726C13.2852 12.6011 13.217 12.4398 13.2072 12.2697C13.2033 12.0947 13.2645 11.9246 13.3787 11.7928C13.4929 11.6611 13.6519 11.5773 13.8243 11.558C14.005 11.5402 14.1893 11.5491 14.3717 11.5491H21.2434V11.5535ZM25.8521 12.7884C25.7639 12.7181 25.6758 12.7457 25.6035 12.7457C24.7916 12.7457 23.9779 12.7652 23.1678 12.7314C22.6997 12.7119 22.236 12.6825 21.7688 12.7403C21.622 12.7493 21.4748 12.7493 21.328 12.7403C21.2319 12.7403 21.1376 12.7145 21.1297 12.6104C21.1217 12.5064 21.2108 12.485 21.298 12.4725C21.4541 12.4375 21.6153 12.4326 21.7732 12.4583C21.9964 12.4934 22.2217 12.5134 22.4476 12.5179C22.529 12.5251 22.6103 12.5027 22.6768 12.4548C22.6969 12.4452 22.7127 12.4284 22.721 12.4076C22.7294 12.3868 22.7296 12.3636 22.7217 12.3427C22.7067 12.2991 22.6671 12.2973 22.6336 12.2973C22.4432 12.2973 22.2519 12.2973 22.0623 12.3115C21.7282 12.34 21.3932 12.4085 21.0759 12.235C21.0074 12.2073 20.933 12.1978 20.8599 12.2074C20.4288 12.2074 19.9978 12.2181 19.5667 12.2448C19.1134 12.2695 18.6589 12.2582 18.2073 12.211C17.8441 12.1754 17.4774 12.1772 17.1125 12.1621C17.0828 12.1629 17.0531 12.1596 17.0243 12.1523C17.0172 12.1503 17.0106 12.147 17.0048 12.1424C16.999 12.1379 16.9942 12.1322 16.9906 12.1257C16.987 12.1193 16.9847 12.1122 16.9838 12.1048C16.9829 12.0975 16.9835 12.09 16.9855 12.0829C16.9865 12.0756 16.9891 12.0685 16.9929 12.0622C16.9968 12.0559 17.0019 12.0505 17.008 12.0464C17.014 12.0422 17.0209 12.0393 17.0281 12.0379C17.0353 12.0366 17.0427 12.0367 17.0499 12.0384C17.4025 12.1434 17.7472 12.0153 18.0963 12.0277C18.381 12.0384 18.6657 12.1238 18.9478 12.0624C19.2696 11.9913 19.5966 12.0099 19.9219 11.9601C20.4227 11.8827 20.9428 11.9388 21.4549 11.9023C21.7362 11.8818 22.0227 11.9281 22.3074 11.9397C22.5631 11.9503 22.8161 11.8987 23.0717 11.8881C23.479 11.8661 23.8873 11.8682 24.2944 11.8943C24.774 11.9308 25.2544 11.7866 25.7366 11.8943C25.7948 11.9096 25.8563 11.9068 25.9129 11.8863C26.1672 11.783 26.4465 11.7594 26.7142 11.8187C27.1356 11.8934 27.5447 11.776 27.9599 11.8062C28.0277 11.8115 28.1362 11.8222 28.1256 11.7226C28.1185 11.6416 28.0163 11.6754 27.9572 11.6772C26.2417 11.7066 24.5263 11.6274 22.8116 11.6318C22.4696 11.6318 22.1293 11.6452 21.7873 11.6425C19.1973 11.6212 16.6064 11.6309 14.0165 11.6309C13.9794 11.6309 13.9424 11.6309 13.9063 11.6309C13.6021 11.6612 13.3297 11.9219 13.3209 12.1923C13.3068 12.6033 13.5651 12.8729 13.9768 12.872C16.2644 12.872 18.5529 12.8951 20.8405 12.8302C21.1402 12.8213 21.4391 12.9191 21.737 12.8675C22.02 12.8311 22.3054 12.8186 22.5904 12.8302C23.5962 12.8302 24.6012 12.8302 25.6061 12.8302C25.6758 12.8302 25.7587 12.8569 25.8486 12.7884H25.8521Z" fill="#4F4F4F"/>
<path d="M14.1914 1.38024C14.2011 1.24591 14.2655 1.19609 14.4039 1.18897C14.6904 1.17385 14.9707 1.23345 15.2545 1.24146C15.3356 1.24146 15.415 1.27349 15.4238 1.37935L14.1914 1.38024Z" fill="#4F4F4F"/>
<path d="M12.5658 23.141C12.4974 23.1757 12.4219 23.1937 12.3454 23.1937C12.2689 23.1937 12.1934 23.1757 12.125 23.141C12.2712 23.1197 12.4196 23.1197 12.5658 23.141Z" fill="#4F4F4F"/>
<path d="M10.4002 2.83292C10.3885 2.82201 10.3793 2.8088 10.3729 2.7941C10.3666 2.77941 10.3633 2.76355 10.3633 2.74751C10.3633 2.73148 10.3666 2.71562 10.3729 2.70093C10.3793 2.68623 10.3885 2.67302 10.4002 2.66211C10.4209 2.71712 10.4209 2.77791 10.4002 2.83292Z" fill="#4F4F4F"/>
<path d="M5.82004 24.7329C5.9082 24.4046 6.18324 24.216 6.41509 24.0123C6.88378 23.5939 7.45848 23.3151 8.07503 23.2072C8.31539 23.1774 8.55789 23.1694 8.79966 23.1832C8.97597 23.1832 9.04914 23.1093 9.04826 22.9305C9.04385 22.3015 9.04826 21.6725 9.04826 21.0427C9.04826 18.1709 9.04826 15.2989 9.04826 12.4265C9.04826 12.1214 9.04826 12.1196 8.74236 12.1196C6.95988 12.1196 5.17651 12.1365 3.39403 12.1196C3.13275 12.1155 2.87331 12.1644 2.63111 12.2634C2.38891 12.3624 2.16888 12.5095 1.98406 12.6959C1.79924 12.8824 1.6534 13.1044 1.55519 13.3487C1.45698 13.5931 1.40839 13.8549 1.41232 14.1186C1.43083 19.8408 1.41937 25.5629 1.41937 31.2887C1.41937 32.5549 1.42113 33.8209 1.42466 35.0865C1.42466 35.1755 1.39998 35.2645 1.46345 35.3534C1.53161 35.2976 1.57912 35.2202 1.59832 35.1337C2.17956 33.6622 2.75873 32.1925 3.33585 30.7246C3.36141 30.6597 3.35877 30.5716 3.44781 30.5467C3.40108 30.9337 3.20979 31.2709 3.07579 31.6285C2.74962 32.5012 2.39524 33.3633 2.05849 34.2316C1.88218 34.688 1.71733 35.1515 1.5181 35.5999C1.49695 35.6488 1.48461 35.7057 1.41761 35.6942C1.35061 35.6826 1.34444 35.6292 1.34179 35.5758C1.33915 35.5225 1.34179 35.4566 1.34179 35.3979C1.34179 34.0946 1.34179 32.7913 1.34179 31.4888C1.34179 31.2362 1.29243 30.9906 1.29067 30.7389C1.29067 30.1321 1.35502 29.5298 1.34444 28.9222C1.33651 28.4774 1.27215 28.0397 1.29331 27.5949C1.31799 27.0789 1.36912 26.5629 1.33739 26.046C1.28449 25.1893 1.30301 24.3317 1.29419 23.475C1.2889 22.9501 1.35854 22.4287 1.34179 21.903C1.32064 21.2242 1.27392 20.5454 1.29507 19.8648C1.3559 17.8676 1.33474 15.8703 1.34003 13.8731C1.34003 13.6195 1.45022 13.3873 1.50841 13.1453C1.61948 12.6756 2.02058 12.5306 2.3494 12.2895C2.67822 12.0484 3.06433 12.0342 3.45045 12.0342H8.71327C9.09322 12.0342 9.13377 12.0742 9.13377 12.4479V22.8869C9.13377 23.2543 9.11349 23.2872 8.74413 23.2712C7.56198 23.2205 6.6725 23.7632 5.94258 24.6439C5.91366 24.6875 5.87016 24.7191 5.82004 24.7329Z" fill="#4F4F4F"/>
<path d="M3.46875 30.4714C3.59922 29.9465 3.83724 29.4634 4.03118 28.9635C4.44021 27.9119 4.866 26.8675 5.27327 25.815C5.4055 25.4707 5.51481 25.1193 5.73167 24.8151C5.75724 24.7795 5.77134 24.735 5.81983 24.7314C5.82512 24.7919 5.88506 24.8284 5.79074 24.9094C5.56506 25.106 5.51393 25.4191 5.39845 25.6842C5.14192 26.2759 4.91977 26.8826 4.68704 27.4849C4.54864 27.8407 4.42258 28.2099 4.28242 28.5685C4.03735 29.1912 3.78346 29.8042 3.53046 30.4207C3.52781 30.4429 3.49167 30.4545 3.46875 30.4714Z" fill="#4F4F4F"/>
<path d="M19.8347 16.8424C19.6328 16.9002 19.4591 16.8664 19.2881 16.8753C19.1762 16.8807 19.0624 16.8753 19.0333 17.0257C19.0201 17.0924 18.9663 17.0968 18.9135 17.0968C18.7671 17.0968 18.6199 17.0968 18.4727 17.0968C18.4383 17.0968 18.3845 17.0835 18.3748 17.0595C18.2117 16.7374 17.9191 16.9296 17.6881 16.8815C17.6696 16.8771 17.6317 16.8815 17.6282 16.8967C17.54 17.1511 17.3258 17.0194 17.1653 17.0577C16.6682 17.1778 16.1533 17.0826 15.6606 17.1618C15.2297 17.2291 14.7921 17.2402 14.3585 17.1947C14.2584 17.1808 14.1639 17.1395 14.0852 17.0755C14.0757 17.0664 14.0642 17.0596 14.0517 17.0556C14.0392 17.0515 14.0259 17.0504 14.0129 17.0522C13.9999 17.0539 13.9875 17.0586 13.9765 17.0659C13.9655 17.0732 13.9563 17.0828 13.9495 17.0942C13.916 17.1618 13.9715 17.1831 14.0279 17.1902C14.0843 17.1974 14.1275 17.2152 14.1311 17.2596C14.1513 17.4981 14.3241 17.4536 14.4731 17.4554C14.5322 17.4554 14.5904 17.4554 14.6494 17.4554C15.3441 17.4171 16.029 17.5559 16.7246 17.5639C17.1944 17.5692 17.6766 17.765 18.1474 17.7053C18.5752 17.659 19.0051 17.6353 19.4353 17.6342C19.4941 17.6231 19.5546 17.6268 19.6116 17.6449C20.0357 17.8735 20.4932 17.724 20.934 17.7667C20.9481 17.7703 20.963 17.7703 20.9771 17.7667C21.4638 17.5461 21.9636 17.7463 22.4537 17.7445C22.9439 17.7427 23.4481 17.7445 23.9453 17.7747C23.9612 17.7747 23.9762 17.7952 23.9912 17.8317C23.7337 17.8521 23.4781 17.8717 23.2233 17.9002C22.8866 17.9375 22.5525 17.8601 22.2166 17.8566C20.3468 17.8379 18.478 17.9536 16.6091 17.8931C15.7743 17.8664 14.9403 17.8708 14.1055 17.8566C13.7203 17.8504 13.5766 17.7507 13.4549 17.4207C13.3809 17.2196 13.5087 16.9678 13.6982 16.878C13.8878 16.7881 14.1064 16.7952 14.31 16.7944C16.0731 16.7881 17.8459 16.7944 19.6143 16.7944C19.6523 16.7869 19.6915 16.7873 19.7294 16.7956C19.7672 16.8038 19.8031 16.8198 19.8347 16.8424Z" fill="#4F4F4F"/>
<path d="M25.8516 12.7887C25.7635 12.8572 25.6753 12.8305 25.6022 12.8314C24.5972 12.8314 23.5922 12.8314 22.5864 12.8314C22.3014 12.8198 22.016 12.8323 21.7331 12.8687C21.4351 12.9203 21.1363 12.8225 20.8365 12.8314C18.5489 12.8963 16.2604 12.8696 13.9728 12.8732C13.5611 12.8732 13.3029 12.6063 13.317 12.1935C13.3258 11.9266 13.5982 11.6597 13.9023 11.6321C13.9384 11.6321 13.9755 11.6321 14.0125 11.6321C16.6025 11.6321 19.1933 11.6223 21.7833 11.6437C22.1253 11.6437 22.4656 11.6339 22.8077 11.633C24.5223 11.6286 26.2378 11.7077 27.9532 11.6784C28.0123 11.6784 28.1146 11.6428 28.1216 11.7238C28.1304 11.8234 28.0238 11.8127 27.9559 11.8074C27.5407 11.7771 27.1316 11.8963 26.7103 11.8198C26.4425 11.7606 26.1632 11.7841 25.9089 11.8874C25.8523 11.908 25.7909 11.9108 25.7326 11.8955C25.2504 11.7887 24.77 11.9328 24.2904 11.8955C23.8833 11.8694 23.4751 11.8673 23.0677 11.8892C22.8121 11.8999 22.5591 11.9515 22.3034 11.9408C22.0187 11.9293 21.7322 11.883 21.451 11.9035C20.9388 11.9399 20.4187 11.8839 19.918 11.9613C19.5927 12.0111 19.2656 11.9924 18.9439 12.0636C18.6618 12.125 18.377 12.0396 18.0923 12.0289C17.7397 12.0164 17.3959 12.1446 17.0459 12.0396C17.0387 12.0379 17.0313 12.0377 17.0241 12.0391C17.0169 12.0405 17.0101 12.0433 17.004 12.0475C16.998 12.0517 16.9928 12.0571 16.989 12.0634C16.9851 12.0697 16.9826 12.0767 16.9815 12.0841C16.9795 12.0912 16.9789 12.0986 16.9798 12.106C16.9807 12.1134 16.983 12.1205 16.9866 12.1269C16.9902 12.1334 16.995 12.139 17.0008 12.1436C17.0066 12.1481 17.0132 12.1515 17.0203 12.1535C17.0491 12.1608 17.0788 12.1641 17.1085 12.1632C17.4734 12.1784 17.8402 12.1766 18.2034 12.2122C18.6549 12.2594 19.1094 12.2707 19.5627 12.246C19.9938 12.2193 20.4249 12.2095 20.8559 12.2086C20.9291 12.199 21.0034 12.2085 21.0719 12.2362C21.3893 12.4097 21.7242 12.3412 22.0584 12.3127C22.2479 12.2967 22.4392 12.3011 22.6296 12.2985C22.6657 12.2985 22.7054 12.2985 22.7177 12.3438C22.7256 12.3648 22.7254 12.388 22.717 12.4088C22.7087 12.4296 22.6929 12.4464 22.6728 12.4559C22.6063 12.5039 22.525 12.5263 22.4436 12.5191C22.2177 12.5145 21.9924 12.4946 21.7692 12.4595C21.6114 12.4338 21.4501 12.4387 21.2941 12.4737C21.2059 12.4862 21.1177 12.5182 21.1257 12.6116C21.1336 12.705 21.2279 12.7424 21.324 12.7415C21.4708 12.7504 21.618 12.7504 21.7648 12.7415C22.232 12.6837 22.6957 12.713 23.1638 12.7326C23.9739 12.7664 24.7876 12.7433 25.5995 12.7468C25.6789 12.7459 25.7626 12.7228 25.8516 12.7887Z" fill="#4F4F4F"/>
</g>
<defs>
<clipPath id="clip0_2504:51904">
<rect width="42.3529" height="40" fill="white" transform="translate(0 0.000976562)"/>
</clipPath>
</defs>
</svg>
