<svg width="32" height="30" viewBox="0 0 32 30" fill="none" xmlns="http://www.w3.org/2000/svg">
<path d="M0.90625 15.0893C0.908006 22.5138 6.3069 28.8354 13.6397 29.999V19.451H9.81073V15.0893H13.6442V11.769C13.4728 10.1957 14.0102 8.62765 15.1106 7.4902C16.211 6.35275 17.7604 5.76375 19.3385 5.88297C20.4713 5.90126 21.6012 6.00214 22.7192 6.18481V9.89602H20.8115C20.1548 9.81 19.4945 10.0269 19.0167 10.4856C18.5389 10.9444 18.2953 11.5952 18.3545 12.255V15.0893H22.5366L21.868 19.4525H18.3545V29.999C26.2847 28.7458 31.8457 21.5032 31.0087 13.5183C30.1717 5.53338 23.2298 -0.398576 15.212 0.0198581C7.19427 0.438292 0.907525 7.06063 0.90625 15.0893Z" fill="#4968AD"/>
</svg>
