<svg width="30" height="30" viewBox="0 0 30 30" fill="none" xmlns="http://www.w3.org/2000/svg">
<path d="M12.656 22.5098H3.28125V23.4276H12.656V22.5098Z" fill="white"/>
<path d="M15.4608 22.5H14.543V25.3125H15.4608V22.5Z" fill="white"/>
<path d="M18.2733 22.5H17.3555V25.3125H18.2733V22.5Z" fill="white"/>
<path d="M21.0858 22.5H20.168V25.3125H21.0858V22.5Z" fill="white"/>
<path d="M23.8983 22.5H22.9805V25.3125H23.8983V22.5Z" fill="white"/>
<path d="M26.7108 22.5H25.793V25.3125H26.7108V22.5Z" fill="white"/>
<path d="M29.5214 28.1348V14.2574L22.9194 17.5584L21.9966 0.947266H17.3813L16.4334 16.1138L13.5321 17.5645L12.6137 5.16602H8.01668L7.065 16.1106L0.478535 19.4038V28.1347H0V29.0525H30V28.1347L29.5214 28.1348ZM18.2436 1.86508H21.1284L21.1815 2.82227H18.1838L18.2436 1.86508ZM18.1264 3.74014H21.2325L21.2857 4.69732H18.0666L18.1264 3.74014ZM18.0093 5.61508H21.3367L22.0251 18.0055L20.1465 18.9449V14.2574L17.3828 15.6392L18.0093 5.61508ZM8.8582 6.08383H11.7613L11.8322 7.04102H8.775L8.8582 6.08383ZM8.69514 7.95883H11.9002L11.9711 8.91602H8.61187L8.69514 7.95883ZM8.53207 9.83383H12.0391L12.6446 18.0082L10.7714 18.9449V14.2574L8.02822 15.629L8.53207 9.83383ZM3.29104 28.1348H1.39641V27.1776H3.29109V28.1348H3.29104ZM11.7285 28.1348H4.20891V24.8338H11.7285V28.1348ZM28.6035 28.1348H12.6464V27.1776H28.6035V28.1348ZM28.6035 26.2597H12.6464V23.916H3.29104V26.2597H1.39641V19.9711L9.85354 15.7425V20.43L19.2285 15.7425V20.43L28.6036 15.7425V26.2597H28.6035Z" fill="white"/>
</svg>
