<svg width="20" height="20" viewBox="0 0 20 20" fill="none" xmlns="http://www.w3.org/2000/svg">
<path d="M8.43734 15.0059H2.1875V15.6177H8.43734V15.0059Z" fill="black" fill-opacity="0.75"/>
<path d="M10.3072 15H9.69531V16.875H10.3072V15Z" fill="black" fill-opacity="0.75"/>
<path d="M12.1822 15H11.5703V16.875H12.1822V15Z" fill="black" fill-opacity="0.75"/>
<path d="M14.0572 15H13.4453V16.875H14.0572V15Z" fill="black" fill-opacity="0.75"/>
<path d="M15.9322 15H15.3203V16.875H15.9322V15Z" fill="black" fill-opacity="0.75"/>
<path d="M17.8072 15H17.1953V16.875H17.8072V15Z" fill="black" fill-opacity="0.75"/>
<path d="M19.6809 18.7559V9.50426L15.2796 11.7049L14.6644 0.630859H11.5875L10.9556 10.7419L9.02141 11.709L8.4091 3.44336H5.34445L4.71 10.7397L0.319023 12.9352V18.7558H0V19.3677H20V18.7558L19.6809 18.7559ZM12.1624 1.24273H14.0856L14.121 1.88086H12.1225L12.1624 1.24273ZM12.0843 2.49277H14.155L14.1905 3.1309H12.0444L12.0843 2.49277ZM12.0062 3.74273H14.2245L14.6834 12.003L13.431 12.6293V9.50426L11.5885 10.4255L12.0062 3.74273ZM5.90547 4.05523H7.8409L7.88816 4.69336H5.85L5.90547 4.05523ZM5.79676 5.30523H7.93344L7.9807 5.94336H5.74125L5.79676 5.30523ZM5.68805 6.55523H8.02605L8.42973 12.0048L7.18094 12.6293V9.50426L5.35215 10.4187L5.68805 6.55523ZM2.19402 18.7559H0.930938V18.1177H2.19406V18.7559H2.19402ZM7.81902 18.7559H2.80594V16.5552H7.81902V18.7559ZM19.069 18.7559H8.43094V18.1177H19.069V18.7559ZM19.069 17.5058H8.43094V15.9433H2.19402V17.5058H0.930938V13.3134L6.56902 10.4943V13.6193L12.819 10.4943V13.6193L19.0691 10.4943V17.5058H19.069Z" fill="black" fill-opacity="0.75"/>
</svg>
