<svg width="14" height="22" viewBox="0 0 14 22" fill="none" xmlns="http://www.w3.org/2000/svg">
<g clip-path="url(#clip0_1897_194414)">
<path d="M0.105469 9.07715C0.105469 6.27612 0.105469 3.47608 0.105469 0.677014C0.105469 0.388167 0.222465 0.171532 0.504601 0.0497054C0.904769 -0.120753 1.38777 0.169076 1.39967 0.586135C1.39967 0.760033 1.39967 0.93393 1.39967 1.10881C1.39967 1.23211 1.39967 1.23211 1.52651 1.23211H12.9176C13.1542 1.23211 13.3907 1.23211 13.6273 1.23211C13.8251 1.23211 13.8955 1.29941 13.8955 1.48952C13.8955 2.35508 13.8955 3.2208 13.8955 4.08668V10.3254C13.8955 10.3519 13.8955 10.3784 13.8955 10.405C13.8898 10.5553 13.8075 10.6329 13.6496 10.6334C13.1319 10.6334 12.6153 10.6334 12.0996 10.6334C8.56974 10.6334 5.03984 10.6334 1.50994 10.6334C1.4064 10.6334 1.39657 10.6707 1.39708 10.7518C1.39708 13.0115 1.39708 15.2711 1.39708 17.5308C1.39708 17.6738 1.35826 17.7421 1.25058 17.7764C1.21501 17.7866 1.17798 17.7914 1.14083 17.7907C0.904252 17.7907 0.667671 17.7907 0.431091 17.7907C0.168108 17.7936 0.105469 17.7342 0.105469 17.4886C0.105469 16.6672 0.105469 15.8461 0.105469 15.025V9.07715ZM4.42552 4.50178C3.44849 4.50178 2.47162 4.50178 1.49493 4.50178C1.4121 4.50178 1.39864 4.53223 1.39864 4.60002C1.40071 5.48621 1.40071 6.37224 1.39864 7.2581C1.39864 7.34161 1.42193 7.37059 1.51356 7.3701C2.23262 7.36716 2.95117 7.3701 3.66971 7.3701C3.92182 7.3701 4.17393 7.37354 4.42552 7.37501C4.42552 7.40744 4.41983 7.43986 4.41983 7.47326C4.41983 8.35028 4.41983 9.22747 4.41983 10.1048C4.41983 10.2301 4.41983 10.2306 4.55494 10.2306H7.28054C7.43118 10.2306 7.43222 10.2306 7.43222 10.0901C7.43222 9.21862 7.43222 8.34717 7.43222 7.47572C7.43222 7.39712 7.45137 7.36912 7.54041 7.36912C8.47224 7.37207 9.40769 7.36912 10.3411 7.37158C10.3716 7.37368 10.4021 7.37745 10.4322 7.38287C10.4388 7.41681 10.4431 7.4511 10.4451 7.48554C10.4451 8.3606 10.4451 9.23516 10.4451 10.1092C10.4451 10.2276 10.4488 10.2306 10.5694 10.2306C11.494 10.2306 12.4185 10.2306 13.3426 10.2306C13.4347 10.2306 13.4658 10.2094 13.4653 10.1171C13.4618 9.2368 13.4618 8.35634 13.4653 7.47572C13.4653 7.38779 13.4353 7.36814 13.3483 7.36863C12.4113 7.36863 11.4743 7.36863 10.5373 7.36863C10.5004 7.37076 10.4637 7.37536 10.4275 7.38238C10.4357 7.34231 10.441 7.30178 10.4436 7.26105C10.4436 6.37388 10.4436 5.48687 10.4436 4.60002C10.4411 4.56542 10.4366 4.53098 10.4301 4.49686C10.4488 4.49686 10.4674 4.50129 10.4855 4.50129C11.4499 4.50129 12.4144 4.50129 13.3788 4.50129C13.4658 4.50129 13.4637 4.45953 13.4637 4.40304C13.4637 3.51881 13.4637 2.63311 13.4637 1.74594C13.4637 1.65359 13.4327 1.63247 13.341 1.63296C12.4232 1.63591 11.5053 1.63296 10.588 1.63296C10.4431 1.63296 10.4425 1.63296 10.4425 1.7705C10.4425 2.64458 10.4425 3.51849 10.4425 4.39223C10.4408 4.42696 10.437 4.46156 10.4312 4.49588C10.3939 4.49588 10.3571 4.49932 10.3198 4.49981H7.42756C7.42756 3.57563 7.42877 2.65178 7.43118 1.72826C7.43118 1.64622 7.39184 1.63001 7.31678 1.63001C6.39323 1.63001 5.46917 1.63001 4.54563 1.63001C4.41879 1.63001 4.41776 1.63001 4.41776 1.75282C4.41776 2.63704 4.41776 3.52258 4.41776 4.40942C4.41931 4.44332 4.42345 4.47083 4.42552 4.50178Z" fill="white"/>
<path d="M7.42777 4.50198H10.3201C10.3573 4.50198 10.3941 4.50198 10.4314 4.49805H10.4288C10.4357 4.53229 10.4404 4.56691 10.4427 4.6017C10.4427 5.48887 10.4427 6.37588 10.4427 7.26272C10.4402 7.30346 10.4348 7.34399 10.4267 7.38406C10.3968 7.3782 10.3665 7.37426 10.3361 7.37227C9.40428 7.37227 8.46883 7.37227 7.53545 7.36981C7.44641 7.36981 7.42674 7.39781 7.42725 7.47641C7.42984 8.34786 7.42725 9.21931 7.42725 10.0908C7.42725 10.2303 7.42725 10.2313 7.27557 10.2313H4.55308C4.419 10.2313 4.41797 10.2313 4.41797 10.1055C4.41797 9.22816 4.41797 8.35097 4.41797 7.47395C4.41797 7.44153 4.42159 7.40911 4.42366 7.37571C4.47906 7.37325 4.53496 7.36883 4.59087 7.36883C5.50199 7.36883 6.41311 7.36883 7.32423 7.36883C7.40137 7.36883 7.43502 7.3536 7.43502 7.27058C7.4326 6.3464 7.4326 5.42255 7.43502 4.49903L7.42777 4.50198Z" fill="black" fill-opacity="0.5"/>
<path d="M4.42533 7.37129C4.17374 7.37129 3.92163 7.36637 3.66952 7.36637C2.95097 7.36637 2.23243 7.36637 1.51337 7.36637C1.42174 7.36637 1.39793 7.33788 1.39845 7.25437C1.40121 6.37015 1.40121 5.48412 1.39845 4.59629C1.39845 4.52801 1.41191 4.49805 1.49473 4.49805C2.47143 4.50099 3.44829 4.50099 4.42533 4.49805H4.42223C4.42223 4.96669 4.41912 5.43533 4.41912 5.90396C4.41912 6.3952 4.41912 6.883 4.42274 7.37227L4.42533 7.37129Z" fill="black" fill-opacity="0.5"/>
<path d="M10.4312 4.49573C10.4371 4.46142 10.4409 4.42681 10.4426 4.39208C10.4426 3.51801 10.4426 2.6441 10.4426 1.77036C10.4426 1.6333 10.4426 1.63281 10.5881 1.63281C11.5054 1.63281 12.4233 1.63281 13.3411 1.63281C13.4328 1.63281 13.4643 1.65344 13.4638 1.7458C13.4604 2.63002 13.4604 3.51572 13.4638 4.40289C13.4638 4.46037 13.4638 4.50114 13.3789 4.50114C12.4145 4.49819 11.45 4.50114 10.4856 4.50114C10.4675 4.50114 10.4488 4.49819 10.4297 4.49672L10.4312 4.49573Z" fill="black" fill-opacity="0.5"/>
<path d="M4.42418 4.50016C4.42418 4.47117 4.41797 4.4417 4.41797 4.41223C4.41797 3.528 4.41797 2.64247 4.41797 1.75562C4.41797 1.63379 4.41797 1.63281 4.54584 1.63281C5.46938 1.63281 6.39344 1.63281 7.31698 1.63281C7.39205 1.63281 7.43139 1.64804 7.43139 1.73106C7.42898 2.65524 7.42777 3.57909 7.42777 4.50261H7.43036H4.42107L4.42418 4.50016Z" fill="black" fill-opacity="0.5"/>
<path d="M10.4297 7.38094C10.4659 7.37392 10.5026 7.36932 10.5394 7.36719C11.4764 7.36719 12.4134 7.36719 13.3504 7.36719C13.4374 7.36719 13.4674 7.38635 13.4674 7.47428C13.464 8.3549 13.464 9.23536 13.4674 10.1157C13.4674 10.208 13.4369 10.2291 13.3448 10.2291C12.4207 10.2262 11.4961 10.2291 10.5715 10.2291C10.4509 10.2291 10.4473 10.2262 10.4473 10.1078C10.4473 9.23339 10.4473 8.35883 10.4473 7.4841C10.4453 7.44982 10.441 7.41569 10.4343 7.38192L10.4297 7.38094Z" fill="black" fill-opacity="0.5"/>
<path d="M4.42366 4.49805H7.43295C7.43295 5.42223 7.43295 6.34608 7.43295 7.2696C7.43295 7.35164 7.3993 7.36785 7.32216 7.36785C6.41104 7.36555 5.49992 7.36555 4.5888 7.36785C4.53289 7.36785 4.47698 7.37227 4.42159 7.37472C4.42159 6.88349 4.41797 6.39618 4.41797 5.90642C4.42056 5.43532 4.42263 4.96669 4.42366 4.49805Z" fill="white"/>
<path d="M1.39243 14.6262C1.39243 14.289 1.10433 14.0156 0.748947 14.0156C0.393564 14.0156 0.105469 14.289 0.105469 14.6262V21.3896C0.105469 21.7268 0.393564 22.0002 0.748947 22.0002C1.10433 22.0002 1.39243 21.7268 1.39243 21.3896V14.6262Z" fill="white"/>
</g>
<defs>
<clipPath id="clip0_1897_194414">
<rect width="13.791" height="22" fill="white" transform="translate(0.105469)"/>
</clipPath>
</defs>
</svg>
