<svg width="17" height="15" viewBox="0 0 17 15" fill="none" xmlns="http://www.w3.org/2000/svg">
<path d="M15 15H1.66667C0.746192 15 0 14.2538 0 13.3333V1.66667C0 0.746192 0.746192 0 1.66667 0H6.66667C6.88766 0 7.09959 0.0878755 7.25583 0.244167L8.67833 1.66667H15C15.9205 1.66667 16.6667 2.41286 16.6667 3.33333V13.3333C16.6667 14.2538 15.9205 15 15 15ZM1.66667 3.33333V13.3333H15V3.33333H1.66667ZM9.16667 11.6667H7.5V9.16667H5V7.5H7.5V5H9.16667V7.5H11.6667V9.16667H9.16667V11.6667Z" fill="white"/>
</svg>
