<svg width="31" height="30" viewBox="0 0 31 30" fill="none" xmlns="http://www.w3.org/2000/svg">
<path d="M30.2014 15.3324C30.2014 14.099 30.1013 13.199 29.8847 12.2656H15.8008V17.8325H24.0677C23.9011 19.2159 23.0011 21.2993 21.001 22.6993L20.9729 22.8857L25.426 26.3354L25.7345 26.3662C28.5679 23.7494 30.2014 19.8992 30.2014 15.3324Z" fill="#4285F4"/>
<path d="M15.8029 29.9987C19.853 29.9987 23.2531 28.6652 25.7367 26.3652L21.0031 22.6983C19.7364 23.5817 18.0363 24.1983 15.8029 24.1983C11.8361 24.1983 8.46935 21.5817 7.26919 17.9648L7.09327 17.9798L2.4629 21.5633L2.40234 21.7316C4.86909 26.6318 9.93597 29.9987 15.8029 29.9987Z" fill="#34A853"/>
<path d="M7.26765 17.9648C6.95098 17.0315 6.76771 16.0314 6.76771 14.998C6.76771 13.9646 6.95098 12.9646 7.25099 12.0312L7.2426 11.8325L2.5542 8.19141L2.40081 8.26437C1.38415 10.2978 0.800781 12.5813 0.800781 14.998C0.800781 17.4148 1.38415 19.6982 2.40081 21.7316L7.26765 17.9648Z" fill="#FBBC05"/>
<path d="M15.8029 5.8002C18.6197 5.8002 20.5197 7.01691 21.6031 8.03369L25.8366 3.90016C23.2366 1.4834 19.853 0 15.8029 0C9.93597 0 4.86909 3.36678 2.40234 8.26694L7.25252 12.0338C8.46935 8.41701 11.8361 5.8002 15.8029 5.8002Z" fill="#EB4335"/>
</svg>
