<svg width="15" height="16" viewBox="0 0 15 16" fill="none" xmlns="http://www.w3.org/2000/svg">
<path d="M7.50075 15.5007C3.36009 15.4962 0.00454723 12.1407 0 8V7.84998C0.0824568 3.72797 3.47629 0.445212 7.59876 0.499911C11.7212 0.554609 15.0268 3.92626 14.9998 8.04901C14.9729 12.1718 11.6236 15.4999 7.50075 15.5007ZM7.48875 14.0006H7.50075C10.8136 13.9973 13.497 11.3099 13.4953 7.997C13.4937 4.68413 10.8076 1.9994 7.49475 1.9994C4.18188 1.9994 1.49581 4.68413 1.49415 7.997C1.49249 11.3099 4.17588 13.9973 7.48875 14.0006ZM8.25082 12.5004H6.75067V11.0003H8.25082V12.5004ZM8.25082 10.2502H6.75067C6.72697 9.27338 7.23533 8.36063 8.07831 7.86649C8.57336 7.48695 9.0009 7.15992 9.0009 6.49985C9.0009 5.67134 8.32926 4.9997 7.50075 4.9997C6.67224 4.9997 6.0006 5.67134 6.0006 6.49985H4.50045V6.43234C4.51251 5.36044 5.09551 4.37639 6.02983 3.85088C6.96416 3.32538 8.10786 3.33824 9.03013 3.88464C9.9524 4.43103 10.5131 5.42795 10.501 6.49985C10.4473 7.30919 10.0132 8.0452 9.33093 8.4838C8.71415 8.87098 8.31438 9.52476 8.25082 10.2502Z" fill="black" fill-opacity="0.15"/>
</svg>
