<svg width="80" height="72" viewBox="0 0 80 72" fill="none" xmlns="http://www.w3.org/2000/svg">
<g filter="url(#filter0_d)">
<path d="M20 24.5859C20 17.9585 25.3726 12.5859 32 12.5859H52C58.6274 12.5859 64 17.9585 64 24.5859V42.4646C64 49.092 58.6274 54.4646 52 54.4646H32C25.3726 54.4646 20 49.092 20 42.4646V24.5859Z" fill="#333333"/>
<path d="M27 33.9646L40.9395 20.0251C41.5253 19.4395 42.4747 19.4395 43.0605 20.0251L57 33.9646H54V45.9646C54 46.793 53.3284 47.4646 52.5 47.4646H45V36.9646H39V47.4646H31.5C30.6716 47.4646 30 46.793 30 45.9646V33.9646H27Z" fill="white"/>
</g>
<defs>
<filter id="filter0_d" x="0" y="0.585938" width="84" height="81.8789" filterUnits="userSpaceOnUse" color-interpolation-filters="sRGB">
<feFlood flood-opacity="0" result="BackgroundImageFix"/>
<feColorMatrix in="SourceAlpha" type="matrix" values="0 0 0 0 0 0 0 0 0 0 0 0 0 0 0 0 0 0 127 0" result="hardAlpha"/>
<feOffset dy="8"/>
<feGaussianBlur stdDeviation="10"/>
<feComposite in2="hardAlpha" operator="out"/>
<feColorMatrix type="matrix" values="0 0 0 0 0 0 0 0 0 0 0 0 0 0 0 0 0 0 0.25 0"/>
<feBlend mode="normal" in2="BackgroundImageFix" result="effect1_dropShadow"/>
<feBlend mode="normal" in="SourceGraphic" in2="effect1_dropShadow" result="shape"/>
</filter>
</defs>
</svg>
