<svg width="18" height="18" viewBox="0 0 18 18" fill="none" xmlns="http://www.w3.org/2000/svg">
<path fill-rule="evenodd" clip-rule="evenodd" d="M3.16667 2.5C2.79848 2.5 2.5 2.79848 2.5 3.16667V14.8333C2.5 15.0821 2.63623 15.299 2.83815 15.4136L11.6256 6.62615C12.0161 6.23562 12.6493 6.23562 13.0398 6.62615L15.5 9.08636V3.16667C15.5 2.79848 15.2015 2.5 14.8333 2.5H3.16667ZM15.5 11.9148L12.3327 8.74747L5.58015 15.5H14.8333C15.2015 15.5 15.5 15.2015 15.5 14.8333V11.9148ZM0.5 3.16667C0.5 1.69391 1.69391 0.5 3.16667 0.5H14.8333C16.3061 0.5 17.5 1.69391 17.5 3.16667V14.8333C17.5 16.3061 16.3061 17.5 14.8333 17.5H3.16667C1.69391 17.5 0.5 16.3061 0.5 14.8333V3.16667ZM6.08398 5.83325C5.94591 5.83325 5.83398 5.94518 5.83398 6.08325C5.83398 6.22132 5.94591 6.33325 6.08398 6.33325C6.22206 6.33325 6.33398 6.22132 6.33398 6.08325C6.33398 5.94518 6.22206 5.83325 6.08398 5.83325ZM3.83398 6.08325C3.83398 4.84061 4.84134 3.83325 6.08398 3.83325C7.32662 3.83325 8.33398 4.84061 8.33398 6.08325C8.33398 7.32589 7.32662 8.33325 6.08398 8.33325C4.84134 8.33325 3.83398 7.32589 3.83398 6.08325Z" fill="#333333"/>
</svg>
