<svg width="49" height="40" viewBox="0 0 49 40" fill="none" xmlns="http://www.w3.org/2000/svg">
<g clip-path="url(#clip0_2504:51927)">
<path d="M15.7048 21.0682C15.5015 20.724 15.3374 20.4974 15.225 20.2495C15.0738 19.9302 15.0329 19.5697 15.1087 19.2246C15.1846 18.8795 15.3729 18.5693 15.6442 18.3429C16.4414 17.7276 16.4468 17.1426 16.1275 16.2133C14.9825 12.903 15.2589 9.66051 16.8963 6.5357C17.9149 4.56026 19.4719 2.91356 21.3873 1.78607C27.464 -1.81495 35.1209 0.218314 38.5383 6.44474C38.789 6.89633 39.0055 7.36614 39.1857 7.85019C39.2166 7.9844 39.2968 8.10208 39.4105 8.17976C39.5242 8.25743 39.663 8.28942 39.7993 8.26932C41.417 8.25327 43.0347 8.26041 44.6524 8.26932C46.741 8.26932 48.2339 9.76752 48.2339 11.8668C48.2339 17.8429 48.2339 23.8196 48.2339 29.797C48.2339 31.5805 46.6411 33.1857 44.8789 33.1857H32.7292C30.2803 33.1857 27.8332 33.1857 25.3843 33.1857C23.319 33.1857 21.8172 31.675 21.8172 29.6186C21.8172 28.0027 21.8172 26.3868 21.8172 24.7709C21.8172 24.6585 21.7993 24.5461 21.7851 24.3785C20.8219 25.1543 19.9123 25.1294 18.992 24.3606C19.0244 24.4224 19.0607 24.482 19.1008 24.539C19.1561 24.6086 19.2238 24.6674 19.2791 24.7352C19.8499 25.4201 19.8142 26.2905 19.1507 26.8862C14.4694 31.1108 9.78391 35.3397 5.09427 39.5727C4.95444 39.712 4.78801 39.8218 4.60488 39.8955C4.42174 39.9692 4.22565 40.0053 4.02828 40.0016C3.83091 39.998 3.63629 39.9546 3.45602 39.8742C3.27574 39.7937 3.1135 39.6779 2.97894 39.5334C2.1466 38.7154 1.31723 37.8872 0.490833 37.0489C-0.153041 36.3944 -0.163743 35.5935 0.460513 34.9086C3.32257 31.7327 6.18701 28.5633 9.05383 25.4005C10.3083 24.0152 11.5627 22.63 12.8172 21.2448C13.8552 20.0961 14.4135 20.0426 15.7048 21.0682ZM23.1281 23.7239V24.2322C23.1281 25.9682 23.1281 27.703 23.1281 29.4367C23.1281 30.9866 24.0021 31.8659 25.5484 31.8659H44.5472C46.0525 31.8659 46.9247 30.9884 46.9247 29.4902V11.9238C46.9247 10.4346 46.0418 9.55527 44.5401 9.55171C43.2345 9.55171 41.9271 9.55171 40.6162 9.55171H39.7743C40.5056 14.296 39.4337 18.4463 35.7077 21.614C31.9818 24.7816 27.7547 25.2917 23.1281 23.7239ZM37.8677 8.09097C37.791 7.88407 37.7589 7.77171 37.7107 7.66648C34.8427 1.37585 26.6685 -0.734109 21.1929 3.48402C17.4599 6.36626 16.0829 10.2098 17.0675 14.8311C17.2458 15.6854 17.5187 16.6146 18.0324 17.2852C19.0597 18.6372 20.2851 19.8393 21.4319 21.1003C21.5551 21.2125 21.6862 21.3157 21.8243 21.4088V20.8577C21.8243 17.8185 21.8243 14.7787 21.8243 11.7384C21.8181 10.8298 22.1704 9.95533 22.8048 9.30487C23.4393 8.65441 24.3046 8.28039 25.2131 8.26397C28.3273 8.20333 31.4414 8.14923 34.5555 8.10167C35.631 8.08562 36.7119 8.0981 37.8677 8.0981V8.09097ZM29.4545 9.59451C29.3717 9.57413 29.2877 9.55923 29.203 9.54992C27.8689 9.54992 26.5276 9.51604 25.1989 9.54992C23.9914 9.5856 23.121 10.5487 23.121 11.7758C23.121 15.1253 23.1317 18.4767 23.121 21.8262C23.1016 21.965 23.134 22.106 23.212 22.2225C23.2899 22.3389 23.408 22.4226 23.5437 22.4576C25.2635 23.1783 27.1426 23.4342 28.9925 23.1995C33.2981 22.6252 36.2535 20.2353 38.0068 16.3043C38.0684 16.1262 38.119 15.9446 38.1584 15.7603C37.6911 16.01 37.3201 16.1848 36.9705 16.3988C36.1768 16.8839 35.392 17.3887 34.6055 17.8863C34.4693 17.992 34.3009 18.0477 34.1285 18.0442C33.9561 18.0406 33.7901 17.9779 33.6584 17.8667C32.4473 16.9357 31.2327 16.0118 30.0235 15.079C29.8378 14.9425 29.6887 14.7624 29.5892 14.5546C29.4896 14.3468 29.4428 14.1177 29.4527 13.8876C29.4527 12.8495 29.4527 11.8115 29.4527 10.7734L29.4545 9.59451ZM18.4052 25.7269C18.2964 25.5931 18.2268 25.4843 18.1323 25.3933C16.9462 24.2073 15.7548 23.0301 14.5776 21.8369C14.3511 21.6068 14.2066 21.6247 14.0051 21.8547C13.4076 22.5361 12.7976 23.2031 12.1912 23.8737C8.65609 27.7797 5.12043 31.6816 1.58417 35.5793C1.31485 35.8753 1.31663 36.0715 1.60557 36.3462C2.27264 36.9794 2.91294 37.6393 3.56752 38.2903C4.05979 38.7808 4.05622 38.779 4.57525 38.3081C7.10199 36.018 9.63052 33.7291 12.1608 31.4414C14.1299 29.6578 16.0996 27.8778 18.0699 26.1014C18.1822 25.9962 18.2803 25.8642 18.4052 25.734V25.7269ZM38.3474 9.39119C37.6982 9.39119 37.0989 9.38049 36.4943 9.39119C34.7303 9.42329 32.9664 9.47323 31.2024 9.49642C30.8457 9.49642 30.7476 9.61948 30.7529 9.9655C30.7708 11.1944 30.7529 12.425 30.7708 13.6557C30.789 13.8623 30.886 14.0539 31.0419 14.1908C31.9693 14.9309 32.9236 15.6337 33.8546 16.3667C33.9412 16.4552 34.0575 16.5085 34.1811 16.516C34.3047 16.5236 34.4267 16.485 34.5234 16.4077C35.7024 15.6711 36.8778 14.9274 38.0906 14.2407C38.5704 13.9678 38.7077 13.6004 38.7595 13.1046C38.8825 11.8561 38.6221 10.645 38.3474 9.39119ZM21.3606 22.907L17.2583 18.5819C17.1964 18.6211 17.1368 18.664 17.08 18.7103C16.9016 18.9012 16.7054 19.0902 16.5271 19.29C16.4835 19.3312 16.4492 19.3811 16.4263 19.4365C16.4034 19.4919 16.3924 19.5515 16.3941 19.6114C16.3958 19.6714 16.4101 19.7302 16.436 19.7843C16.462 19.8383 16.4991 19.8862 16.5449 19.9249C16.7464 20.1425 16.9676 20.3423 17.1656 20.5617C17.4866 20.9184 17.4884 21.1823 17.1781 21.5408C17.0247 21.7192 16.857 21.8815 16.6965 22.0509L17.9753 23.3333C18.1109 23.2067 18.2411 23.089 18.3677 22.9677C18.86 22.4986 19.1133 22.504 19.6037 22.9926C19.7607 23.1496 19.9141 23.3101 20.0764 23.4617C20.1186 23.5095 20.1702 23.5481 20.2278 23.5753C20.2854 23.6026 20.348 23.6178 20.4117 23.6202C20.4754 23.6225 20.5389 23.6119 20.5984 23.5889C20.6579 23.566 20.7121 23.5312 20.7577 23.4867C20.9771 23.2959 21.1769 23.08 21.3552 22.907H21.3606Z" fill="#4F4F4F"/>
<path d="M42.7287 26.1465C43.3672 26.1465 44.0057 26.1376 44.6425 26.1465C45.3898 26.1572 45.8054 26.5585 45.8214 27.3022C45.838 28.0739 45.838 28.8468 45.8214 29.6209C45.8071 30.3557 45.3755 30.782 44.6478 30.7856C43.3398 30.7939 42.0319 30.7939 40.7239 30.7856C39.9998 30.7856 39.5557 30.3468 39.5432 29.6262C39.5325 28.8557 39.5325 28.0829 39.5432 27.3076C39.5557 26.5746 39.9802 26.1554 40.7204 26.1447C41.3945 26.1376 42.0616 26.1447 42.7287 26.1465ZM42.6841 29.4853C43.1888 29.4853 43.6936 29.4764 44.1966 29.4853C44.4463 29.4853 44.5372 29.3962 44.5301 29.1482C44.5158 28.7041 44.5105 28.2565 44.5301 27.8141C44.5461 27.4913 44.4035 27.4093 44.1092 27.4128C43.146 27.4253 42.1829 27.4235 41.2198 27.4128C40.9647 27.4128 40.8345 27.4824 40.8434 27.7695C40.8577 28.2297 40.8595 28.6899 40.8434 29.1482C40.8309 29.4372 40.9665 29.5049 41.218 29.4889C41.7067 29.4764 42.1954 29.4853 42.6841 29.4853Z" fill="#4F4F4F"/>
</g>
<defs>
<clipPath id="clip0_2504:51927">
<rect width="48.2353" height="40" fill="white" transform="translate(0 0.000976562)"/>
</clipPath>
</defs>
</svg>
