<svg width="20" height="20" viewBox="0 0 20 20" fill="none" xmlns="http://www.w3.org/2000/svg">
<path d="M19.9106 5.8572C19.864 4.79865 19.6927 4.07091 19.4475 3.44032C19.1945 2.77095 18.8052 2.17167 18.2952 1.67349C17.7969 1.16755 17.1936 0.774413 16.5319 0.525397C15.8975 0.280181 15.1734 0.109002 14.1147 0.06233C13.048 0.0117059 12.7094 0 10.004 0C7.29871 0 6.96008 0.0117059 5.89738 0.0583774C4.83863 0.105049 4.11075 0.276381 3.48019 0.521444C2.81054 0.774413 2.21115 1.1636 1.71287 1.67349C1.20683 2.17167 0.813775 2.7749 0.56456 3.43651C0.319297 4.07091 0.148085 4.7947 0.101404 5.85325C0.0507706 6.9197 0.0390625 7.25826 0.0390625 9.96308C0.0390625 12.6679 0.0507706 13.0065 0.0974511 14.069C0.144132 15.1275 0.315496 15.8552 0.560758 16.4858C0.813775 17.1552 1.20683 17.7545 1.71287 18.2527C2.21115 18.7586 2.8145 19.1517 3.47623 19.4008C4.11075 19.646 4.83468 19.8172 5.89358 19.8638C6.95613 19.9107 7.29491 19.9222 10.0002 19.9222C12.7056 19.9222 13.0442 19.9107 14.1069 19.8638C15.1657 19.8172 15.8935 19.646 16.5241 19.4008C17.8632 18.8831 18.922 17.8246 19.4397 16.4858C19.6848 15.8514 19.8562 15.1275 19.9029 14.069C19.9496 13.0065 19.9613 12.6679 19.9613 9.96308C19.9613 7.25826 19.9573 6.9197 19.9106 5.8572ZM18.1163 13.9911C18.0734 14.9641 17.9099 15.4895 17.7737 15.8397C17.4389 16.7076 16.7499 17.3965 15.8818 17.7312C15.5315 17.8674 15.0022 18.0309 14.0329 18.0736C12.9819 18.1204 12.6667 18.132 10.008 18.132C7.34934 18.132 7.03018 18.1204 5.98299 18.0736C5.00984 18.0309 4.48435 17.8674 4.13402 17.7312C3.70203 17.5716 3.30882 17.3186 2.98966 16.9878C2.65879 16.6648 2.40578 16.2756 2.24612 15.8437C2.10988 15.4934 1.94642 14.9641 1.9037 13.9951C1.85686 12.9443 1.84531 12.629 1.84531 9.97083C1.84531 7.31268 1.85686 6.99358 1.9037 5.94674C1.94642 4.97379 2.10988 4.44839 2.24612 4.09812C2.40578 3.66607 2.65879 3.27309 2.99361 2.95384C3.31658 2.62303 3.70583 2.37006 4.13797 2.21059C4.4883 2.07437 5.01775 1.91095 5.98694 1.86808C7.03794 1.82141 7.35329 1.8097 10.0118 1.8097C12.6744 1.8097 12.9896 1.82141 14.0368 1.86808C15.01 1.91095 15.5354 2.07437 15.8858 2.21059C16.3178 2.37006 16.711 2.62303 17.0301 2.95384C17.361 3.27689 17.614 3.66607 17.7737 4.09812C17.9099 4.44839 18.0734 4.97759 18.1163 5.94674C18.1629 6.99754 18.1746 7.31268 18.1746 9.97083C18.1746 12.629 18.1629 12.9403 18.1163 13.9911Z" fill="#333333"/>
<path d="M10.0054 4.84375C7.17953 4.84375 4.88672 7.13598 4.88672 9.9615C4.88672 12.787 7.17953 15.0793 10.0054 15.0793C12.8315 15.0793 15.1242 12.787 15.1242 9.9615C15.1242 7.13598 12.8315 4.84375 10.0054 4.84375ZM10.0054 13.2813C8.17214 13.2813 6.68506 11.7946 6.68506 9.9615C6.68506 8.12839 8.17214 6.64174 10.0054 6.64174C11.8389 6.64174 13.3258 8.12839 13.3258 9.9615C13.3258 11.7946 11.8389 13.2813 10.0054 13.2813Z" fill="#333333"/>
<path d="M16.519 4.64398C16.519 5.30377 15.984 5.83874 15.3239 5.83874C14.664 5.83874 14.1289 5.30377 14.1289 4.64398C14.1289 3.98404 14.664 3.44922 15.3239 3.44922C15.984 3.44922 16.519 3.98404 16.519 4.64398Z" fill="#333333"/>
</svg>
