<svg width="48" height="40" viewBox="0 0 48 40" fill="none" xmlns="http://www.w3.org/2000/svg">
<g clip-path="url(#clip0_2504:51932)">
<path d="M25.5122 20.8659V34.2043C25.5122 34.56 25.5122 34.561 25.8697 34.561H35.5C36.0748 34.561 36.2119 34.6942 36.2119 35.2623C36.2119 36.6311 36.2119 38.0004 36.2119 39.3705C36.2119 39.8524 36.0527 40.0067 35.5641 40.0067H12.3534C11.8087 40.0067 11.6835 39.8795 11.6835 39.3264C11.6835 37.9757 11.6835 36.6244 11.6835 35.2724C11.6835 34.6912 11.8067 34.571 12.3844 34.571H21.9887C22.3722 34.571 22.3722 34.571 22.3722 34.1872C22.3722 25.3117 22.3722 16.4362 22.3722 7.56064C22.3722 7.34021 22.3242 7.20394 22.1099 7.0857C21.0776 6.50556 20.4688 5.6128 20.2265 4.46653C20.1894 4.28518 20.1123 4.23808 19.9441 4.23808C17.1265 4.23808 14.3086 4.23808 11.4903 4.23808C11.4299 4.2317 11.3693 4.24677 11.3189 4.28067C11.2686 4.31456 11.2318 4.36511 11.2149 4.42345C11.0636 4.81536 10.7803 5.1421 10.4139 5.34727C10.1355 5.5136 10.1135 5.64787 10.2857 5.91339C12.815 9.75498 15.3435 13.5959 17.8715 17.4361C17.9179 17.5225 17.9887 17.5934 18.075 17.6398C18.1614 17.6863 18.2594 17.7064 18.3571 17.6977C18.8317 17.6836 18.9889 17.8339 18.9689 18.2988C18.8046 22.2216 16.9663 25.0923 13.4358 26.7826C8.8479 28.9819 3.23872 26.965 0.990838 22.4009C0.364698 21.1522 0.0263095 19.7789 0.000569702 18.382C-0.00944312 17.8229 0.108708 17.6806 0.659413 17.7027C0.972815 17.7167 1.15004 17.6025 1.32126 17.346C3.81445 13.5384 6.31766 9.73861 8.83088 5.94646C9.04215 5.62783 8.931 5.47452 8.66767 5.3092C8.44384 5.1781 8.25162 4.99925 8.1047 4.78538C7.95777 4.57151 7.85975 4.32787 7.81759 4.07179C7.77543 3.81571 7.79018 3.55348 7.86079 3.30375C7.93139 3.05402 8.05612 2.82292 8.2261 2.6269C9.05817 1.64997 10.6622 1.88243 11.1699 3.06176C11.1946 3.1478 11.249 3.22229 11.3235 3.272C11.3979 3.3217 11.4875 3.34342 11.5764 3.3333C14.3359 3.32528 17.0955 3.32528 19.855 3.3333C20.0873 3.3333 20.1944 3.28821 20.2555 3.0327C20.5729 1.62993 21.422 0.678052 22.7787 0.20111C24.7002 -0.481237 26.9541 0.684064 27.5358 2.64193C27.5687 2.72752 27.5945 2.81565 27.6129 2.90545C27.675 3.42548 27.7441 3.32528 28.1366 3.32628C30.8541 3.32628 33.5716 3.32628 36.29 3.32628C36.5103 3.32628 36.6245 3.27217 36.7166 3.05174C37.012 2.35035 37.7409 1.94956 38.5189 2.0197C38.8728 2.06099 39.2062 2.20772 39.4758 2.44087C39.7453 2.67402 39.9387 2.98284 40.0308 3.32728C40.2131 4.11985 39.9167 4.86933 39.2568 5.28214C39.2078 5.31321 39.1567 5.33625 39.1066 5.37132C38.9064 5.52262 38.8844 5.67191 39.0225 5.88233C41.1412 9.09668 43.2596 12.311 45.3777 15.5254C45.8002 16.1656 46.2268 16.8019 46.6393 17.4482C46.6809 17.528 46.745 17.5939 46.8237 17.6375C46.9024 17.6812 46.9922 17.7007 47.0819 17.6937C47.8168 17.6846 47.9089 17.7938 47.8829 18.5353C47.7657 22.419 45.1053 25.963 41.4086 27.1624C36.7717 28.6653 31.8964 26.5822 29.7997 22.1865C29.219 20.9615 28.9148 19.6236 28.9086 18.2678C28.9086 17.872 29.0638 17.6756 29.4333 17.6997C29.7547 17.7197 29.9189 17.5864 30.0871 17.3289C32.4942 13.655 34.9079 9.9861 37.3284 6.3222L37.6187 5.88534C37.7729 5.65488 37.7599 5.5156 37.5186 5.36932C37.1231 5.14735 36.8145 4.79763 36.6435 4.37736C36.6144 4.30421 36.4603 4.24409 36.3621 4.24109C35.8124 4.22906 35.2607 4.23508 34.712 4.23508C32.4862 4.23508 30.2593 4.24009 28.0335 4.23508C27.7591 4.23508 27.675 4.32626 27.6169 4.58978C27.5135 5.11135 27.2962 5.6036 26.9805 6.03128C26.6647 6.45896 26.2584 6.8115 25.7906 7.06366C25.6979 7.10492 25.6206 7.17441 25.5698 7.26221C25.5189 7.35001 25.497 7.45165 25.5072 7.55263C25.5139 11.9907 25.5156 16.4285 25.5122 20.8659ZM9.49172 18.6275H3.5351C2.76811 18.6275 2.00113 18.6365 1.23215 18.6275C0.993842 18.6275 0.913739 18.7016 0.957795 18.9331C1.05292 19.4401 1.09297 19.9621 1.24116 20.4531C2.18136 23.5733 4.22698 25.6193 7.369 26.456C9.96633 27.1473 12.4055 26.6453 14.5692 25.0412C16.5798 23.5512 17.7143 21.5272 17.9986 19.0353C18.0447 18.6345 18.0327 18.6345 17.6372 18.6345L9.49172 18.6275ZM38.3817 18.6275H30.1812C29.8538 18.6275 29.8418 18.6455 29.8808 18.9692C29.9886 20.0143 30.2809 21.0321 30.7439 21.9751C32.5793 25.7005 36.9699 27.5922 40.92 26.3528C42.5376 25.8505 43.9712 24.882 45.0416 23.5685C46.112 22.2551 46.7715 20.6549 46.9377 18.9682C46.9707 18.6305 46.9637 18.6235 46.6113 18.6235L38.3817 18.6275ZM9.55981 6.52259L2.22041 17.6696H16.9022C14.4431 13.9352 12.016 10.251 9.55981 6.52259ZM45.668 17.6766L38.3226 6.52359L30.9772 17.6766H45.668ZM23.9472 39.0659C27.6139 39.0659 31.281 39.0675 34.9483 39.0709C35.1886 39.0709 35.2827 39.0228 35.2777 38.7572C35.2617 37.7733 35.2647 36.7894 35.2777 35.8054C35.2777 35.5679 35.2147 35.4918 34.9703 35.4928C33.2531 35.5028 31.5359 35.4978 29.8197 35.4978H12.9982C12.6047 35.4978 12.6037 35.4978 12.6037 35.8726C12.6037 36.8314 12.6127 37.7903 12.6037 38.7492C12.6037 39.0057 12.6828 39.0709 12.9321 39.0709C16.6008 39.0629 20.2725 39.0612 23.9472 39.0659ZM23.2984 21.0142V34.1271C23.2984 34.2023 23.2984 34.2774 23.2984 34.3526C23.2874 34.5028 23.3575 34.564 23.5047 34.561C23.738 34.561 23.9713 34.561 24.2056 34.561C24.58 34.561 24.581 34.561 24.581 34.1972V7.89631C24.5934 7.82233 24.5903 7.7466 24.572 7.67387C24.5551 7.63917 24.5309 7.60856 24.5009 7.58417C24.471 7.55977 24.4362 7.54218 24.3988 7.53259C24.0984 7.51856 23.785 7.51756 23.4786 7.53259C23.4411 7.54253 23.4062 7.56085 23.3768 7.58619C23.3473 7.61152 23.3239 7.64321 23.3084 7.67888C23.2902 7.76011 23.2871 7.84402 23.2994 7.92636L23.2984 21.0142ZM23.9693 1.09488C23.4374 1.08978 22.916 1.24248 22.4708 1.53371C22.0256 1.82494 21.6766 2.24164 21.4679 2.7312C21.2592 3.22075 21.2001 3.76121 21.2981 4.28435C21.3961 4.80748 21.6468 5.28982 22.0186 5.67049C22.3903 6.05115 22.8664 6.31306 23.3868 6.42315C23.9072 6.53323 24.4485 6.48657 24.9423 6.28904C25.4362 6.0915 25.8606 5.75197 26.1618 5.31329C26.463 4.87461 26.6275 4.35646 26.6347 3.82427C26.6404 3.46948 26.5758 3.11708 26.4446 2.78742C26.3134 2.45776 26.1183 2.15737 25.8705 1.9036C25.6227 1.64983 25.3271 1.4477 25.0007 1.30889C24.6744 1.17008 24.3238 1.09734 23.9693 1.09488ZM38.3357 2.95755C38.2252 2.95516 38.1154 2.97462 38.0125 3.0148C37.9096 3.05499 37.8156 3.11512 37.736 3.19173C37.6563 3.26835 37.5926 3.35995 37.5484 3.46127C37.5043 3.5626 37.4805 3.67165 37.4786 3.78218C37.4778 4.00514 37.5655 4.21928 37.7225 4.3775C37.8795 4.53572 38.0928 4.62505 38.3156 4.62585C38.5384 4.62665 38.7524 4.53884 38.9105 4.38175C39.0686 4.22466 39.1579 4.01115 39.1587 3.78819C39.1582 3.56926 39.0715 3.35934 38.9175 3.20388C38.7635 3.04842 38.5544 2.95992 38.3357 2.95755ZM9.56281 2.95755C9.34416 2.95542 9.13361 3.04022 8.9774 3.19334C8.8212 3.34646 8.73213 3.55537 8.72975 3.77417C8.72617 3.94001 8.77205 4.10316 8.86154 4.24279C8.95102 4.38242 9.08006 4.4922 9.23217 4.55812C9.38429 4.62404 9.55258 4.6431 9.71557 4.61288C9.87856 4.58266 10.0289 4.50453 10.1473 4.38845C10.2657 4.27237 10.3469 4.12361 10.3804 3.96117C10.414 3.79872 10.3984 3.62995 10.3357 3.47641C10.273 3.32286 10.1659 3.19149 10.0283 3.09908C9.89063 3.00666 9.72858 2.95739 9.56281 2.95755Z" fill="#4F4F4F"/>
</g>
<defs>
<clipPath id="clip0_2504:51932">
<rect width="47.8873" height="40" fill="white" transform="translate(0 0.000976562)"/>
</clipPath>
</defs>
</svg>
