<svg width="18" height="18" viewBox="0 0 18 18" fill="none" xmlns="http://www.w3.org/2000/svg">
<path d="M13.1776 0.891602C15.8408 0.891602 17.999 3.08313 17.999 6.15126C17.999 12.2875 11.4244 15.794 9.2329 17.1089C7.04137 15.794 0.466797 12.2875 0.466797 6.15126C0.466797 3.08313 2.65832 0.891602 5.28815 0.891602C6.91865 0.891602 8.35629 1.76821 9.2329 2.64482C10.1095 1.76821 11.5471 0.891602 13.1776 0.891602ZM10.0517 14.5702C10.8239 14.0828 11.5209 13.5981 12.173 13.0791C14.7862 11.0015 16.2458 8.73113 16.2458 6.15126C16.2458 4.08246 14.8984 2.64482 13.1776 2.64482C12.2344 2.64482 11.214 3.14449 10.4724 3.88435L9.2329 5.12388L7.99337 3.88435C7.25176 3.14449 6.23138 2.64482 5.28815 2.64482C3.58753 2.64482 2.22002 4.09649 2.22002 6.15126C2.22002 8.732 3.68045 11.0015 6.29187 13.0791C6.94495 13.5981 7.64185 14.0828 8.41414 14.5693C8.67625 14.735 8.93573 14.8937 9.2329 15.0708C9.53007 14.8937 9.78955 14.735 10.0517 14.5702Z" fill="#333333"/>
</svg>
