<svg width="22" height="20" viewBox="0 0 22 20" fill="none" xmlns="http://www.w3.org/2000/svg">
<path d="M3.03557 0C1.52603 0 0.539062 1.00358 0.539062 2.32266C0.539062 3.6126 1.49663 4.6448 2.97765 4.6448H3.0063C4.54537 4.6448 5.50319 3.6126 5.50319 2.32266C5.47441 1.00358 4.54537 0 3.03557 0Z" fill="#333333"/>
<path d="M0.800781 6.47998H5.21381V19.9221H0.800781V6.47998Z" fill="#333333"/>
<path d="M16.0464 6.16406C13.6658 6.16406 12.0694 8.42896 12.0694 8.42896V6.47955H7.65625V19.9216H12.0692V12.4151C12.0692 12.0132 12.0979 11.612 12.2145 11.3246C12.5336 10.5221 13.2596 9.69079 14.4787 9.69079C16.0756 9.69079 16.7143 10.9235 16.7143 12.7305V19.9216H21.1269V12.2142C21.1269 8.08536 18.9497 6.16406 16.0464 6.16406Z" fill="#333333"/>
</svg>
