<svg width="12" height="18" viewBox="0 0 12 18" fill="none" xmlns="http://www.w3.org/2000/svg">
<path d="M0 6.49852C0 8.08352 0.6375 9.52102 1.66667 10.5735V16.4993C1.66614 16.6416 1.7021 16.7816 1.77111 16.906C1.84012 17.0303 1.93988 17.1349 2.06085 17.2097C2.18181 17.2846 2.31995 17.3271 2.46205 17.3333C2.60415 17.3395 2.74547 17.3092 2.8725 17.2452L5.83333 15.7643L8.79417 17.2443C8.92089 17.3085 9.06199 17.3388 9.20386 17.3326C9.34574 17.3263 9.4836 17.2836 9.60417 17.2085C9.85 17.056 10 16.7885 10 16.4993V10.5743C11.0685 9.48685 11.6671 8.02311 11.6667 6.49852C11.6667 3.28268 9.05 0.666016 5.83333 0.666016C2.61667 0.666016 0 3.28268 0 6.49852ZM6.20583 14.0868C6.09006 14.0289 5.96238 13.9988 5.83292 13.9988C5.70346 13.9988 5.57578 14.0289 5.46 14.0868L3.33333 15.151V11.7618C4.0925 12.1235 4.93833 12.3327 5.83333 12.3327C6.72833 12.3327 7.57417 12.1243 8.33333 11.7618V15.1502L6.20583 14.0868ZM5.83333 2.33268C8.13 2.33268 10 4.20102 10 6.49852C9.9989 7.60332 9.55958 8.66258 8.77845 9.44387C7.99731 10.2252 6.93814 10.6647 5.83333 10.666C3.53583 10.666 1.66667 8.79685 1.66667 6.49852C1.66799 5.39393 2.10743 4.33498 2.88857 3.55399C3.66971 2.77301 4.72875 2.33379 5.83333 2.33268Z" fill="#333333"/>
</svg>
