<svg width="20" height="18" viewBox="0 0 20 18" fill="none" xmlns="http://www.w3.org/2000/svg">
<path d="M17.1121 9.67773H15.5654C15.7231 10.1094 15.8092 10.5752 15.8092 11.0607V16.9063C15.8092 17.1088 15.774 17.3031 15.7099 17.4838H18.2669C19.2221 17.4838 19.9992 16.7067 19.9992 15.7515V12.5648C19.9992 10.9729 18.7041 9.67773 17.1121 9.67773Z" fill="#333333"/>
<path d="M4.19 11.0607C4.19 10.5751 4.27614 10.1094 4.43379 9.67773H2.88708C1.29515 9.67773 0 10.9729 0 12.5648V15.7515C0 16.7067 0.777064 17.4838 1.73225 17.4838H4.28934C4.22524 17.303 4.19 17.1088 4.19 16.9063V11.0607Z" fill="#333333"/>
<path d="M11.7668 8.17188H8.23083C6.6389 8.17188 5.34375 9.46702 5.34375 11.059V16.9046C5.34375 17.2235 5.60226 17.482 5.92117 17.482H14.0765C14.3954 17.482 14.6539 17.2235 14.6539 16.9046V11.059C14.6539 9.46702 13.3588 8.17188 11.7668 8.17188Z" fill="#333333"/>
<path d="M9.99979 0.517578C8.08527 0.517578 6.52771 2.07514 6.52771 3.9897C6.52771 5.28832 7.24446 6.42249 8.30297 7.01795C8.80503 7.30037 9.38386 7.46178 9.99979 7.46178C10.6157 7.46178 11.1945 7.30037 11.6966 7.01795C12.7552 6.42249 13.4719 5.28828 13.4719 3.9897C13.4719 2.07518 11.9143 0.517578 9.99979 0.517578Z" fill="#333333"/>
<path d="M3.90525 3.75391C2.47343 3.75391 1.30859 4.91874 1.30859 6.35056C1.30859 7.78239 2.47343 8.94722 3.90525 8.94722C4.26845 8.94722 4.61431 8.87199 4.92848 8.73675C5.47168 8.50289 5.91957 8.08891 6.19672 7.57036C6.39125 7.20642 6.50191 6.79122 6.50191 6.35056C6.50191 4.91878 5.33707 3.75391 3.90525 3.75391Z" fill="#333333"/>
<path d="M16.0967 3.75391C14.6648 3.75391 13.5 4.91874 13.5 6.35056C13.5 6.79126 13.6107 7.20645 13.8052 7.57036C14.0823 8.08895 14.5302 8.50293 15.0734 8.73675C15.3876 8.87199 15.7335 8.94722 16.0967 8.94722C17.5285 8.94722 18.6933 7.78239 18.6933 6.35056C18.6933 4.91874 17.5285 3.75391 16.0967 3.75391Z" fill="#333333"/>
</svg>
