<svg width="30" height="30" viewBox="0 0 30 30" fill="none" xmlns="http://www.w3.org/2000/svg">
<g clip-path="url(#clip0_1897_194067)">
<path d="M26.8296 29.2022H25.5711V23.4279H19.1452V29.1951H17.8895V8.58248H8.33215V10.4949H9.66149C9.83845 10.4949 10.0154 10.4949 10.191 10.4949C10.6015 10.5106 10.8563 10.7439 10.8606 11.1634C10.8747 12.2131 10.8747 13.2599 10.8606 14.3039C10.8606 14.7562 10.5902 14.9996 10.1386 15.001C8.49071 15.001 6.84331 15.001 5.19638 15.001C4.74195 15.001 4.47863 14.7634 4.47155 14.3082C4.45739 13.2585 4.45739 12.2116 4.47155 11.1676C4.47155 10.7239 4.73062 10.5006 5.1709 10.4949C5.77116 10.4949 6.37 10.4949 6.99998 10.4949V8.54956H0.65625V7.26127C1.15174 7.26127 1.63166 7.27273 2.11158 7.26127C2.33287 7.25713 2.55195 7.21602 2.75997 7.1396C7.93576 5.04685 13.1082 2.95076 18.2774 0.851329C18.373 0.802157 18.4804 0.781434 18.5872 0.79157C18.6939 0.801706 18.7956 0.842285 18.8805 0.908586C21.8874 2.94551 24.9029 4.96955 27.9084 7.00791C28.1559 7.18518 28.4548 7.27384 28.7578 7.25984C29.1655 7.24123 29.5747 7.25984 29.9965 7.25984V8.54813H26.8296V29.2022ZM19.5827 8.56817C21.5647 12.4159 23.5211 16.2006 25.4748 19.9867L25.5286 19.9652V8.56817H19.5827ZM19.1679 22.0751H25.1138C23.1318 18.2432 21.1824 14.4542 19.2273 10.6652L19.1693 10.6896L19.1679 22.0751ZM17.8527 7.22978V2.41445L6.10243 7.1668L6.12508 7.23551L17.8527 7.22978ZM19.1707 7.21547H25.9377L19.1707 2.65636V7.21547ZM9.5723 13.6998V11.8104H5.77824V13.7056L9.5723 13.6998Z" fill="white"/>
<path d="M12.7823 28.2812C12.0626 28.8824 11.1583 29.2114 10.2248 29.2114C9.2913 29.2114 8.38696 28.8824 7.66735 28.2812C6.94959 28.9411 6.07469 29.2059 5.1191 29.2088C4.17864 29.2381 3.26261 28.9032 2.5581 28.2726C1.85026 28.9282 0.986683 29.1744 0.0240104 29.2073V27.9577C1.15657 27.7401 1.37458 27.6542 1.72992 27.2606C1.44678 26.7395 1.14807 26.2185 0.880506 25.686C0.46216 24.9145 0.175022 24.0774 0.0310889 23.2096C-0.0680098 22.5111 0.0480772 22.2921 0.697881 22.0545C1.2047 21.8684 1.70727 21.6723 2.21975 21.5019C2.32699 21.4827 2.42248 21.4217 2.48574 21.332C2.54899 21.2424 2.57497 21.1312 2.5581 21.0224C2.54112 19.9531 2.54961 18.8753 2.55103 17.8117C2.55103 17.1618 2.77471 16.9414 3.42593 16.9414H11.9328C12.5586 16.9414 12.7823 17.1661 12.7823 17.8003C12.7823 18.8939 12.7823 19.9889 12.7823 21.0825C12.7674 21.1678 12.7867 21.2554 12.8358 21.3263C12.8849 21.3972 12.9599 21.4454 13.0442 21.4604C13.6444 21.6637 14.2333 21.8999 14.8294 22.1146C14.9904 22.1574 15.1305 22.2584 15.223 22.3984C15.3156 22.5384 15.3543 22.7078 15.3319 22.8747C15.2838 23.8581 14.9313 24.7456 14.4995 25.6073C14.2164 26.167 13.9106 26.7109 13.609 27.2735C14.0663 27.7773 14.6779 27.8732 15.3079 27.9405V29.2102C14.3579 29.1787 13.5113 28.9354 12.7823 28.2812ZM10.2043 27.9262C10.9348 27.9004 11.62 27.7458 12.0787 27.1489C12.9211 26.0629 13.5379 24.816 13.8922 23.483C13.9502 23.2712 13.9247 23.1495 13.6798 23.0608C11.7601 22.3665 9.84752 21.6508 7.92925 20.9523C7.7793 20.898 7.61615 20.8935 7.46349 20.9394C5.54381 21.6351 3.6312 22.3494 1.71152 23.0422C1.44254 23.1395 1.376 23.2426 1.45386 23.526C1.79363 24.7642 2.40238 25.8578 3.0805 26.9371C3.87895 28.2096 6.34934 28.2583 7.13222 26.9371C7.18322 26.8413 7.25849 26.7609 7.35031 26.7042C7.44212 26.6475 7.5472 26.6164 7.65478 26.6142C7.76236 26.612 7.86858 26.6388 7.96258 26.6918C8.05657 26.7447 8.13497 26.822 8.18974 26.9156C8.67815 27.6585 9.3945 27.8919 10.2043 27.9262ZM11.4784 20.8821V18.2526H3.85347V20.8778C3.99503 20.8306 4.10546 20.7977 4.21305 20.7576C5.23802 20.384 6.25873 19.9946 7.29219 19.6439C7.53233 19.5712 7.78778 19.5678 8.02977 19.6339C8.47996 19.7556 8.91458 19.9445 9.35486 20.1049L11.4784 20.8821Z" fill="white"/>
<path d="M5.12419 24.3621C5.09763 24.5278 5.06123 24.6918 5.01518 24.8531C4.92457 25.1122 4.75044 25.3684 4.46872 25.3054C4.24589 25.2277 4.05999 25.0684 3.94774 24.8588C3.85911 24.7025 3.81378 24.525 3.81652 24.3449C3.81926 24.1648 3.86997 23.9888 3.96331 23.8353C4.07875 23.6414 4.25984 23.4965 4.47297 23.4274C4.74761 23.3601 4.91325 23.6034 5.00527 23.8468C5.05748 24.0153 5.09723 24.1876 5.12419 24.3621Z" fill="white"/>
<path d="M10.207 24.3882C10.233 24.2267 10.267 24.0667 10.309 23.9087C10.3996 23.6353 10.551 23.4077 10.8752 23.4163C11.1994 23.4248 11.3198 23.6553 11.4146 23.9058C11.4868 24.0694 11.5191 24.248 11.509 24.4268C11.4989 24.6056 11.4467 24.7794 11.3566 24.9336C11.2518 25.1025 11.0295 25.2971 10.8597 25.2986C10.6898 25.3 10.4817 25.0996 10.3642 24.935C10.2467 24.7704 10.2523 24.56 10.207 24.3882Z" fill="white"/>
</g>
<defs>
<clipPath id="clip0_1897_194067">
<rect width="30" height="28.4211" fill="white" transform="translate(0 0.789062)"/>
</clipPath>
</defs>
</svg>
