<svg width="20" height="20" viewBox="0 0 20 20" fill="none" xmlns="http://www.w3.org/2000/svg">
<g clip-path="url(#clip0_1897_193967)">
<path d="M17.8864 19.4675H17.0474V15.6179H12.7635V19.4627H11.9263V5.72101H5.55477V6.99593H6.44099C6.55897 6.99593 6.67694 6.99593 6.79397 6.99593C7.06767 7.00643 7.23756 7.16198 7.24039 7.44158C7.24983 8.1414 7.24983 8.8393 7.24039 9.53529C7.24039 9.83684 7.06012 9.99907 6.75905 10C5.66047 10 4.56221 10 3.46426 10C3.1613 10 2.98575 9.84162 2.98103 9.53815C2.97159 8.83834 2.97159 8.14044 2.98103 7.44445C2.98103 7.14862 3.15375 6.99975 3.44727 6.99593C3.84744 6.99593 4.24666 6.99593 4.66665 6.99593V5.69906H0.4375V4.8402C0.767829 4.8402 1.08778 4.84783 1.40772 4.8402C1.55525 4.83744 1.7013 4.81003 1.83998 4.75908C5.2905 3.36392 8.73882 1.96652 12.1849 0.566902C12.2487 0.534121 12.3203 0.520305 12.3914 0.527062C12.4626 0.53382 12.5304 0.560873 12.587 0.605073C14.5916 1.96302 16.6019 3.31239 18.6056 4.67129C18.7706 4.78947 18.9699 4.84858 19.1719 4.83924C19.4437 4.82684 19.7164 4.83924 19.9977 4.83924V5.6981H17.8864V19.4675ZM13.0551 5.71146C14.3764 8.27659 15.6808 10.7997 16.9832 13.3238L17.0191 13.3095V5.71146H13.0551ZM12.7786 14.7161H16.7425C15.4212 12.1615 14.1216 9.63549 12.8182 7.10949L12.7795 7.12572L12.7786 14.7161ZM11.9018 4.8192V1.60898L4.06829 4.77722L4.08339 4.82302L11.9018 4.8192ZM12.7805 4.80966H17.2918L12.7805 1.77026V4.80966ZM6.38153 9.13258V7.87292H3.85216V9.1364L6.38153 9.13258Z" fill="black" fill-opacity="0.75"/>
<path d="M8.5215 18.8528C8.04176 19.2537 7.43887 19.4729 6.81653 19.4729C6.1942 19.4729 5.59131 19.2537 5.11157 18.8528C4.63306 19.2928 4.04979 19.4693 3.41273 19.4712C2.78576 19.4907 2.17507 19.2675 1.7054 18.8471C1.2335 19.2842 0.657789 19.4483 0.0160069 19.4703V18.6372C0.771044 18.4921 0.916389 18.4349 1.15328 18.1724C0.964523 17.8251 0.765382 17.4777 0.587004 17.1227C0.308106 16.6084 0.116681 16.0503 0.0207259 15.4718C-0.0453398 15.0061 0.0320514 14.8601 0.465254 14.7017C0.803133 14.5776 1.13818 14.4469 1.47984 14.3333C1.55133 14.3205 1.61499 14.2798 1.65716 14.22C1.69933 14.1603 1.71665 14.0862 1.7054 14.0136C1.69408 13.3008 1.69974 12.5822 1.70068 11.8732C1.70068 11.4399 1.8498 11.293 2.28395 11.293H7.95523C8.37238 11.293 8.5215 11.4428 8.5215 11.8655C8.5215 12.5946 8.5215 13.3246 8.5215 14.0537C8.51163 14.1105 8.52448 14.169 8.55722 14.2162C8.58996 14.2635 8.63992 14.2956 8.69611 14.3057C9.09628 14.4412 9.4889 14.5986 9.88623 14.7418C9.99362 14.7703 10.087 14.8376 10.1487 14.931C10.2104 15.0243 10.2362 15.1372 10.2213 15.2485C10.1892 15.9041 9.95419 16.4957 9.66633 17.0702C9.47757 17.4433 9.27371 17.806 9.07268 18.181C9.37753 18.5169 9.78525 18.5809 10.2052 18.6257V19.4722C9.57195 19.4512 9.00756 19.2889 8.5215 18.8528ZM6.80285 18.6162C7.28985 18.599 7.74665 18.4959 8.05244 18.098C8.61404 17.3739 9.02526 16.5427 9.26144 15.6541C9.30014 15.5128 9.28315 15.4317 9.11987 15.3725C7.84008 14.9097 6.56501 14.4326 5.28617 13.9669C5.1862 13.9307 5.07743 13.9277 4.97566 13.9583C3.69587 14.4221 2.4208 14.8983 1.14101 15.3601C0.961691 15.425 0.917333 15.4937 0.969242 15.6827C1.19575 16.5081 1.60159 17.2372 2.05366 17.9568C2.58597 18.8051 4.23289 18.8376 4.75481 17.9568C4.78882 17.8929 4.83899 17.8393 4.9002 17.8015C4.96142 17.7637 5.03147 17.743 5.10319 17.7415C5.17491 17.7401 5.24572 17.7579 5.30839 17.7932C5.37105 17.8285 5.42331 17.88 5.45983 17.9424C5.78544 18.4377 6.263 18.5933 6.80285 18.6162ZM7.65227 13.9201V12.1671H2.56898V13.9173C2.66336 13.8858 2.73697 13.8638 2.8087 13.8371C3.49201 13.588 4.17249 13.3285 4.86146 13.0947C5.02155 13.0462 5.19185 13.0439 5.35318 13.088C5.65331 13.1691 5.94305 13.2951 6.23657 13.4019L7.65227 13.9201Z" fill="black" fill-opacity="0.75"/>
<path d="M3.41482 16.2401C3.39712 16.3506 3.37285 16.4599 3.34215 16.5674C3.28175 16.7401 3.16566 16.911 2.97784 16.869C2.82929 16.8172 2.70536 16.7109 2.63053 16.5712C2.57144 16.4671 2.54122 16.3487 2.54305 16.2286C2.54487 16.1086 2.57868 15.9912 2.64091 15.8889C2.71787 15.7597 2.83859 15.663 2.98067 15.6169C3.16377 15.5721 3.2742 15.7343 3.33554 15.8966C3.37035 16.0089 3.39685 16.1238 3.41482 16.2401Z" fill="black" fill-opacity="0.75"/>
<path d="M6.80469 16.2575C6.82198 16.1498 6.84466 16.0431 6.87264 15.9378C6.93304 15.7555 7.03403 15.6038 7.25016 15.6095C7.46629 15.6153 7.54651 15.7689 7.60975 15.9359C7.65783 16.0449 7.67941 16.164 7.67268 16.2832C7.66595 16.4024 7.6311 16.5183 7.57105 16.6211C7.50121 16.7337 7.35303 16.8635 7.23978 16.8644C7.12652 16.8654 6.98778 16.7318 6.90945 16.622C6.83111 16.5123 6.83489 16.372 6.80469 16.2575Z" fill="black" fill-opacity="0.75"/>
</g>
<defs>
<clipPath id="clip0_1897_193967">
<rect width="20" height="18.9474" fill="white" transform="translate(0 0.525391)"/>
</clipPath>
</defs>
</svg>
