<svg width="38" height="40" viewBox="0 0 38 40" fill="none" xmlns="http://www.w3.org/2000/svg">
<g clip-path="url(#clip0_2504:51896)">
<path d="M24.6611 0.000976562C25.1417 0.325275 25.5298 0.768262 25.7876 1.28672C26.8254 3.19877 27.8885 5.0982 28.9296 7.01025C28.9803 7.1189 29.0619 7.21031 29.1643 7.27313C29.2667 7.33595 29.3853 7.36742 29.5054 7.36363C30.1699 7.422 30.8518 7.46933 31.483 7.66337C32.6506 8.02149 32.9401 8.99329 32.1016 9.87201C31.5036 10.503 30.7347 10.9621 30.0228 11.4717C29.8535 11.5932 29.7522 11.672 29.8029 11.8961C30.2809 13.9602 30.0066 16.1267 29.0292 18.0077C29.0103 18.059 28.9955 18.1118 28.9849 18.1654L29.7016 18.4336C30.9372 18.9069 32.1111 19.4827 33.0825 20.4041C33.6647 20.9562 33.6599 21.1929 33.0825 21.7608C33.0097 21.8334 32.9417 21.9185 32.8452 22.0116C32.9939 22.0716 33.111 22.1189 33.228 22.1694C34.4276 22.6277 35.4591 23.4388 36.1858 24.495C36.9125 25.5513 37.3 26.8029 37.2971 28.0838C37.2971 31.7186 37.2971 35.3534 37.2971 38.9882C37.2971 39.0923 37.2971 39.198 37.2971 39.3037C37.286 39.7359 37.0424 40.012 36.6643 40.0152C36.2862 40.0183 36.0315 39.7407 36.0315 39.3147C36.0315 38.5922 36.0315 37.8712 36.0315 37.1487V28.0822C36.0394 26.9312 35.6527 25.812 34.9353 24.9102C34.218 24.0084 33.2132 23.3781 32.0874 23.1238C31.8532 23.0686 31.6776 23.0765 31.5336 23.2737C30.7853 24.2944 29.7285 24.7267 28.5119 24.886C28.0373 24.9491 27.5626 25.0943 27.0279 25.2142L27.7446 26.0755C28.2034 26.6261 28.1971 26.8059 27.7288 27.3613C25.9189 29.5089 24.1116 31.6586 22.307 33.8105C22.0032 34.1733 21.7296 34.5598 21.4416 34.9353C21.0999 35.3833 20.6854 35.4086 20.3342 34.9779C18.1836 32.3917 16.0373 29.8039 13.8951 27.2145C13.5787 26.8391 13.5882 26.5709 13.8951 26.2001C14.153 25.8846 14.4172 25.5802 14.7194 25.222C14.1198 25.0801 13.574 24.8971 13.0123 24.8292C11.8891 24.6935 10.9557 24.2423 10.2754 23.3337C10.0934 23.0923 9.88776 23.0544 9.59033 23.1333C8.32135 23.4353 7.22104 24.22 6.52428 25.3199C6.47596 25.4244 6.39211 25.5085 6.28759 25.5573C6.18306 25.6061 6.06459 25.6164 5.95315 25.5865C5.6573 25.5344 5.35354 25.5186 5.00391 25.4839C5.79494 23.7659 7.10173 22.6442 9.02869 21.969C8.8371 21.8491 8.65466 21.7151 8.48288 21.5683C8.1459 21.2323 8.15223 20.9215 8.48288 20.576C9.43212 19.6011 10.6013 18.9984 11.8448 18.5046C12.1375 18.3895 12.4333 18.2853 12.7545 18.167C12.736 18.0934 12.7122 18.0211 12.6833 17.9509C11.7338 16.0857 11.4702 13.9477 11.9381 11.9087C11.9856 11.6989 11.9286 11.5932 11.7356 11.4748C11.1677 11.1215 10.6139 10.7444 10.0824 10.3406C9.83514 10.1442 9.62144 9.90927 9.44952 9.64483C8.94959 8.90494 9.15209 8.18871 9.9542 7.78327C10.6661 7.422 11.4445 7.37625 12.2197 7.36047C12.3407 7.36787 12.461 7.33732 12.5637 7.27309C12.6664 7.20887 12.7464 7.1142 12.7924 7.00236C13.7385 5.25122 14.7131 3.51271 15.6623 1.76158C16.0199 1.1053 16.3742 0.45217 16.9992 0.000976562H19.7646C20.5019 0.442704 21.2375 0.409574 21.9795 0.000976562H24.6611ZM13.1864 12.1674C12.4855 14.8304 13.4901 18.4273 16.4787 20.4072C17.8881 21.3481 19.564 21.8112 21.2581 21.728C22.9521 21.6447 24.5742 21.0195 25.8841 19.945C28.5736 17.771 29.1827 14.2498 28.5277 12.1753C23.4313 14.0106 18.3176 14.0079 13.1864 12.1674ZM9.85453 21.0209C10.5712 21.7734 11.2642 22.507 11.9698 23.2295C12.0712 23.3125 12.193 23.3669 12.3226 23.3873C13.4996 23.6571 14.6783 23.9189 15.8553 24.1856C16.5451 24.3433 16.7049 24.8276 16.2493 25.3688L15.1054 26.7208L20.8167 33.5975L26.5897 26.7223C26.5897 26.6987 26.5897 26.6671 26.5659 26.6498C26.2036 26.2175 25.8382 25.7868 25.4759 25.3546C25.0377 24.8308 25.1974 24.3417 25.8603 24.1903C27.0247 23.9253 28.1907 23.6634 29.3535 23.4015C29.4844 23.3922 29.6107 23.3499 29.7206 23.2784C30.442 22.5385 31.1444 21.7845 31.8611 21.0351C31.2868 20.494 29.8962 19.773 28.7144 19.3802C28.398 19.2745 28.2145 19.3281 27.9866 19.5947C25.7053 22.2767 22.8085 23.4062 19.3121 22.8572C17.0087 22.4944 15.1466 21.3348 13.6768 19.5316C13.6238 19.468 13.5569 19.4173 13.4812 19.3834C13.4055 19.3495 13.3231 19.3333 13.2402 19.336C12.0131 19.6745 10.8634 20.2466 9.85453 21.0209ZM20.8468 9.81048L20.861 9.91934C22.3181 9.73633 23.7862 9.61802 25.2275 9.34825C26.0628 9.19049 26.8713 8.82922 27.6591 8.48372C28.1448 8.27075 28.1338 8.15558 27.8775 7.69492L24.6706 1.88305C24.1517 0.936492 23.6597 0.70774 22.6693 1.13685C21.4432 1.66534 20.2646 1.71583 19.0638 1.12738C18.9793 1.09178 18.8927 1.06174 18.8043 1.03746C18.0955 0.810284 17.5228 1.01695 17.1653 1.6685C16.0214 3.73042 14.8918 5.80023 13.7448 7.85899C13.6199 8.08301 13.642 8.23762 13.8445 8.34805C14.2492 8.59113 14.6724 8.80212 15.1102 8.97909C16.9596 9.63379 18.8961 9.78209 20.8468 9.81048ZM10.5206 8.80397L10.4921 8.97278C10.6266 9.11161 10.75 9.26148 10.894 9.38926C11.7802 10.1538 12.8093 10.736 13.922 11.1025C18.0766 12.5555 22.2817 12.6565 26.5216 11.5159C27.9898 11.1215 29.3868 10.5583 30.5891 9.60224C30.828 9.41135 31.0369 9.1826 31.2584 8.9712L31.2236 8.81344C30.5907 8.75034 29.9579 8.6825 29.3251 8.62571C29.2931 8.63017 29.2625 8.64134 29.2353 8.65847C29.208 8.6756 29.1847 8.69831 29.1669 8.72509C28.5957 9.577 27.6955 9.93985 26.7669 10.2554C25.1057 10.8059 23.386 10.9984 21.6457 11.0442C19.4403 11.1041 17.2555 10.9621 15.1339 10.3122C14.1372 10.0061 13.1658 9.63379 12.5314 8.72194C12.509 8.69177 12.4802 8.66683 12.4472 8.64885C12.4141 8.63087 12.3775 8.62028 12.34 8.61782C11.7325 8.67777 11.1265 8.73929 10.5206 8.80397Z" fill="#4F4F4F"/>
<path d="M9.06755 34.9577C9.41877 35.289 9.7874 35.6234 10.1402 35.9721C11.1116 36.9344 12.0788 37.8999 13.0417 38.8686C13.3581 39.1841 13.3581 39.5438 13.1066 39.8151C12.855 40.0865 12.4848 40.0691 12.1573 39.7741C12.1194 39.7394 12.083 39.7015 12.045 39.6637C10.9312 38.5488 9.81745 37.434 8.70368 36.3192C8.54547 36.1519 8.38726 35.9674 8.21956 35.778C6.85266 36.7498 5.40032 37.0938 3.81034 36.6899C2.63437 36.4027 1.60551 35.694 0.919896 34.699C0.228398 33.7088 -0.084595 32.5045 0.0376172 31.3041C0.159829 30.1036 0.709163 28.9866 1.58611 28.1552C2.46305 27.3239 3.6096 26.8332 4.81805 26.7721C6.0265 26.711 7.21693 27.0836 8.17368 27.8222C9.89339 29.1222 11.0768 32.0738 9.06755 34.9577ZM1.28219 31.793C1.27112 33.855 2.96077 35.5793 5.00322 35.5935C5.75663 35.6085 6.49749 35.3996 7.13148 34.9935C7.76547 34.5873 8.26393 34.0022 8.5634 33.3126C8.86286 32.6231 8.94979 31.8603 8.81313 31.1213C8.67646 30.3823 8.32237 29.7006 7.79594 29.163C7.2695 28.6253 6.59454 28.256 5.85695 28.1021C5.11937 27.9481 4.35254 28.0165 3.65406 28.2985C2.95559 28.5806 2.35706 29.0635 1.93468 29.6858C1.5123 30.3081 1.28517 31.0416 1.28219 31.793Z" fill="#4F4F4F"/>
<path d="M30.0456 33.388C29.2309 33.388 28.4177 33.388 27.6029 33.388C27.1489 33.388 26.8673 33.1293 26.8752 32.7459C26.8831 32.3625 27.1552 32.1338 27.5918 32.1338C29.2193 32.1338 30.8472 32.1338 32.4757 32.1338C32.9092 32.1338 33.1829 32.3846 33.1876 32.7554C33.1924 33.1261 32.9139 33.3864 32.4883 33.3864C31.6736 33.3927 30.8588 33.388 30.0456 33.388Z" fill="#4F4F4F"/>
<path d="M5.69433 38.1318C5.69433 38.5736 5.72439 39.0184 5.68484 39.4554C5.68044 39.5322 5.66073 39.6072 5.62685 39.6763C5.59298 39.7453 5.54563 39.8069 5.48757 39.8574C5.42951 39.908 5.36192 39.9465 5.28876 39.9706C5.2156 39.9948 5.13833 40.0041 5.0615 39.9981C4.90144 40.0015 4.74649 39.9418 4.63036 39.8319C4.51423 39.722 4.4463 39.5708 4.44133 39.4113C4.42393 38.9948 4.44133 38.5767 4.44133 38.1318H5.69433Z" fill="#4F4F4F"/>
<path d="M20.8224 29.6366C21.509 28.8241 22.1751 28.0353 22.8443 27.2465C23.1069 26.931 23.3648 26.6155 23.6353 26.3221C23.9059 26.0286 24.2682 25.986 24.5403 26.2242C24.6045 26.2806 24.6567 26.3493 24.6935 26.4262C24.7304 26.5032 24.7513 26.5868 24.7548 26.6721C24.7584 26.7573 24.7445 26.8424 24.7142 26.9221C24.6838 27.0019 24.6376 27.0747 24.5782 27.1361C23.5024 28.4245 22.4208 29.7092 21.3334 30.9902C21.0091 31.3735 20.6247 31.3688 20.2956 30.9775C19.2293 29.7155 18.1709 28.445 17.1204 27.1661C17.0611 27.1042 17.0152 27.031 16.9852 26.9508C16.9552 26.8707 16.9419 26.7853 16.9461 26.6999C16.9502 26.6144 16.9717 26.5308 17.0093 26.4539C17.0469 26.377 17.0997 26.3085 17.1647 26.2526C17.4463 26.0128 17.8307 26.0554 18.1028 26.3788C18.878 27.3033 19.6454 28.2357 20.4174 29.1633C20.5471 29.3132 20.6753 29.4615 20.8224 29.6366Z" fill="#4F4F4F"/>
</g>
<defs>
<clipPath id="clip0_2504:51896">
<rect width="37.2973" height="40" fill="white" transform="translate(0 0.000976562)"/>
</clipPath>
</defs>
</svg>
