<svg width="17" height="16" viewBox="0 0 17 16" fill="none" xmlns="http://www.w3.org/2000/svg">
<path d="M13.0942 11.5128L16.5926 14.8855L15.4368 16L11.9392 12.6266C10.6379 13.6325 9.01917 14.1797 7.35125 14.1774C3.29336 14.1774 0 11.0017 0 7.08871C0 3.17574 3.29336 0 7.35125 0C11.4091 0 14.7025 3.17574 14.7025 7.08871C14.7049 8.69706 14.1375 10.2579 13.0942 11.5128ZM11.4557 10.9284C12.4923 9.90047 13.0712 8.52254 13.0689 7.08871C13.0689 4.04214 10.5098 1.57527 7.35125 1.57527C4.19185 1.57527 1.63361 4.04214 1.63361 7.08871C1.63361 10.1345 4.19185 12.6021 7.35125 12.6021C8.83819 12.6044 10.2672 12.0462 11.3332 11.0466L11.4557 10.9284Z" fill="#828282"/>
</svg>
