<svg width="18" height="18" viewBox="0 0 18 18" fill="none" xmlns="http://www.w3.org/2000/svg">
<path d="M10.5275 13.4246L6.82885 11.4075C6.34597 11.9238 5.71898 12.2828 5.02937 12.438C4.33976 12.5932 3.6194 12.5374 2.96192 12.2778C2.30444 12.0183 1.74024 11.5669 1.34264 10.9825C0.945038 10.3981 0.732422 9.70753 0.732422 9.00067C0.732422 8.2938 0.945038 7.60328 1.34264 7.01884C1.74024 6.4344 2.30444 5.98307 2.96192 5.72349C3.6194 5.46392 4.33976 5.40811 5.02937 5.56332C5.71898 5.71852 6.34597 6.07757 6.82885 6.59379L10.5283 4.57668C10.3183 3.74524 10.4187 2.86574 10.8108 2.10304C11.2028 1.34034 11.8596 0.746807 12.6579 0.433689C13.4563 0.120571 14.3414 0.109369 15.1474 0.402184C15.9534 0.694999 16.625 1.27173 17.0362 2.02426C17.4474 2.7768 17.5701 3.65347 17.3811 4.48996C17.1922 5.32645 16.7047 6.06532 16.01 6.56808C15.3152 7.07084 14.461 7.30296 13.6074 7.22094C12.7538 7.13892 11.9593 6.74839 11.3731 6.12255L7.67357 8.13965C7.81556 8.70458 7.81556 9.29587 7.67357 9.8608L11.3722 11.8779C11.9585 11.2521 12.7529 10.8615 13.6065 10.7795C14.4601 10.6975 15.3144 10.9296 16.0091 11.4324C16.7038 11.9351 17.1913 12.674 17.3803 13.5105C17.5692 14.347 17.4465 15.2237 17.0353 15.9762C16.6241 16.7287 15.9526 17.3055 15.1465 17.5983C14.3405 17.8911 13.4554 17.8799 12.657 17.5668C11.8587 17.2536 11.2019 16.6601 10.8099 15.8974C10.4178 15.1347 10.3174 14.2552 10.5275 13.4238V13.4246ZM4.25593 10.7619C4.72316 10.7619 5.17124 10.5763 5.50162 10.2459C5.832 9.91553 6.0176 9.46745 6.0176 9.00023C6.0176 8.533 5.832 8.08492 5.50162 7.75454C5.17124 7.42416 4.72316 7.23856 4.25593 7.23856C3.78871 7.23856 3.34063 7.42416 3.01025 7.75454C2.67987 8.08492 2.49427 8.533 2.49427 9.00023C2.49427 9.46745 2.67987 9.91553 3.01025 10.2459C3.34063 10.5763 3.78871 10.7619 4.25593 10.7619ZM13.9451 5.4769C14.4123 5.4769 14.8604 5.29129 15.1908 4.96092C15.5212 4.63054 15.7068 4.18245 15.7068 3.71523C15.7068 3.24801 15.5212 2.79992 15.1908 2.46954C14.8604 2.13917 14.4123 1.95356 13.9451 1.95356C13.4779 1.95356 13.0298 2.13917 12.6994 2.46954C12.369 2.79992 12.1834 3.24801 12.1834 3.71523C12.1834 4.18245 12.369 4.63054 12.6994 4.96092C13.0298 5.29129 13.4779 5.4769 13.9451 5.4769ZM13.9451 16.0469C14.4123 16.0469 14.8604 15.8613 15.1908 15.5309C15.5212 15.2005 15.7068 14.7524 15.7068 14.2852C15.7068 13.818 15.5212 13.3699 15.1908 13.0395C14.8604 12.7092 14.4123 12.5236 13.9451 12.5236C13.4779 12.5236 13.0298 12.7092 12.6994 13.0395C12.369 13.3699 12.1834 13.818 12.1834 14.2852C12.1834 14.7524 12.369 15.2005 12.6994 15.5309C13.0298 15.8613 13.4779 16.0469 13.9451 16.0469Z" fill="#333333"/>
</svg>
