<svg width="22" height="18" viewBox="0 0 22 18" fill="none" xmlns="http://www.w3.org/2000/svg">
<path d="M10.998 7.04199L4.30375 10.3655C3.22511 10.8981 2.72624 12.1588 3.15095 13.2846L4.82284 17.7542H17.18L18.8519 13.2846C19.2698 12.1588 18.7777 10.8981 17.6991 10.3655L10.998 7.04199Z" fill="#333333"/>
<path d="M11.1473 0.246094H10.8507C9.81251 0.246094 8.97656 1.08204 8.97656 2.12022H13.0214C13.0214 1.08204 12.1855 0.246094 11.1473 0.246094Z" fill="#333333"/>
<path d="M15.7174 7.87865V4.81802C15.7174 4.07646 15.1174 3.46973 14.3691 3.46973H13.0208H8.97589H7.62759C6.88603 3.46973 6.2793 4.07646 6.2793 4.81802V7.87865L10.9983 5.53936L15.7174 7.87865Z" fill="#333333"/>
</svg>
