<svg width="70" height="77" viewBox="0 0 70 77" fill="none" xmlns="http://www.w3.org/2000/svg">
<g filter="url(#filter0_d)">
<path fill-rule="evenodd" clip-rule="evenodd" d="M35 12C26.7157 12 20 18.7157 20 27C20 31.4769 21.9613 35.4957 25.0715 38.2441L35 49L44.9285 38.2441C48.0387 35.4957 50 31.4769 50 27C50 18.7157 43.2843 12 35 12Z" fill="#F7E246"/>
<path d="M34.998 24.7959L28.3037 28.1194C27.2251 28.652 26.7262 29.9127 27.151 31.0385L28.8228 35.5081H41.18L42.8519 31.0385C43.2698 29.9127 42.7777 28.652 41.6991 28.1194L34.998 24.7959Z" fill="#333333"/>
<path d="M35.1473 18H34.8507C33.8125 18 32.9766 18.8359 32.9766 19.8741H37.0214C37.0214 18.8359 36.1855 18 35.1473 18Z" fill="#333333"/>
<path d="M39.7174 25.633V22.5724C39.7174 21.8309 39.1174 21.2241 38.3691 21.2241H37.0208H32.9759H31.6276C30.886 21.2241 30.2793 21.8309 30.2793 22.5724V25.633L34.9983 23.2938L39.7174 25.633Z" fill="#333333"/>
</g>
<defs>
<filter id="filter0_d" x="0" y="0" width="70" height="77" filterUnits="userSpaceOnUse" color-interpolation-filters="sRGB">
<feFlood flood-opacity="0" result="BackgroundImageFix"/>
<feColorMatrix in="SourceAlpha" type="matrix" values="0 0 0 0 0 0 0 0 0 0 0 0 0 0 0 0 0 0 127 0" result="hardAlpha"/>
<feOffset dy="8"/>
<feGaussianBlur stdDeviation="10"/>
<feComposite in2="hardAlpha" operator="out"/>
<feColorMatrix type="matrix" values="0 0 0 0 0 0 0 0 0 0 0 0 0 0 0 0 0 0 0.15 0"/>
<feBlend mode="normal" in2="BackgroundImageFix" result="effect1_dropShadow"/>
<feBlend mode="normal" in="SourceGraphic" in2="effect1_dropShadow" result="shape"/>
</filter>
</defs>
</svg>
