<svg width="31" height="35" viewBox="0 0 31 35" fill="none" xmlns="http://www.w3.org/2000/svg">
<path d="M14.8501 35C6.71119 35 0.113281 28.4021 0.113281 20.2632C0.113281 12.1242 6.71119 5.52632 14.8501 5.52632C22.9891 5.52632 29.587 12.1242 29.587 20.2632C29.5778 28.3983 22.9853 34.9909 14.8501 35ZM14.8501 9.21053C8.74592 9.21053 3.79749 14.159 3.79749 20.2632C3.79749 26.3674 8.74592 31.3158 14.8501 31.3158C20.9543 31.3158 25.9028 26.3674 25.9028 20.2632C25.8956 14.1619 20.9514 9.21763 14.8501 9.21053ZM16.6922 22.1053H13.008V12.8947H16.6922V22.1053ZM28.2846 10.5129L24.6004 6.82868L27.2051 4.22395L30.8893 7.90816L28.2864 10.5111L28.2846 10.5129ZM20.3764 3.68421H9.32381V0H20.3764V3.68421Z" fill="#333333"/>
</svg>
