<svg width="14" height="22" viewBox="0 0 14 22" fill="none" xmlns="http://www.w3.org/2000/svg">
<g clip-path="url(#clip0)">
<path d="M0.103516 9.07715C0.103516 6.27612 0.103516 3.47608 0.103516 0.677014C0.103516 0.388167 0.220512 0.171532 0.502648 0.0497054C0.902816 -0.120753 1.38581 0.169076 1.39772 0.586135C1.39772 0.760033 1.39772 0.93393 1.39772 1.10881C1.39772 1.23211 1.39772 1.23211 1.52455 1.23211H12.9156C13.1522 1.23211 13.3888 1.23211 13.6254 1.23211C13.8231 1.23211 13.8935 1.29941 13.8935 1.48952C13.8935 2.35508 13.8935 3.2208 13.8935 4.08668V10.3254C13.8935 10.3519 13.8935 10.3784 13.8935 10.405C13.8878 10.5553 13.8055 10.6329 13.6476 10.6334C13.1299 10.6334 12.6133 10.6334 12.0977 10.6334C8.56779 10.6334 5.03789 10.6334 1.50799 10.6334C1.40445 10.6334 1.39461 10.6707 1.39513 10.7518C1.39513 13.0115 1.39513 15.2711 1.39513 17.5308C1.39513 17.6738 1.35631 17.7421 1.24863 17.7764C1.21306 17.7866 1.17602 17.7914 1.13888 17.7907C0.902299 17.7907 0.665718 17.7907 0.429137 17.7907C0.166155 17.7936 0.103516 17.7342 0.103516 17.4886C0.103516 16.6672 0.103516 15.8461 0.103516 15.025V9.07715ZM4.42357 4.50178C3.44653 4.50178 2.46967 4.50178 1.49297 4.50178C1.41014 4.50178 1.39668 4.53223 1.39668 4.60002C1.39876 5.48621 1.39876 6.37224 1.39668 7.2581C1.39668 7.34161 1.41998 7.37059 1.51161 7.3701C2.23067 7.36716 2.94921 7.3701 3.66775 7.3701C3.91987 7.3701 4.17198 7.37354 4.42357 7.37501C4.42357 7.40744 4.41788 7.43986 4.41788 7.47326C4.41788 8.35028 4.41788 9.22747 4.41788 10.1048C4.41788 10.2301 4.41788 10.2306 4.55299 10.2306H7.27859C7.42923 10.2306 7.43027 10.2306 7.43027 10.0901C7.43027 9.21862 7.43027 8.34717 7.43027 7.47572C7.43027 7.39712 7.44942 7.36912 7.53846 7.36912C8.47029 7.37207 9.40574 7.36912 10.3391 7.37158C10.3697 7.37368 10.4001 7.37745 10.4302 7.38287C10.4368 7.41681 10.4411 7.4511 10.4432 7.48554C10.4432 8.3606 10.4432 9.23516 10.4432 10.1092C10.4432 10.2276 10.4468 10.2306 10.5674 10.2306C11.492 10.2306 12.4166 10.2306 13.3406 10.2306C13.4328 10.2306 13.4638 10.2094 13.4633 10.1171C13.4599 9.2368 13.4599 8.35634 13.4633 7.47572C13.4633 7.38779 13.4333 7.36814 13.3463 7.36863C12.4093 7.36863 11.4723 7.36863 10.5353 7.36863C10.4984 7.37076 10.4618 7.37536 10.4256 7.38238C10.4337 7.34231 10.4391 7.30178 10.4416 7.26105C10.4416 6.37388 10.4416 5.48687 10.4416 4.60002C10.4392 4.56542 10.4347 4.53098 10.4282 4.49686C10.4468 4.49686 10.4654 4.50129 10.4836 4.50129C11.448 4.50129 12.4124 4.50129 13.3769 4.50129C13.4638 4.50129 13.4618 4.45953 13.4618 4.40304C13.4618 3.51881 13.4618 2.63311 13.4618 1.74594C13.4618 1.65359 13.4307 1.63247 13.3391 1.63296C12.4212 1.63591 11.5034 1.63296 10.5861 1.63296C10.4411 1.63296 10.4406 1.63296 10.4406 1.7705C10.4406 2.64458 10.4406 3.51849 10.4406 4.39223C10.4389 4.42696 10.4351 4.46156 10.4292 4.49588C10.3919 4.49588 10.3552 4.49932 10.3179 4.49981H7.42561C7.42561 3.57563 7.42682 2.65178 7.42923 1.72826C7.42923 1.64622 7.38989 1.63001 7.31482 1.63001C6.39128 1.63001 5.46722 1.63001 4.54367 1.63001C4.41684 1.63001 4.41581 1.63001 4.41581 1.75282C4.41581 2.63704 4.41581 3.52258 4.41581 4.40942C4.41736 4.44332 4.4215 4.47083 4.42357 4.50178Z" fill="black" fill-opacity="0.75"/>
<path d="M7.42777 4.50198H10.3201C10.3573 4.50198 10.3941 4.50198 10.4314 4.49805H10.4288C10.4357 4.53229 10.4404 4.56691 10.4427 4.6017C10.4427 5.48887 10.4427 6.37588 10.4427 7.26272C10.4402 7.30346 10.4348 7.34399 10.4267 7.38406C10.3968 7.3782 10.3665 7.37426 10.3361 7.37227C9.40428 7.37227 8.46883 7.37227 7.53545 7.36981C7.44641 7.36981 7.42674 7.39781 7.42725 7.47641C7.42984 8.34786 7.42725 9.21931 7.42725 10.0908C7.42725 10.2303 7.42725 10.2313 7.27557 10.2313H4.55308C4.419 10.2313 4.41797 10.2313 4.41797 10.1055C4.41797 9.22816 4.41797 8.35097 4.41797 7.47395C4.41797 7.44153 4.42159 7.40911 4.42366 7.37571C4.47906 7.37325 4.53496 7.36883 4.59087 7.36883C5.50199 7.36883 6.41311 7.36883 7.32423 7.36883C7.40137 7.36883 7.43502 7.3536 7.43502 7.27058C7.4326 6.3464 7.4326 5.42255 7.43502 4.49903L7.42777 4.50198Z" fill="white" fill-opacity="0.9"/>
<path d="M4.42338 7.37129C4.17179 7.37129 3.91967 7.36637 3.66756 7.36637C2.94902 7.36637 2.23048 7.36637 1.51142 7.36637C1.41979 7.36637 1.39597 7.33788 1.39649 7.25437C1.39925 6.37015 1.39925 5.48412 1.39649 4.59629C1.39649 4.52801 1.40995 4.49805 1.49278 4.49805C2.46947 4.50099 3.44634 4.50099 4.42338 4.49805H4.42027C4.42027 4.96669 4.41717 5.43533 4.41717 5.90396C4.41717 6.3952 4.41717 6.883 4.42079 7.37227L4.42338 7.37129Z" fill="white" fill-opacity="0.9"/>
<path d="M10.4312 4.49671C10.4371 4.46239 10.4409 4.42779 10.4426 4.39306C10.4426 3.51899 10.4426 2.64508 10.4426 1.77134C10.4426 1.63428 10.4426 1.63379 10.5881 1.63379C11.5054 1.63379 12.4233 1.63379 13.3411 1.63379C13.4328 1.63379 13.4643 1.65442 13.4638 1.74677C13.4604 2.631 13.4604 3.5167 13.4638 4.40387C13.4638 4.46134 13.4638 4.50211 13.3789 4.50211C12.4145 4.49917 11.45 4.50211 10.4856 4.50211C10.4675 4.50211 10.4488 4.49917 10.4297 4.49769L10.4312 4.49671Z" fill="white" fill-opacity="0.9"/>
<path d="M4.42418 4.50113C4.42418 4.47215 4.41797 4.44268 4.41797 4.4132C4.41797 3.52898 4.41797 2.64344 4.41797 1.7566C4.41797 1.63477 4.41797 1.63379 4.54584 1.63379C5.46938 1.63379 6.39344 1.63379 7.31698 1.63379C7.39205 1.63379 7.43139 1.64902 7.43139 1.73204C7.42898 2.65621 7.42777 3.58007 7.42777 4.50359H7.43036H4.42107L4.42418 4.50113Z" fill="white" fill-opacity="0.9"/>
<path d="M10.4258 7.37997C10.462 7.37294 10.4987 7.36834 10.5355 7.36621C11.4725 7.36621 12.4095 7.36621 13.3465 7.36621C13.4335 7.36621 13.4635 7.38537 13.4635 7.4733C13.4601 8.35392 13.4601 9.23438 13.4635 10.1147C13.4635 10.207 13.433 10.2282 13.3408 10.2282C12.4168 10.2252 11.4922 10.2282 10.5676 10.2282C10.447 10.2282 10.4434 10.2252 10.4434 10.1068C10.4434 9.23242 10.4434 8.35785 10.4434 7.48312C10.4414 7.44884 10.437 7.41471 10.4304 7.38095L10.4258 7.37997Z" fill="white" fill-opacity="0.9"/>
<path d="M4.42171 4.49902H7.431C7.431 5.4232 7.431 6.34705 7.431 7.27058C7.431 7.35261 7.39735 7.36882 7.32021 7.36882C6.40909 7.36653 5.49797 7.36653 4.58685 7.36882C4.53094 7.36882 4.47503 7.37324 4.41964 7.3757C4.41964 6.88446 4.41602 6.39716 4.41602 5.9074C4.4186 5.4363 4.42067 4.96766 4.42171 4.49902Z" fill="black" fill-opacity="0.75"/>
<path d="M1.39047 14.6262C1.39047 14.289 1.10238 14.0156 0.746994 14.0156C0.391611 14.0156 0.103516 14.289 0.103516 14.6262V21.3896C0.103516 21.7268 0.391611 22.0002 0.746994 22.0002C1.10238 22.0002 1.39047 21.7268 1.39047 21.3896V14.6262Z" fill="black" fill-opacity="0.75"/>
</g>
<defs>
<clipPath id="clip0">
<rect width="13.791" height="22" fill="white" transform="translate(0.103516)"/>
</clipPath>
</defs>
</svg>
