<svg width="40" height="40" viewBox="0 0 40 40" fill="none" xmlns="http://www.w3.org/2000/svg">
<g clip-path="url(#clip0_2504:51969)">
<path d="M16.202 21.8797C16.202 21.5561 15.9397 21.2938 15.6161 21.2938H2.46469C1.7518 21.2938 1.17188 20.7139 1.17188 20.001V2.46566C1.17188 1.75277 1.7518 1.17285 2.46469 1.17285H20C20.7129 1.17285 21.2928 1.75277 21.2928 2.46566V15.6171C21.2928 15.9407 21.5552 16.203 21.8787 16.203C22.2023 16.203 22.4647 15.9407 22.4647 15.6171V2.46566C22.4647 1.1066 21.3591 0.000976562 20 0.000976562H2.46469C1.10563 0.000976562 0 1.1066 0 2.46566V20.001C0 21.36 1.10563 22.4657 2.46469 22.4657H15.6161C15.9397 22.4657 16.202 22.2033 16.202 21.8797Z" fill="#4F4F4F"/>
<path d="M37.5352 17.5352H32.5251C32.2015 17.5352 31.9391 17.7975 31.9391 18.1211C31.9391 18.4447 32.2015 18.707 32.5251 18.707H37.5352C38.248 18.707 38.828 19.287 38.828 19.9998V37.5352C38.828 38.2481 38.248 38.828 37.5352 38.828H19.9998C19.287 38.828 18.707 38.2481 18.707 37.5352V19.9998C18.707 19.287 19.287 18.707 19.9998 18.707H30.0201C30.3437 18.707 30.606 18.4447 30.606 18.1211C30.606 17.7975 30.3437 17.5352 30.0201 17.5352H19.9998C18.6408 17.5352 17.5352 18.6408 17.5352 19.9998V37.5352C17.5352 38.8942 18.6408 39.9999 19.9998 39.9999H37.5352C38.8942 39.9999 39.9998 38.8942 39.9998 37.5352V19.9998C39.9998 18.6408 38.8942 17.5352 37.5352 17.5352Z" fill="#4F4F4F"/>
<path d="M16.8703 6.26324H11.8199V5.59668C11.8199 5.27309 11.5576 5.01074 11.234 5.01074C10.9104 5.01074 10.648 5.27309 10.648 5.59668V6.26324H5.59766C5.27406 6.26324 5.01172 6.52559 5.01172 6.84918C5.01172 7.17277 5.27406 7.43512 5.59766 7.43512H14.2262C13.8888 8.51902 13.0434 10.7049 11.2312 12.8866C10.1245 11.5555 9.37477 10.2174 8.8782 9.11137C8.74563 8.81621 8.39906 8.68426 8.10367 8.81676C7.80844 8.94934 7.67656 9.29605 7.80906 9.59129C8.35758 10.8131 9.19406 12.2992 10.4416 13.7693C9.55227 14.6919 8.47539 15.5864 7.17484 16.3668C6.89734 16.5333 6.80734 16.8932 6.97391 17.1707C7.08375 17.3539 7.27781 17.4553 7.47688 17.4553C7.57945 17.4553 7.68344 17.4283 7.77781 17.3717C9.15656 16.5444 10.2954 15.598 11.2309 14.6368C12.177 15.6082 13.317 16.5479 14.69 17.3717C14.7844 17.4283 14.8884 17.4553 14.9909 17.4553C15.19 17.4553 15.3841 17.3539 15.4939 17.1707C15.6604 16.8932 15.5704 16.5333 15.293 16.3668C13.9902 15.5852 12.9123 14.6913 12.0211 13.768C12.9421 12.6838 13.6177 11.6205 14.0984 10.7279C14.8762 9.28332 15.2736 8.06902 15.4493 7.43504H16.8703C17.1939 7.43504 17.4563 7.1727 17.4563 6.8491C17.4563 6.52551 17.194 6.26324 16.8703 6.26324Z" fill="#4F4F4F"/>
<path d="M29.5642 23.0683C29.4338 22.7515 29.1285 22.5469 28.786 22.5469C28.7857 22.5469 28.7854 22.5469 28.7851 22.5469C28.4423 22.5472 28.1369 22.7524 28.0071 23.0698C28.0053 23.0741 28.0036 23.0786 28.0019 23.083L23.769 34.1969C23.6538 34.4993 23.8056 34.8378 24.108 34.953C24.1766 34.9791 24.2471 34.9915 24.3164 34.9915C24.5525 34.9915 24.7751 34.8477 24.8641 34.6139L25.7745 32.2234H31.7668L32.6684 34.6123C32.7827 34.915 33.1206 35.0679 33.4235 34.9536C33.7262 34.8394 33.8791 34.5013 33.7648 34.1985L29.5704 23.0841C29.5685 23.0789 29.5663 23.0736 29.5642 23.0683ZM26.2209 31.0516L28.7845 24.3207L31.3246 31.0516H26.2209Z" fill="#4F4F4F"/>
<path d="M15.9656 32.0571L13.4606 30.1784C13.2018 29.9842 12.8345 30.0367 12.6403 30.2955C12.4462 30.5544 12.4987 30.9217 12.7575 31.1159L13.8562 31.9399H11.8565C9.76226 31.9399 8.05859 30.2362 8.05859 28.142V24.3848C8.05859 24.0612 7.79625 23.7988 7.47266 23.7988C7.14906 23.7988 6.88672 24.0612 6.88672 24.3848V28.142C6.88672 30.8824 9.11617 33.1118 11.8565 33.1118H13.8562L12.7575 33.9359C12.4987 34.13 12.4462 34.4973 12.6403 34.7562C12.7555 34.9097 12.9314 34.9905 13.1095 34.9905C13.2319 34.9905 13.3552 34.9523 13.4606 34.8734L15.9656 32.9946C16.1132 32.8839 16.2 32.7103 16.2 32.5259C16.2 32.3414 16.1132 32.1677 15.9656 32.0571Z" fill="#4F4F4F"/>
<path d="M24.0312 7.94519L26.5362 9.82394C26.6416 9.903 26.765 9.94113 26.8873 9.94113C27.0655 9.94113 27.2415 9.86019 27.3566 9.70675C27.5507 9.44792 27.4982 9.08058 27.2394 8.88644L26.1406 8.06238H28.1404C30.2346 8.06238 31.9383 9.76613 31.9383 11.8603V15.6175C31.9383 15.9411 32.2006 16.2035 32.5242 16.2035C32.8478 16.2035 33.1102 15.9411 33.1102 15.6175V11.8603C33.1102 9.11988 30.8807 6.8905 28.1404 6.8905H26.1406L27.2394 6.06644C27.4982 5.8723 27.5507 5.50495 27.3566 5.24613C27.1623 4.98722 26.7952 4.9348 26.5362 5.12894L24.0312 7.00769C23.8837 7.11839 23.7969 7.29199 23.7969 7.47644C23.7969 7.66089 23.8837 7.83456 24.0312 7.94519Z" fill="#4F4F4F"/>
</g>
<defs>
<clipPath id="clip0_2504:51969">
<rect width="40" height="40" fill="white" transform="translate(0 0.000976562)"/>
</clipPath>
</defs>
</svg>
