<svg width="70" height="77" viewBox="0 0 70 77" fill="none" xmlns="http://www.w3.org/2000/svg">
<g filter="url(#filter0_d)">
<path fill-rule="evenodd" clip-rule="evenodd" d="M35 12C26.7157 12 20 18.7157 20 27C20 31.4769 21.9613 35.4957 25.0715 38.2441L35 49L44.9285 38.2441C48.0387 35.4957 50 31.4769 50 27C50 18.7157 43.2843 12 35 12Z" fill="#F7E246"/>
<path d="M33.8551 20C32.8646 20 32.0602 20.8364 32.0602 21.875V22.9136H27.247C26.8415 22.9136 26.4759 23.1784 26.3362 23.5757L25 27.3327V31.2291C25 31.9401 25.5451 32.5116 26.2232 32.5116H27.2803C27.3667 33.8987 28.4769 35 29.8265 35C31.176 35 32.2862 33.8987 32.3726 32.5116H34.1543H36.7071C36.7936 33.8987 37.9038 35 39.2533 35C40.5962 35 41.7064 33.8987 41.7929 32.5116H44V20H33.8551ZM39.2533 33.6059C38.6351 33.6059 38.1298 33.132 38.05 32.5116C38.0367 32.4559 38.0301 32.3931 38.0301 32.3304C38.0301 31.6194 38.5752 31.0479 39.2533 31.0479C39.9248 31.0479 40.4699 31.6194 40.4699 32.3304C40.4699 32.3931 40.4633 32.4559 40.45 32.5116C40.3702 33.132 39.8649 33.6059 39.2533 33.6059ZM29.8265 33.6059C29.2148 33.6059 28.7029 33.132 28.6232 32.5116C28.6099 32.4559 28.6032 32.3931 28.6032 32.3304C28.6032 31.6194 29.155 31.0479 29.8265 31.0479C30.4979 31.0479 31.0497 31.6194 31.0497 32.3304C31.0497 32.3931 31.043 32.4559 31.0297 32.5116C30.95 33.132 30.4381 33.6059 29.8265 33.6059ZM27.6991 24.4749H32.0602V27.1306H26.7684L27.6991 24.4749Z" fill="#333333"/>
</g>
<defs>
<filter id="filter0_d" x="0" y="0" width="70" height="77" filterUnits="userSpaceOnUse" color-interpolation-filters="sRGB">
<feFlood flood-opacity="0" result="BackgroundImageFix"/>
<feColorMatrix in="SourceAlpha" type="matrix" values="0 0 0 0 0 0 0 0 0 0 0 0 0 0 0 0 0 0 127 0" result="hardAlpha"/>
<feOffset dy="8"/>
<feGaussianBlur stdDeviation="10"/>
<feComposite in2="hardAlpha" operator="out"/>
<feColorMatrix type="matrix" values="0 0 0 0 0 0 0 0 0 0 0 0 0 0 0 0 0 0 0.15 0"/>
<feBlend mode="normal" in2="BackgroundImageFix" result="effect1_dropShadow"/>
<feBlend mode="normal" in="SourceGraphic" in2="effect1_dropShadow" result="shape"/>
</filter>
</defs>
</svg>
