<svg width="24" height="19" viewBox="0 0 24 19" fill="none" xmlns="http://www.w3.org/2000/svg">
<path d="M21.5794 5.08679C22.5215 4.42814 23.314 3.60602 23.9597 2.65939V2.65844C23.0977 3.03006 22.1807 3.27717 21.2232 3.39692C22.2078 2.81811 22.9597 1.90855 23.313 0.812702C22.395 1.3516 21.3815 1.73177 20.3013 1.94467C19.4297 1.03035 18.1873 0.464844 16.8321 0.464844C14.2027 0.464844 12.0858 2.56625 12.0858 5.14192C12.0858 5.51259 12.1177 5.869 12.1958 6.2083C8.24784 6.01821 4.75352 4.15537 2.40595 1.31643C1.99668 2.0169 1.75535 2.81811 1.75535 3.68015C1.75535 5.29969 2.60191 6.73484 3.86546 7.56647C3.10192 7.55221 2.35383 7.33361 1.71964 6.99051V7.04183C1.71964 9.31431 3.36545 11.2019 5.52478 11.6372C5.1377 11.7417 4.71684 11.7911 4.27957 11.7911C3.9755 11.7911 3.66854 11.774 3.38089 11.7113C3.99577 13.5627 5.74293 14.9247 7.81829 14.9694C6.20241 16.2135 4.15022 16.9634 1.92911 16.9634C1.5401 16.9634 1.16653 16.9463 0.792969 16.8997C2.89728 18.2351 5.38964 18.9983 8.07892 18.9983C16.4605 18.9983 21.923 12.1133 21.5794 5.08679Z" fill="#333333"/>
</svg>
