<svg width="30" height="30" viewBox="0 0 30 30" fill="none" xmlns="http://www.w3.org/2000/svg">
<g clip-path="url(#clip0_1897_193846)">
<path d="M20.9968 17.7807H20.0053V14.7614H3.02508V28.9641H4.00594V28.5879C4.00594 24.8907 4.00594 21.1936 4.00594 17.4968C4.00594 16.9239 4.14177 16.7819 4.69887 16.7813H11.3496C11.846 16.7813 11.9981 16.9379 11.9987 17.4446V28.9641L12.4826 28.9998V29.9986H0.625801C0.170734 29.9986 -0.000150538 29.8318 -0.000150538 29.3722C-0.000150538 21.8181 -0.00140244 14.2653 -0.00390625 6.71383C-0.00390625 6.42419 0.105635 6.23767 0.350383 6.10208C3.94961 4.11044 7.548 2.1188 11.1455 0.127161C11.2909 0.0491288 11.4525 0.00744913 11.6169 0.00557436C13.8666 -0.00206458 16.116 -0.00185238 18.3653 0.00621093C18.5398 0.00750204 18.7115 0.0511509 18.866 0.133526C22.4473 2.11201 26.0263 4.09431 29.603 6.08044C29.8834 6.23576 29.9998 6.43501 29.9998 6.76285C29.9936 14.2834 29.9919 21.8043 29.9948 29.3257C29.9948 29.8503 29.8459 29.9992 29.3244 29.9998C28.398 29.9998 27.4723 29.9998 26.5214 29.9998V28.9877H28.9814V7.14034H23.0011V15.7456H21.9996V15.377C21.9996 12.6652 21.9958 9.95338 22.0058 7.24155C22.0058 6.99202 21.9251 6.86979 21.716 6.75394C18.4085 4.92908 15.1045 3.09658 11.8041 1.25645C11.5875 1.13614 11.4285 1.12913 11.2081 1.25136C7.8906 3.10253 4.56888 4.94605 1.24299 6.78194C1.08212 6.87043 0.996365 6.95764 0.996365 7.16389C1.00262 14.3784 1.0045 21.593 1.002 28.8075C1.002 28.8495 1.00701 28.8922 1.01076 28.9603H1.98912C1.99351 28.8693 2.00227 28.7693 2.00227 28.6669C2.00227 21.8983 2.00227 15.1294 2.00227 8.36002C2.00227 7.76609 2.13435 7.62923 2.71085 7.62923H20.3001C20.8635 7.62923 20.9968 7.76737 20.9968 8.33965V17.7807ZM27.4716 6.10144C27.3677 6.02378 27.3464 6.0015 27.3176 5.98622C24.3819 4.35658 21.445 2.72864 18.5067 1.1024C18.397 1.04584 18.2755 1.01702 18.1525 1.01837C16.6959 1.01264 15.2386 1.01455 13.7821 1.01837C13.7103 1.02483 13.6391 1.03567 13.5686 1.05084C13.6037 1.08016 13.6405 1.10737 13.6788 1.13232C16.6145 2.76238 19.5512 4.39032 22.4891 6.01614C22.6094 6.07488 22.7418 6.10368 22.8753 6.10017C24.0715 6.1059 25.2683 6.10017 26.4651 6.10017L27.4716 6.10144ZM19.9846 8.66431H3.02633V9.64527H19.9846V8.66431ZM19.9846 10.7014H3.01569V11.6791H19.9852L19.9846 10.7014ZM19.9846 12.7346H3.02633V13.7143H19.9852L19.9846 12.7346ZM7.97636 20.8369V17.8132H5.01998V20.8369H7.97636ZM7.987 21.8809H5.02061V24.89H7.987V21.8809ZM5.02249 25.9455V28.9584H7.98449V25.9455H5.02249ZM10.979 20.8338V17.824H9.01356V20.8369L10.979 20.8338ZM10.979 24.9079V21.886H9.0242V24.9104L10.979 24.9079ZM10.979 28.975V25.955H9.02545V28.9775L10.979 28.975Z" fill="white"/>
<path d="M25.5386 26.9445H25.9767V27.9516L25.4384 27.9796C25.6068 28.7365 25.4271 29.3622 24.7743 29.776C24.2397 30.1147 23.6764 30.0943 23.1587 29.7346C22.5584 29.3151 22.395 28.711 22.5615 27.9847H20.4364C20.6048 28.7365 20.4264 29.3527 19.7867 29.7671C19.2553 30.1115 18.6988 30.0905 18.1699 29.7454C17.6121 29.382 17.405 28.7785 17.5614 27.963H16.4347C16.6087 28.7473 16.4203 29.382 15.7462 29.79C15.2066 30.1172 14.642 30.0866 14.1312 29.7155C13.5503 29.2928 13.3945 28.697 13.5604 27.9719H13.0195V26.9617L13.5003 26.94V26.5982C13.5003 25.5716 13.5003 24.5446 13.5003 23.5172C13.5003 23.0505 13.6618 22.8838 14.1143 22.8806C14.8936 22.8806 15.6736 22.8806 16.4986 22.8806V22.5292C16.4986 21.5026 16.4986 20.4756 16.4986 19.4482C16.4986 18.9822 16.6613 18.8116 17.1126 18.8116C18.4866 18.8116 19.8612 18.8078 21.2351 18.8148C21.3215 18.8216 21.4081 18.8064 21.4873 18.7707C21.5664 18.7349 21.6355 18.6796 21.6883 18.6098C22.0814 18.1304 22.4964 17.6696 22.8983 17.1972C23.0099 17.0575 23.1521 16.9464 23.3135 16.8726C23.4749 16.7989 23.6511 16.7646 23.8278 16.7726C24.6503 16.7866 25.4728 16.7847 26.2953 16.7726C26.7592 16.7669 27.1091 16.9419 27.3019 17.3748C27.4947 17.8077 27.3858 18.196 27.0828 18.5455C26.2841 19.4666 25.4841 20.3871 24.701 21.3216C24.5814 21.472 24.5121 21.6574 24.5032 21.8506C24.4845 22.8144 24.4901 23.7782 24.5032 24.7413C24.5032 24.8457 24.5608 24.9997 24.6391 25.0437C25.2506 25.3874 25.5304 25.9062 25.4973 26.6097C25.4947 26.6946 25.4966 26.7796 25.5029 26.8643C25.5111 26.8925 25.5231 26.9195 25.5386 26.9445ZM20.4846 19.8517H17.5226V22.8659H20.4846V19.8517ZM17.4832 26.9362V23.9169H14.5218V26.9362H17.4832ZM23.4729 22.8755V19.8511H21.5206V22.8755H23.4729ZM18.5204 23.9118V26.9273H20.4828V23.9118H18.5204ZM22.4871 26.9432C22.494 26.8745 22.4976 26.8054 22.4977 26.7363C22.4489 25.9807 22.6955 25.3887 23.3928 25.0386C23.421 25.0195 23.4447 24.9944 23.4621 24.9648C23.4796 24.9353 23.4903 24.9022 23.4936 24.868C23.5036 24.5535 23.498 24.239 23.498 23.9182H21.52V26.9432H22.4871ZM24.4964 19.9943L26.3849 17.7962C25.491 17.7962 24.6716 17.7962 23.8529 17.7962C23.8017 17.7909 23.7504 17.8045 23.7083 17.8344C23.4347 18.1413 23.1681 18.4532 22.857 18.8122C23.2845 18.8122 23.6275 18.8071 23.9706 18.8122C24.3136 18.8173 24.4851 19.0032 24.4957 19.345C24.5007 19.5347 24.4957 19.7206 24.4957 19.9943H24.4964ZM24.4907 26.933C24.4907 26.5912 24.5978 26.2252 24.2504 26.0291C24.1693 25.9919 24.0813 25.9732 23.9925 25.9742C23.9036 25.9752 23.816 25.9959 23.7358 26.0348C23.3928 26.2366 23.5105 26.5995 23.5049 26.933H24.4907ZM15.4958 28.4729C15.4949 28.3735 15.4652 28.2765 15.4103 28.1942C15.3554 28.1118 15.2779 28.0478 15.1874 28.0102C15.0968 27.9725 14.9974 27.9629 14.9015 27.9825C14.8056 28.0021 14.7176 28.0501 14.6484 28.1204C14.5793 28.1908 14.5321 28.2803 14.5128 28.3778C14.4935 28.4753 14.503 28.5764 14.54 28.6685C14.577 28.7606 14.64 28.8394 14.7209 28.8953C14.8019 28.9511 14.8972 28.9813 14.995 28.9822C15.126 28.9764 15.2501 28.9209 15.3428 28.8266C15.4355 28.7323 15.4901 28.6061 15.4958 28.4729ZM19.4938 28.4767C19.4941 28.3772 19.4655 28.2798 19.4116 28.1967C19.3576 28.1137 19.2808 28.0487 19.1906 28.0099C19.1004 27.9712 19.001 27.9604 18.9049 27.9789C18.8087 27.9975 18.7201 28.0445 18.6501 28.1142C18.5802 28.1838 18.5321 28.2729 18.5118 28.3703C18.4915 28.4677 18.5 28.569 18.5361 28.6615C18.5723 28.754 18.6346 28.8335 18.7151 28.8901C18.7956 28.9467 18.8907 28.9779 18.9886 28.9796C19.1198 28.9764 19.2448 28.9227 19.3386 28.8294C19.4323 28.736 19.4878 28.61 19.4938 28.4767ZM24.0119 27.9675C23.9141 27.9644 23.8176 27.9909 23.7346 28.0434C23.6515 28.096 23.5856 28.1723 23.545 28.2628C23.5045 28.3534 23.4912 28.4541 23.5067 28.5523C23.5223 28.6505 23.566 28.7419 23.6324 28.8149C23.6989 28.8879 23.785 28.9393 23.8801 28.9627C23.9752 28.9861 24.075 28.9804 24.1669 28.9463C24.2588 28.9122 24.3387 28.8513 24.3967 28.7711C24.4546 28.691 24.488 28.5952 24.4926 28.4958C24.4918 28.3628 24.4419 28.235 24.3529 28.1375C24.2639 28.04 24.1422 27.9801 24.0119 27.9694V27.9675Z" fill="white"/>
</g>
<defs>
<clipPath id="clip0_1897_193846">
<rect width="30" height="30" fill="white"/>
</clipPath>
</defs>
</svg>
